<?xml version="1.0" encoding="utf-8"?>
<svg xmlns="http://www.w3.org/2000/svg" xmlns:xlink="http://www.w3.org/1999/xlink" width="600" height="400" viewBox="0 0 2400 1600">
<defs>
  <clipPath id="clip490">
    <rect x="0" y="0" width="2400" height="1600"/>
  </clipPath>
</defs>
<path clip-path="url(#clip490)" d="M0 1600 L2400 1600 L2400 0 L0 0  Z" fill="#ffffff" fill-rule="evenodd" fill-opacity="1"/>
<defs>
  <clipPath id="clip491">
    <rect x="480" y="0" width="1681" height="1600"/>
  </clipPath>
</defs>
<defs>
  <clipPath id="clip492">
    <rect x="1605" y="510" width="685" height="875"/>
  </clipPath>
</defs>
<path clip-path="url(#clip490)" d="M193.936 1423.18 L2352.76 1423.18 L2352.76 47.2441 L193.936 47.2441  Z" fill="#ffffff" fill-rule="evenodd" fill-opacity="1"/>
<defs>
  <clipPath id="clip493">
    <rect x="193" y="47" width="2160" height="1377"/>
  </clipPath>
</defs>
<polyline clip-path="url(#clip493)" style="stroke:#000000; stroke-linecap:round; stroke-linejoin:round; stroke-width:2; stroke-opacity:0.1; fill:none" points="255.035,1423.18 255.035,47.2441 "/>
<polyline clip-path="url(#clip493)" style="stroke:#000000; stroke-linecap:round; stroke-linejoin:round; stroke-width:2; stroke-opacity:0.1; fill:none" points="764.19,1423.18 764.19,47.2441 "/>
<polyline clip-path="url(#clip493)" style="stroke:#000000; stroke-linecap:round; stroke-linejoin:round; stroke-width:2; stroke-opacity:0.1; fill:none" points="1273.35,1423.18 1273.35,47.2441 "/>
<polyline clip-path="url(#clip493)" style="stroke:#000000; stroke-linecap:round; stroke-linejoin:round; stroke-width:2; stroke-opacity:0.1; fill:none" points="1782.5,1423.18 1782.5,47.2441 "/>
<polyline clip-path="url(#clip493)" style="stroke:#000000; stroke-linecap:round; stroke-linejoin:round; stroke-width:2; stroke-opacity:0.1; fill:none" points="2291.66,1423.18 2291.66,47.2441 "/>
<polyline clip-path="url(#clip490)" style="stroke:#000000; stroke-linecap:round; stroke-linejoin:round; stroke-width:4; stroke-opacity:1; fill:none" points="193.936,1423.18 2352.76,1423.18 "/>
<polyline clip-path="url(#clip490)" style="stroke:#000000; stroke-linecap:round; stroke-linejoin:round; stroke-width:4; stroke-opacity:1; fill:none" points="255.035,1423.18 255.035,1404.28 "/>
<polyline clip-path="url(#clip490)" style="stroke:#000000; stroke-linecap:round; stroke-linejoin:round; stroke-width:4; stroke-opacity:1; fill:none" points="764.19,1423.18 764.19,1404.28 "/>
<polyline clip-path="url(#clip490)" style="stroke:#000000; stroke-linecap:round; stroke-linejoin:round; stroke-width:4; stroke-opacity:1; fill:none" points="1273.35,1423.18 1273.35,1404.28 "/>
<polyline clip-path="url(#clip490)" style="stroke:#000000; stroke-linecap:round; stroke-linejoin:round; stroke-width:4; stroke-opacity:1; fill:none" points="1782.5,1423.18 1782.5,1404.28 "/>
<polyline clip-path="url(#clip490)" style="stroke:#000000; stroke-linecap:round; stroke-linejoin:round; stroke-width:4; stroke-opacity:1; fill:none" points="2291.66,1423.18 2291.66,1404.28 "/>
<path clip-path="url(#clip490)" d="M217.338 1454.1 Q213.727 1454.1 211.898 1457.66 Q210.093 1461.2 210.093 1468.33 Q210.093 1475.44 211.898 1479.01 Q213.727 1482.55 217.338 1482.55 Q220.972 1482.55 222.778 1479.01 Q224.607 1475.44 224.607 1468.33 Q224.607 1461.2 222.778 1457.66 Q220.972 1454.1 217.338 1454.1 M217.338 1450.39 Q223.148 1450.39 226.204 1455 Q229.282 1459.58 229.282 1468.33 Q229.282 1477.06 226.204 1481.67 Q223.148 1486.25 217.338 1486.25 Q211.528 1486.25 208.449 1481.67 Q205.394 1477.06 205.394 1468.33 Q205.394 1459.58 208.449 1455 Q211.528 1450.39 217.338 1450.39 Z" fill="#000000" fill-rule="nonzero" fill-opacity="1" /><path clip-path="url(#clip490)" d="M237.5 1479.7 L242.384 1479.7 L242.384 1485.58 L237.5 1485.58 L237.5 1479.7 Z" fill="#000000" fill-rule="nonzero" fill-opacity="1" /><path clip-path="url(#clip490)" d="M262.569 1454.1 Q258.958 1454.1 257.13 1457.66 Q255.324 1461.2 255.324 1468.33 Q255.324 1475.44 257.13 1479.01 Q258.958 1482.55 262.569 1482.55 Q266.204 1482.55 268.009 1479.01 Q269.838 1475.44 269.838 1468.33 Q269.838 1461.2 268.009 1457.66 Q266.204 1454.1 262.569 1454.1 M262.569 1450.39 Q268.38 1450.39 271.435 1455 Q274.514 1459.58 274.514 1468.33 Q274.514 1477.06 271.435 1481.67 Q268.38 1486.25 262.569 1486.25 Q256.759 1486.25 253.681 1481.67 Q250.625 1477.06 250.625 1468.33 Q250.625 1459.58 253.681 1455 Q256.759 1450.39 262.569 1450.39 Z" fill="#000000" fill-rule="nonzero" fill-opacity="1" /><path clip-path="url(#clip490)" d="M292.731 1454.1 Q289.12 1454.1 287.291 1457.66 Q285.486 1461.2 285.486 1468.33 Q285.486 1475.44 287.291 1479.01 Q289.12 1482.55 292.731 1482.55 Q296.365 1482.55 298.171 1479.01 Q300 1475.44 300 1468.33 Q300 1461.2 298.171 1457.66 Q296.365 1454.1 292.731 1454.1 M292.731 1450.39 Q298.541 1450.39 301.597 1455 Q304.676 1459.58 304.676 1468.33 Q304.676 1477.06 301.597 1481.67 Q298.541 1486.25 292.731 1486.25 Q286.921 1486.25 283.842 1481.67 Q280.787 1477.06 280.787 1468.33 Q280.787 1459.58 283.842 1455 Q286.921 1450.39 292.731 1450.39 Z" fill="#000000" fill-rule="nonzero" fill-opacity="1" /><path clip-path="url(#clip490)" d="M726.991 1454.1 Q723.38 1454.1 721.552 1457.66 Q719.746 1461.2 719.746 1468.33 Q719.746 1475.44 721.552 1479.01 Q723.38 1482.55 726.991 1482.55 Q730.626 1482.55 732.431 1479.01 Q734.26 1475.44 734.26 1468.33 Q734.26 1461.2 732.431 1457.66 Q730.626 1454.1 726.991 1454.1 M726.991 1450.39 Q732.802 1450.39 735.857 1455 Q738.936 1459.58 738.936 1468.33 Q738.936 1477.06 735.857 1481.67 Q732.802 1486.25 726.991 1486.25 Q721.181 1486.25 718.103 1481.67 Q715.047 1477.06 715.047 1468.33 Q715.047 1459.58 718.103 1455 Q721.181 1450.39 726.991 1450.39 Z" fill="#000000" fill-rule="nonzero" fill-opacity="1" /><path clip-path="url(#clip490)" d="M747.153 1479.7 L752.038 1479.7 L752.038 1485.58 L747.153 1485.58 L747.153 1479.7 Z" fill="#000000" fill-rule="nonzero" fill-opacity="1" /><path clip-path="url(#clip490)" d="M766.25 1481.64 L782.57 1481.64 L782.57 1485.58 L760.626 1485.58 L760.626 1481.64 Q763.288 1478.89 767.871 1474.26 Q772.477 1469.61 773.658 1468.27 Q775.903 1465.74 776.783 1464.01 Q777.686 1462.25 777.686 1460.56 Q777.686 1457.8 775.741 1456.07 Q773.82 1454.33 770.718 1454.33 Q768.519 1454.33 766.065 1455.09 Q763.635 1455.86 760.857 1457.41 L760.857 1452.69 Q763.681 1451.55 766.135 1450.97 Q768.588 1450.39 770.625 1450.39 Q775.996 1450.39 779.19 1453.08 Q782.385 1455.77 782.385 1460.26 Q782.385 1462.39 781.574 1464.31 Q780.787 1466.2 778.681 1468.8 Q778.102 1469.47 775 1472.69 Q771.899 1475.88 766.25 1481.64 Z" fill="#000000" fill-rule="nonzero" fill-opacity="1" /><path clip-path="url(#clip490)" d="M792.431 1451.02 L810.787 1451.02 L810.787 1454.96 L796.713 1454.96 L796.713 1463.43 Q797.732 1463.08 798.75 1462.92 Q799.769 1462.73 800.787 1462.73 Q806.574 1462.73 809.954 1465.9 Q813.334 1469.08 813.334 1474.49 Q813.334 1480.07 809.861 1483.17 Q806.389 1486.25 800.07 1486.25 Q797.894 1486.25 795.625 1485.88 Q793.38 1485.51 790.973 1484.77 L790.973 1480.07 Q793.056 1481.2 795.278 1481.76 Q797.5 1482.32 799.977 1482.32 Q803.982 1482.32 806.32 1480.21 Q808.658 1478.1 808.658 1474.49 Q808.658 1470.88 806.32 1468.77 Q803.982 1466.67 799.977 1466.67 Q798.102 1466.67 796.227 1467.08 Q794.375 1467.5 792.431 1468.38 L792.431 1451.02 Z" fill="#000000" fill-rule="nonzero" fill-opacity="1" /><path clip-path="url(#clip490)" d="M1235.65 1454.1 Q1232.04 1454.1 1230.21 1457.66 Q1228.4 1461.2 1228.4 1468.33 Q1228.4 1475.44 1230.21 1479.01 Q1232.04 1482.55 1235.65 1482.55 Q1239.28 1482.55 1241.09 1479.01 Q1242.92 1475.44 1242.92 1468.33 Q1242.92 1461.2 1241.09 1457.66 Q1239.28 1454.1 1235.65 1454.1 M1235.65 1450.39 Q1241.46 1450.39 1244.52 1455 Q1247.59 1459.58 1247.59 1468.33 Q1247.59 1477.06 1244.52 1481.67 Q1241.46 1486.25 1235.65 1486.25 Q1229.84 1486.25 1226.76 1481.67 Q1223.71 1477.06 1223.71 1468.33 Q1223.71 1459.58 1226.76 1455 Q1229.84 1450.39 1235.65 1450.39 Z" fill="#000000" fill-rule="nonzero" fill-opacity="1" /><path clip-path="url(#clip490)" d="M1255.81 1479.7 L1260.7 1479.7 L1260.7 1485.58 L1255.81 1485.58 L1255.81 1479.7 Z" fill="#000000" fill-rule="nonzero" fill-opacity="1" /><path clip-path="url(#clip490)" d="M1270.93 1451.02 L1289.28 1451.02 L1289.28 1454.96 L1275.21 1454.96 L1275.21 1463.43 Q1276.23 1463.08 1277.25 1462.92 Q1278.26 1462.73 1279.28 1462.73 Q1285.07 1462.73 1288.45 1465.9 Q1291.83 1469.08 1291.83 1474.49 Q1291.83 1480.07 1288.36 1483.17 Q1284.89 1486.25 1278.57 1486.25 Q1276.39 1486.25 1274.12 1485.88 Q1271.88 1485.51 1269.47 1484.77 L1269.47 1480.07 Q1271.55 1481.2 1273.77 1481.76 Q1276 1482.32 1278.47 1482.32 Q1282.48 1482.32 1284.82 1480.21 Q1287.15 1478.1 1287.15 1474.49 Q1287.15 1470.88 1284.82 1468.77 Q1282.48 1466.67 1278.47 1466.67 Q1276.6 1466.67 1274.72 1467.08 Q1272.87 1467.5 1270.93 1468.38 L1270.93 1451.02 Z" fill="#000000" fill-rule="nonzero" fill-opacity="1" /><path clip-path="url(#clip490)" d="M1311.04 1454.1 Q1307.43 1454.1 1305.6 1457.66 Q1303.8 1461.2 1303.8 1468.33 Q1303.8 1475.44 1305.6 1479.01 Q1307.43 1482.55 1311.04 1482.55 Q1314.68 1482.55 1316.48 1479.01 Q1318.31 1475.44 1318.31 1468.33 Q1318.31 1461.2 1316.48 1457.66 Q1314.68 1454.1 1311.04 1454.1 M1311.04 1450.39 Q1316.85 1450.39 1319.91 1455 Q1322.99 1459.58 1322.99 1468.33 Q1322.99 1477.06 1319.91 1481.67 Q1316.85 1486.25 1311.04 1486.25 Q1305.23 1486.25 1302.15 1481.67 Q1299.1 1477.06 1299.1 1468.33 Q1299.1 1459.58 1302.15 1455 Q1305.23 1450.39 1311.04 1450.39 Z" fill="#000000" fill-rule="nonzero" fill-opacity="1" /><path clip-path="url(#clip490)" d="M1745.3 1454.1 Q1741.69 1454.1 1739.86 1457.66 Q1738.06 1461.2 1738.06 1468.33 Q1738.06 1475.44 1739.86 1479.01 Q1741.69 1482.55 1745.3 1482.55 Q1748.94 1482.55 1750.74 1479.01 Q1752.57 1475.44 1752.57 1468.33 Q1752.57 1461.2 1750.74 1457.66 Q1748.94 1454.1 1745.3 1454.1 M1745.3 1450.39 Q1751.11 1450.39 1754.17 1455 Q1757.25 1459.58 1757.25 1468.33 Q1757.25 1477.06 1754.17 1481.67 Q1751.11 1486.25 1745.3 1486.25 Q1739.49 1486.25 1736.41 1481.67 Q1733.36 1477.06 1733.36 1468.33 Q1733.36 1459.58 1736.41 1455 Q1739.49 1450.39 1745.3 1450.39 Z" fill="#000000" fill-rule="nonzero" fill-opacity="1" /><path clip-path="url(#clip490)" d="M1765.46 1479.7 L1770.35 1479.7 L1770.35 1485.58 L1765.46 1485.58 L1765.46 1479.7 Z" fill="#000000" fill-rule="nonzero" fill-opacity="1" /><path clip-path="url(#clip490)" d="M1779.35 1451.02 L1801.58 1451.02 L1801.58 1453.01 L1789.03 1485.58 L1784.15 1485.58 L1795.95 1454.96 L1779.35 1454.96 L1779.35 1451.02 Z" fill="#000000" fill-rule="nonzero" fill-opacity="1" /><path clip-path="url(#clip490)" d="M1810.74 1451.02 L1829.1 1451.02 L1829.1 1454.96 L1815.02 1454.96 L1815.02 1463.43 Q1816.04 1463.08 1817.06 1462.92 Q1818.08 1462.73 1819.1 1462.73 Q1824.89 1462.73 1828.27 1465.9 Q1831.64 1469.08 1831.64 1474.49 Q1831.64 1480.07 1828.17 1483.17 Q1824.7 1486.25 1818.38 1486.25 Q1816.21 1486.25 1813.94 1485.88 Q1811.69 1485.51 1809.28 1484.77 L1809.28 1480.07 Q1811.37 1481.2 1813.59 1481.76 Q1815.81 1482.32 1818.29 1482.32 Q1822.29 1482.32 1824.63 1480.21 Q1826.97 1478.1 1826.97 1474.49 Q1826.97 1470.88 1824.63 1468.77 Q1822.29 1466.67 1818.29 1466.67 Q1816.41 1466.67 1814.54 1467.08 Q1812.69 1467.5 1810.74 1468.38 L1810.74 1451.02 Z" fill="#000000" fill-rule="nonzero" fill-opacity="1" /><path clip-path="url(#clip490)" d="M2243.73 1481.64 L2251.37 1481.64 L2251.37 1455.28 L2243.06 1456.95 L2243.06 1452.69 L2251.32 1451.02 L2256 1451.02 L2256 1481.64 L2263.64 1481.64 L2263.64 1485.58 L2243.73 1485.58 L2243.73 1481.64 Z" fill="#000000" fill-rule="nonzero" fill-opacity="1" /><path clip-path="url(#clip490)" d="M2273.08 1479.7 L2277.97 1479.7 L2277.97 1485.58 L2273.08 1485.58 L2273.08 1479.7 Z" fill="#000000" fill-rule="nonzero" fill-opacity="1" /><path clip-path="url(#clip490)" d="M2298.15 1454.1 Q2294.54 1454.1 2292.71 1457.66 Q2290.9 1461.2 2290.9 1468.33 Q2290.9 1475.44 2292.71 1479.01 Q2294.54 1482.55 2298.15 1482.55 Q2301.78 1482.55 2303.59 1479.01 Q2305.42 1475.44 2305.42 1468.33 Q2305.42 1461.2 2303.59 1457.66 Q2301.78 1454.1 2298.15 1454.1 M2298.15 1450.39 Q2303.96 1450.39 2307.02 1455 Q2310.09 1459.58 2310.09 1468.33 Q2310.09 1477.06 2307.02 1481.67 Q2303.96 1486.25 2298.15 1486.25 Q2292.34 1486.25 2289.26 1481.67 Q2286.21 1477.06 2286.21 1468.33 Q2286.21 1459.58 2289.26 1455 Q2292.34 1450.39 2298.15 1450.39 Z" fill="#000000" fill-rule="nonzero" fill-opacity="1" /><path clip-path="url(#clip490)" d="M2328.31 1454.1 Q2324.7 1454.1 2322.87 1457.66 Q2321.07 1461.2 2321.07 1468.33 Q2321.07 1475.44 2322.87 1479.01 Q2324.7 1482.55 2328.31 1482.55 Q2331.95 1482.55 2333.75 1479.01 Q2335.58 1475.44 2335.58 1468.33 Q2335.58 1461.2 2333.75 1457.66 Q2331.95 1454.1 2328.31 1454.1 M2328.31 1450.39 Q2334.12 1450.39 2337.18 1455 Q2340.26 1459.58 2340.26 1468.33 Q2340.26 1477.06 2337.18 1481.67 Q2334.12 1486.25 2328.31 1486.25 Q2322.5 1486.25 2319.42 1481.67 Q2316.37 1477.06 2316.37 1468.33 Q2316.37 1459.58 2319.42 1455 Q2322.5 1450.39 2328.31 1450.39 Z" fill="#000000" fill-rule="nonzero" fill-opacity="1" /><path clip-path="url(#clip490)" d="M1287.52 1528.8 Q1287.52 1530.61 1286.39 1531.64 Q1285.26 1532.64 1283.98 1532.64 Q1282.75 1532.64 1282.11 1531.93 Q1281.46 1531.22 1281.46 1530.32 Q1281.46 1529.09 1282.37 1528.03 Q1283.27 1526.97 1284.62 1526.74 Q1283.3 1525.91 1281.34 1525.91 Q1280.05 1525.91 1278.92 1526.58 Q1277.83 1527.26 1277.15 1528.13 Q1276.5 1529 1275.93 1530.25 Q1275.38 1531.48 1275.15 1532.22 Q1274.96 1532.93 1274.8 1533.7 L1272.54 1542.72 Q1271.45 1547 1271.45 1548.51 Q1271.45 1550.38 1272.35 1551.64 Q1273.25 1552.86 1275.06 1552.86 Q1275.76 1552.86 1276.57 1552.67 Q1277.37 1552.44 1278.41 1551.86 Q1279.47 1551.25 1280.4 1550.35 Q1281.37 1549.42 1282.3 1547.84 Q1283.24 1546.26 1283.85 1544.23 Q1284.04 1543.52 1284.69 1543.52 Q1285.49 1543.52 1285.49 1544.17 Q1285.49 1544.71 1285.04 1545.87 Q1284.62 1547 1283.69 1548.48 Q1282.79 1549.93 1281.59 1551.25 Q1280.4 1552.54 1278.63 1553.44 Q1276.86 1554.34 1274.93 1554.34 Q1272.16 1554.34 1270.32 1552.86 Q1268.49 1551.38 1267.81 1549.32 Q1267.65 1549.61 1267.42 1550 Q1267.2 1550.38 1266.52 1551.25 Q1265.88 1552.09 1265.14 1552.73 Q1264.4 1553.34 1263.24 1553.83 Q1262.11 1554.34 1260.89 1554.34 Q1259.34 1554.34 1257.95 1553.89 Q1256.6 1553.44 1255.64 1552.41 Q1254.67 1551.38 1254.67 1549.96 Q1254.67 1548.38 1255.73 1547.29 Q1256.83 1546.16 1258.31 1546.16 Q1259.24 1546.16 1259.98 1546.71 Q1260.76 1547.26 1260.76 1548.45 Q1260.76 1549.77 1259.85 1550.77 Q1258.95 1551.77 1257.66 1552.02 Q1258.98 1552.86 1260.95 1552.86 Q1263.08 1552.86 1264.75 1550.99 Q1266.42 1549.13 1267.23 1546 Q1269.23 1538.5 1270 1535.15 Q1270.77 1531.77 1270.77 1530.32 Q1270.77 1528.96 1270.42 1528.03 Q1270.06 1527.1 1269.45 1526.68 Q1268.87 1526.23 1268.32 1526.07 Q1267.81 1525.91 1267.23 1525.91 Q1266.26 1525.91 1265.17 1526.29 Q1264.11 1526.68 1262.82 1527.58 Q1261.56 1528.45 1260.37 1530.25 Q1259.18 1532.06 1258.37 1534.54 Q1258.21 1535.28 1257.5 1535.28 Q1256.73 1535.24 1256.73 1534.6 Q1256.73 1534.05 1257.15 1532.93 Q1257.6 1531.77 1258.5 1530.32 Q1259.44 1528.87 1260.63 1527.58 Q1261.85 1526.26 1263.62 1525.36 Q1265.43 1524.46 1267.36 1524.46 Q1268.23 1524.46 1269.07 1524.65 Q1269.93 1524.81 1270.97 1525.29 Q1272.03 1525.78 1272.96 1526.84 Q1273.9 1527.9 1274.48 1529.45 Q1274.86 1528.71 1275.38 1528 Q1275.93 1527.29 1276.76 1526.42 Q1277.63 1525.52 1278.82 1525 Q1280.05 1524.46 1281.4 1524.46 Q1282.72 1524.46 1284.01 1524.81 Q1285.3 1525.13 1286.39 1526.19 Q1287.52 1527.23 1287.52 1528.8 Z" fill="#000000" fill-rule="nonzero" fill-opacity="1" /><polyline clip-path="url(#clip493)" style="stroke:#000000; stroke-linecap:round; stroke-linejoin:round; stroke-width:2; stroke-opacity:0.1; fill:none" points="193.936,1423.18 2352.76,1423.18 "/>
<polyline clip-path="url(#clip493)" style="stroke:#000000; stroke-linecap:round; stroke-linejoin:round; stroke-width:2; stroke-opacity:0.1; fill:none" points="193.936,1079.2 2352.76,1079.2 "/>
<polyline clip-path="url(#clip493)" style="stroke:#000000; stroke-linecap:round; stroke-linejoin:round; stroke-width:2; stroke-opacity:0.1; fill:none" points="193.936,735.212 2352.76,735.212 "/>
<polyline clip-path="url(#clip493)" style="stroke:#000000; stroke-linecap:round; stroke-linejoin:round; stroke-width:2; stroke-opacity:0.1; fill:none" points="193.936,391.228 2352.76,391.228 "/>
<polyline clip-path="url(#clip493)" style="stroke:#000000; stroke-linecap:round; stroke-linejoin:round; stroke-width:2; stroke-opacity:0.1; fill:none" points="193.936,47.2441 2352.76,47.2441 "/>
<polyline clip-path="url(#clip490)" style="stroke:#000000; stroke-linecap:round; stroke-linejoin:round; stroke-width:4; stroke-opacity:1; fill:none" points="193.936,1423.18 193.936,47.2441 "/>
<polyline clip-path="url(#clip490)" style="stroke:#000000; stroke-linecap:round; stroke-linejoin:round; stroke-width:4; stroke-opacity:1; fill:none" points="193.936,1423.18 212.834,1423.18 "/>
<polyline clip-path="url(#clip490)" style="stroke:#000000; stroke-linecap:round; stroke-linejoin:round; stroke-width:4; stroke-opacity:1; fill:none" points="193.936,1079.2 212.834,1079.2 "/>
<polyline clip-path="url(#clip490)" style="stroke:#000000; stroke-linecap:round; stroke-linejoin:round; stroke-width:4; stroke-opacity:1; fill:none" points="193.936,735.212 212.834,735.212 "/>
<polyline clip-path="url(#clip490)" style="stroke:#000000; stroke-linecap:round; stroke-linejoin:round; stroke-width:4; stroke-opacity:1; fill:none" points="193.936,391.228 212.834,391.228 "/>
<polyline clip-path="url(#clip490)" style="stroke:#000000; stroke-linecap:round; stroke-linejoin:round; stroke-width:4; stroke-opacity:1; fill:none" points="193.936,47.2441 212.834,47.2441 "/>
<path clip-path="url(#clip490)" d="M50.9921 1423.63 L80.6679 1423.63 L80.6679 1427.57 L50.9921 1427.57 L50.9921 1423.63 Z" fill="#000000" fill-rule="nonzero" fill-opacity="1" /><path clip-path="url(#clip490)" d="M91.5706 1436.52 L99.2095 1436.52 L99.2095 1410.16 L90.8993 1411.83 L90.8993 1407.57 L99.1632 1405.9 L103.839 1405.9 L103.839 1436.52 L111.478 1436.52 L111.478 1440.46 L91.5706 1440.46 L91.5706 1436.52 Z" fill="#000000" fill-rule="nonzero" fill-opacity="1" /><path clip-path="url(#clip490)" d="M120.922 1434.58 L125.807 1434.58 L125.807 1440.46 L120.922 1440.46 L120.922 1434.58 Z" fill="#000000" fill-rule="nonzero" fill-opacity="1" /><path clip-path="url(#clip490)" d="M145.992 1408.98 Q142.381 1408.98 140.552 1412.54 Q138.746 1416.08 138.746 1423.21 Q138.746 1430.32 140.552 1433.89 Q142.381 1437.43 145.992 1437.43 Q149.626 1437.43 151.431 1433.89 Q153.26 1430.32 153.26 1423.21 Q153.26 1416.08 151.431 1412.54 Q149.626 1408.98 145.992 1408.98 M145.992 1405.27 Q151.802 1405.27 154.857 1409.88 Q157.936 1414.46 157.936 1423.21 Q157.936 1431.94 154.857 1436.55 Q151.802 1441.13 145.992 1441.13 Q140.181 1441.13 137.103 1436.55 Q134.047 1431.94 134.047 1423.21 Q134.047 1414.46 137.103 1409.88 Q140.181 1405.27 145.992 1405.27 Z" fill="#000000" fill-rule="nonzero" fill-opacity="1" /><path clip-path="url(#clip490)" d="M51.9875 1079.65 L81.6633 1079.65 L81.6633 1083.58 L51.9875 1083.58 L51.9875 1079.65 Z" fill="#000000" fill-rule="nonzero" fill-opacity="1" /><path clip-path="url(#clip490)" d="M101.756 1064.99 Q98.1447 1064.99 96.316 1068.56 Q94.5104 1072.1 94.5104 1079.23 Q94.5104 1086.34 96.316 1089.9 Q98.1447 1093.44 101.756 1093.44 Q105.39 1093.44 107.196 1089.9 Q109.024 1086.34 109.024 1079.23 Q109.024 1072.1 107.196 1068.56 Q105.39 1064.99 101.756 1064.99 M101.756 1061.29 Q107.566 1061.29 110.621 1065.9 Q113.7 1070.48 113.7 1079.23 Q113.7 1087.96 110.621 1092.56 Q107.566 1097.15 101.756 1097.15 Q95.9456 1097.15 92.8669 1092.56 Q89.8114 1087.96 89.8114 1079.23 Q89.8114 1070.48 92.8669 1065.9 Q95.9456 1061.29 101.756 1061.29 Z" fill="#000000" fill-rule="nonzero" fill-opacity="1" /><path clip-path="url(#clip490)" d="M121.918 1090.6 L126.802 1090.6 L126.802 1096.48 L121.918 1096.48 L121.918 1090.6 Z" fill="#000000" fill-rule="nonzero" fill-opacity="1" /><path clip-path="url(#clip490)" d="M137.033 1061.92 L155.39 1061.92 L155.39 1065.85 L141.316 1065.85 L141.316 1074.32 Q142.334 1073.98 143.353 1073.81 Q144.371 1073.63 145.39 1073.63 Q151.177 1073.63 154.556 1076.8 Q157.936 1079.97 157.936 1085.39 Q157.936 1090.97 154.464 1094.07 Q150.992 1097.15 144.672 1097.15 Q142.496 1097.15 140.228 1096.78 Q137.982 1096.41 135.575 1095.67 L135.575 1090.97 Q137.658 1092.1 139.881 1092.66 Q142.103 1093.21 144.58 1093.21 Q148.584 1093.21 150.922 1091.11 Q153.26 1089 153.26 1085.39 Q153.26 1081.78 150.922 1079.67 Q148.584 1077.56 144.58 1077.56 Q142.705 1077.56 140.83 1077.98 Q138.978 1078.4 137.033 1079.28 L137.033 1061.92 Z" fill="#000000" fill-rule="nonzero" fill-opacity="1" /><path clip-path="url(#clip490)" d="M100.76 721.011 Q97.1493 721.011 95.3206 724.575 Q93.515 728.117 93.515 735.247 Q93.515 742.353 95.3206 745.918 Q97.1493 749.46 100.76 749.46 Q104.395 749.46 106.2 745.918 Q108.029 742.353 108.029 735.247 Q108.029 728.117 106.2 724.575 Q104.395 721.011 100.76 721.011 M100.76 717.307 Q106.571 717.307 109.626 721.913 Q112.705 726.497 112.705 735.247 Q112.705 743.973 109.626 748.58 Q106.571 753.163 100.76 753.163 Q94.9502 753.163 91.8715 748.58 Q88.816 743.973 88.816 735.247 Q88.816 726.497 91.8715 721.913 Q94.9502 717.307 100.76 717.307 Z" fill="#000000" fill-rule="nonzero" fill-opacity="1" /><path clip-path="url(#clip490)" d="M120.922 746.612 L125.807 746.612 L125.807 752.492 L120.922 752.492 L120.922 746.612 Z" fill="#000000" fill-rule="nonzero" fill-opacity="1" /><path clip-path="url(#clip490)" d="M145.992 721.011 Q142.381 721.011 140.552 724.575 Q138.746 728.117 138.746 735.247 Q138.746 742.353 140.552 745.918 Q142.381 749.46 145.992 749.46 Q149.626 749.46 151.431 745.918 Q153.26 742.353 153.26 735.247 Q153.26 728.117 151.431 724.575 Q149.626 721.011 145.992 721.011 M145.992 717.307 Q151.802 717.307 154.857 721.913 Q157.936 726.497 157.936 735.247 Q157.936 743.973 154.857 748.58 Q151.802 753.163 145.992 753.163 Q140.181 753.163 137.103 748.58 Q134.047 743.973 134.047 735.247 Q134.047 726.497 137.103 721.913 Q140.181 717.307 145.992 717.307 Z" fill="#000000" fill-rule="nonzero" fill-opacity="1" /><path clip-path="url(#clip490)" d="M101.756 377.027 Q98.1447 377.027 96.316 380.592 Q94.5104 384.133 94.5104 391.263 Q94.5104 398.369 96.316 401.934 Q98.1447 405.476 101.756 405.476 Q105.39 405.476 107.196 401.934 Q109.024 398.369 109.024 391.263 Q109.024 384.133 107.196 380.592 Q105.39 377.027 101.756 377.027 M101.756 373.323 Q107.566 373.323 110.621 377.929 Q113.7 382.513 113.7 391.263 Q113.7 399.99 110.621 404.596 Q107.566 409.179 101.756 409.179 Q95.9456 409.179 92.8669 404.596 Q89.8114 399.99 89.8114 391.263 Q89.8114 382.513 92.8669 377.929 Q95.9456 373.323 101.756 373.323 Z" fill="#000000" fill-rule="nonzero" fill-opacity="1" /><path clip-path="url(#clip490)" d="M121.918 402.628 L126.802 402.628 L126.802 408.508 L121.918 408.508 L121.918 402.628 Z" fill="#000000" fill-rule="nonzero" fill-opacity="1" /><path clip-path="url(#clip490)" d="M137.033 373.948 L155.39 373.948 L155.39 377.883 L141.316 377.883 L141.316 386.355 Q142.334 386.008 143.353 385.846 Q144.371 385.661 145.39 385.661 Q151.177 385.661 154.556 388.832 Q157.936 392.003 157.936 397.42 Q157.936 402.999 154.464 406.101 Q150.992 409.179 144.672 409.179 Q142.496 409.179 140.228 408.809 Q137.982 408.439 135.575 407.698 L135.575 402.999 Q137.658 404.133 139.881 404.689 Q142.103 405.244 144.58 405.244 Q148.584 405.244 150.922 403.138 Q153.26 401.031 153.26 397.42 Q153.26 393.809 150.922 391.703 Q148.584 389.596 144.58 389.596 Q142.705 389.596 140.83 390.013 Q138.978 390.429 137.033 391.309 L137.033 373.948 Z" fill="#000000" fill-rule="nonzero" fill-opacity="1" /><path clip-path="url(#clip490)" d="M91.5706 60.5889 L99.2095 60.5889 L99.2095 34.2233 L90.8993 35.89 L90.8993 31.6308 L99.1632 29.9641 L103.839 29.9641 L103.839 60.5889 L111.478 60.5889 L111.478 64.5241 L91.5706 64.5241 L91.5706 60.5889 Z" fill="#000000" fill-rule="nonzero" fill-opacity="1" /><path clip-path="url(#clip490)" d="M120.922 58.6445 L125.807 58.6445 L125.807 64.5241 L120.922 64.5241 L120.922 58.6445 Z" fill="#000000" fill-rule="nonzero" fill-opacity="1" /><path clip-path="url(#clip490)" d="M145.992 33.0428 Q142.381 33.0428 140.552 36.6076 Q138.746 40.1492 138.746 47.2788 Q138.746 54.3853 140.552 57.9501 Q142.381 61.4917 145.992 61.4917 Q149.626 61.4917 151.431 57.9501 Q153.26 54.3853 153.26 47.2788 Q153.26 40.1492 151.431 36.6076 Q149.626 33.0428 145.992 33.0428 M145.992 29.3391 Q151.802 29.3391 154.857 33.9456 Q157.936 38.5289 157.936 47.2788 Q157.936 56.0056 154.857 60.6121 Q151.802 65.1954 145.992 65.1954 Q140.181 65.1954 137.103 60.6121 Q134.047 56.0056 134.047 47.2788 Q134.047 38.5289 137.103 33.9456 Q140.181 29.3391 145.992 29.3391 Z" fill="#000000" fill-rule="nonzero" fill-opacity="1" /><polyline clip-path="url(#clip493)" style="stroke:#009af9; stroke-linecap:round; stroke-linejoin:round; stroke-width:4; stroke-opacity:1; fill:none" points="255.035,735.181 305.95,720.277 356.866,705.689 407.781,691.819 458.697,679.027 509.612,667.63 560.528,657.901 611.444,650.071 662.359,644.329 713.275,640.819 764.19,639.644 "/>
<polyline clip-path="url(#clip493)" style="stroke:#009af9; stroke-linecap:round; stroke-linejoin:round; stroke-width:4; stroke-opacity:1; fill:none" points="764.19,639.648 815.106,640.815 866.021,644.325 916.937,650.07 967.853,657.903 1018.77,667.634 1069.68,679.031 1120.6,691.82 1171.51,705.687 1222.43,720.274 1273.35,735.183 "/>
<polyline clip-path="url(#clip493)" style="stroke:#009af9; stroke-linecap:round; stroke-linejoin:round; stroke-width:4; stroke-opacity:1; fill:none" points="1273.35,735.243 1324.26,750.147 1375.18,764.735 1426.09,778.605 1477.01,791.397 1527.92,802.794 1578.84,812.523 1629.75,820.353 1680.67,826.095 1731.59,829.605 1782.5,830.78 "/>
<polyline clip-path="url(#clip493)" style="stroke:#009af9; stroke-linecap:round; stroke-linejoin:round; stroke-width:4; stroke-opacity:1; fill:none" points="1782.5,830.776 1833.42,829.609 1884.33,826.099 1935.25,820.354 1986.16,812.521 2037.08,802.79 2087.99,791.393 2138.91,778.604 2189.83,764.737 2240.74,750.15 2291.66,735.241 "/>
<polyline clip-path="url(#clip493)" style="stroke:#e26f46; stroke-linecap:round; stroke-linejoin:round; stroke-width:4; stroke-opacity:1; fill:none" points="255.035,735.212 305.95,720.262 356.866,705.68 407.781,691.826 458.697,679.039 509.612,667.636 560.528,657.897 611.444,650.062 662.359,644.323 713.275,640.822 764.19,639.646 764.19,639.646 815.106,640.822 866.021,644.323 916.937,650.062 967.853,657.897 1018.77,667.636 1069.68,679.039 1120.6,691.826 1171.51,705.68 1222.43,720.262 1273.35,735.212 1273.35,735.212 1324.26,750.162 1375.18,764.744 1426.09,778.598 1477.01,791.384 1527.92,802.788 1578.84,812.527 1629.75,820.362 1680.67,826.101 1731.59,829.602 1782.5,830.778 1833.42,829.602 1884.33,826.101 1935.25,820.362 1986.16,812.527 2037.08,802.788 2087.99,791.384 2138.91,778.598 2189.83,764.744 2240.74,750.162 2291.66,735.212 "/>
<path clip-path="url(#clip490)" d="M1905.88 275.65 L2280.8 275.65 L2280.8 93.1086 L1905.88 93.1086  Z" fill="#ffffff" fill-rule="evenodd" fill-opacity="1"/>
<polyline clip-path="url(#clip490)" style="stroke:#000000; stroke-linecap:round; stroke-linejoin:round; stroke-width:4; stroke-opacity:1; fill:none" points="1905.88,275.65 2280.8,275.65 2280.8,93.1086 1905.88,93.1086 1905.88,275.65 "/>
<polyline clip-path="url(#clip490)" style="stroke:#009af9; stroke-linecap:round; stroke-linejoin:round; stroke-width:4; stroke-opacity:1; fill:none" points="1929.87,153.956 2073.79,153.956 "/>
<path clip-path="url(#clip490)" d="M2131.01 140.275 Q2131.01 141.235 2130.21 141.235 Q2128.81 141.282 2127.85 141.563 Q2126.89 141.821 2126.33 142.336 Q2125.79 142.851 2125.48 143.413 Q2125.2 143.952 2125.01 144.772 L2120.75 161.8 Q2119.53 166.602 2115.6 170.092 Q2111.66 173.558 2107.19 173.558 Q2104.64 173.558 2102.51 172.504 Q2100.4 171.45 2099.09 169.319 Q2097.77 167.187 2097.77 164.353 Q2097.77 162.995 2098.13 161.566 L2101.03 149.714 L2102.11 145.498 Q2102.9 142.383 2102.9 142.102 Q2102.9 141.657 2102.62 141.54 Q2102.37 141.399 2101.62 141.329 L2099.79 141.235 Q2099.23 141.235 2098.99 141.212 Q2098.78 141.188 2098.62 141.071 Q2098.45 140.954 2098.45 140.696 Q2098.45 140.369 2098.52 140.158 Q2098.62 139.924 2098.78 139.853 Q2098.95 139.783 2099.06 139.76 Q2099.18 139.736 2099.37 139.736 L2105.55 139.877 L2111.69 139.736 Q2112.37 139.736 2112.37 140.275 Q2112.37 140.954 2112.06 141.095 Q2111.76 141.235 2110.73 141.235 Q2108.97 141.235 2108.17 141.469 Q2107.4 141.68 2107.17 142.055 Q2106.96 142.406 2106.7 143.437 L2102.04 162.105 Q2101.8 163.041 2101.66 163.978 Q2101.55 164.892 2101.55 165.36 L2101.52 165.829 Q2101.52 168.803 2103.16 170.443 Q2104.82 172.083 2107.38 172.083 Q2111.13 172.083 2114.62 169.108 Q2118.13 166.133 2119.32 161.472 L2123.63 144.35 Q2123.77 143.929 2123.77 143.343 Q2123.77 142.406 2123.07 141.844 Q2122.39 141.259 2120.52 141.235 Q2119.65 141.235 2119.65 140.696 Q2119.65 140.251 2119.82 140.041 Q2120 139.806 2120.14 139.783 Q2120.31 139.736 2120.52 139.736 Q2121.31 139.736 2123 139.806 Q2124.69 139.877 2125.51 139.877 Q2126.33 139.877 2127.97 139.806 Q2129.61 139.736 2130.4 139.736 Q2130.68 139.736 2130.82 139.877 Q2130.99 139.994 2131.01 140.134 L2131.01 140.275 Z" fill="#000000" fill-rule="nonzero" fill-opacity="1" /><path clip-path="url(#clip490)" d="M2152.28 141.795 Q2152.28 141.927 2152.13 142.435 Q2151.98 142.943 2151.62 143.73 Q2151.28 144.517 2150.8 145.238 Q2150.33 145.943 2149.54 146.468 Q2148.77 146.976 2147.88 146.976 Q2146.7 146.976 2145.92 146.189 Q2145.13 145.402 2145.13 144.222 Q2145.13 144.058 2145.15 143.894 Q2145.16 143.73 2145.18 143.632 Q2145.2 143.517 2145.24 143.337 Q2145.31 143.14 2145.33 143.058 Q2145.36 142.976 2145.44 142.73 Q2145.54 142.468 2145.57 142.369 Q2147.65 137.057 2147.65 134.844 Q2147.65 132.499 2145.84 132.499 Q2144.21 132.499 2142.61 133.68 Q2141.87 134.27 2141.16 135.319 Q2140.46 136.368 2140.33 136.762 Q2140.18 137.614 2139.97 138.27 Q2139.87 138.729 2139.39 140.517 L2138.65 143.55 L2138.01 146.091 Q2137.88 146.452 2137.52 146.714 Q2137.16 146.976 2136.77 146.976 Q2136.44 146.976 2136.11 146.747 Q2135.8 146.534 2135.8 146.025 Q2135.8 145.763 2135.93 145.288 L2140.8 125.941 L2140.9 125.285 Q2140.9 125.088 2140.82 124.99 Q2140.75 124.875 2140.36 124.793 Q2139.98 124.711 2139.23 124.711 Q2138.92 124.711 2138.77 124.695 Q2138.64 124.678 2138.52 124.596 Q2138.41 124.498 2138.41 124.301 Q2138.41 124.022 2138.52 123.875 Q2138.65 123.711 2138.75 123.678 Q2138.85 123.645 2139.05 123.629 Q2139.33 123.613 2140.26 123.531 Q2141.2 123.432 2142 123.367 Q2142.8 123.301 2143.15 123.301 Q2143.34 123.301 2143.44 123.399 Q2143.56 123.481 2143.57 123.58 L2143.59 123.662 L2140.97 134.335 Q2143.05 131.761 2145.93 131.761 Q2147.8 131.761 2148.8 132.729 Q2149.8 133.68 2149.8 135.352 Q2149.8 137.27 2147.75 142.73 Q2147.15 144.255 2147.15 145.124 Q2147.15 145.698 2147.33 145.96 Q2147.52 146.222 2147.95 146.222 Q2148.61 146.222 2149.18 145.845 Q2149.77 145.452 2150.18 144.812 Q2150.59 144.156 2150.87 143.501 Q2151.16 142.828 2151.38 142.074 Q2151.51 141.664 2151.57 141.566 Q2151.66 141.467 2151.89 141.467 Q2152.28 141.467 2152.28 141.795 Z" fill="#000000" fill-rule="nonzero" fill-opacity="1" /><path clip-path="url(#clip490)" d="M2157.23 160.512 Q2157.23 152.408 2160.25 145.873 Q2161.54 143.132 2163.34 140.837 Q2165.15 138.542 2166.34 137.534 Q2167.53 136.527 2167.86 136.527 Q2168.33 136.527 2168.35 136.996 Q2168.35 137.23 2167.72 137.816 Q2159.99 145.685 2160.02 160.512 Q2160.02 175.385 2167.53 182.951 Q2168.35 183.77 2168.35 184.028 Q2168.35 184.496 2167.86 184.496 Q2167.53 184.496 2166.39 183.536 Q2165.24 182.576 2163.46 180.374 Q2161.68 178.172 2160.39 175.479 Q2157.23 168.944 2157.23 160.512 Z" fill="#000000" fill-rule="nonzero" fill-opacity="1" /><path clip-path="url(#clip490)" d="M2195.89 154.469 Q2195.89 155.781 2195.07 156.53 Q2194.25 157.256 2193.31 157.256 Q2192.42 157.256 2191.95 156.741 Q2191.48 156.226 2191.48 155.57 Q2191.48 154.68 2192.14 153.907 Q2192.8 153.134 2193.78 152.97 Q2192.82 152.361 2191.39 152.361 Q2190.45 152.361 2189.63 152.853 Q2188.84 153.345 2188.35 153.977 Q2187.88 154.609 2187.46 155.523 Q2187.06 156.413 2186.89 156.952 Q2186.75 157.467 2186.64 158.029 L2185 164.587 Q2184.2 167.703 2184.2 168.803 Q2184.2 170.162 2184.86 171.075 Q2185.51 171.965 2186.82 171.965 Q2187.34 171.965 2187.92 171.825 Q2188.51 171.661 2189.26 171.239 Q2190.03 170.794 2190.71 170.138 Q2191.41 169.459 2192.09 168.312 Q2192.77 167.164 2193.22 165.688 Q2193.36 165.173 2193.83 165.173 Q2194.41 165.173 2194.41 165.641 Q2194.41 166.04 2194.08 166.883 Q2193.78 167.703 2193.1 168.78 Q2192.44 169.834 2191.58 170.794 Q2190.71 171.731 2189.42 172.387 Q2188.13 173.043 2186.73 173.043 Q2184.71 173.043 2183.38 171.965 Q2182.04 170.888 2181.55 169.389 Q2181.44 169.6 2181.27 169.881 Q2181.11 170.162 2180.62 170.794 Q2180.15 171.403 2179.61 171.872 Q2179.07 172.317 2178.23 172.668 Q2177.41 173.043 2176.52 173.043 Q2175.39 173.043 2174.39 172.715 Q2173.4 172.387 2172.7 171.638 Q2172 170.888 2172 169.857 Q2172 168.71 2172.77 167.913 Q2173.57 167.094 2174.64 167.094 Q2175.32 167.094 2175.86 167.492 Q2176.42 167.89 2176.42 168.757 Q2176.42 169.717 2175.77 170.443 Q2175.11 171.169 2174.17 171.356 Q2175.13 171.965 2176.56 171.965 Q2178.11 171.965 2179.33 170.607 Q2180.55 169.248 2181.13 166.976 Q2182.58 161.519 2183.15 159.083 Q2183.71 156.624 2183.71 155.57 Q2183.71 154.586 2183.45 153.907 Q2183.19 153.227 2182.75 152.923 Q2182.33 152.595 2181.93 152.478 Q2181.55 152.361 2181.13 152.361 Q2180.43 152.361 2179.63 152.642 Q2178.86 152.923 2177.92 153.579 Q2177.01 154.211 2176.14 155.523 Q2175.28 156.835 2174.69 158.638 Q2174.57 159.177 2174.06 159.177 Q2173.5 159.153 2173.5 158.685 Q2173.5 158.287 2173.8 157.467 Q2174.13 156.624 2174.78 155.57 Q2175.46 154.516 2176.33 153.579 Q2177.22 152.619 2178.51 151.963 Q2179.82 151.307 2181.22 151.307 Q2181.86 151.307 2182.47 151.447 Q2183.1 151.565 2183.85 151.916 Q2184.62 152.267 2185.3 153.04 Q2185.98 153.813 2186.4 154.937 Q2186.68 154.399 2187.06 153.883 Q2187.46 153.368 2188.06 152.736 Q2188.7 152.08 2189.56 151.705 Q2190.45 151.307 2191.44 151.307 Q2192.4 151.307 2193.33 151.565 Q2194.27 151.799 2195.07 152.572 Q2195.89 153.321 2195.89 154.469 Z" fill="#000000" fill-rule="nonzero" fill-opacity="1" /><path clip-path="url(#clip490)" d="M2199.83 171.731 Q2199.16 170.958 2199.16 169.951 Q2199.16 168.944 2199.81 168.194 Q2200.49 167.421 2201.71 167.421 Q2203.14 167.421 2203.96 168.803 Q2204.78 170.162 2204.78 172.457 Q2204.78 174.94 2203.77 177.236 Q2202.76 179.554 2201.78 180.655 Q2200.8 181.756 2200.4 181.756 Q2199.93 181.756 2199.93 181.241 Q2199.93 181.053 2200.26 180.702 Q2203.7 177.001 2203.72 172.457 Q2203.72 171.731 2203.63 171.731 L2203.51 171.825 Q2202.69 172.504 2201.71 172.504 Q2200.51 172.504 2199.83 171.731 Z" fill="#000000" fill-rule="nonzero" fill-opacity="1" /><path clip-path="url(#clip490)" d="M2234.64 152.361 Q2234.64 153.017 2234.34 153.181 Q2234.03 153.321 2233.19 153.321 L2228.69 153.321 L2225.13 167.468 Q2224.85 168.71 2224.85 169.764 Q2224.85 170.935 2225.2 171.45 Q2225.58 171.965 2226.35 171.965 Q2227.87 171.965 2229.51 170.584 Q2231.18 169.202 2232.58 165.829 Q2232.77 165.384 2232.86 165.29 Q2232.98 165.173 2233.28 165.173 Q2233.87 165.173 2233.87 165.641 Q2233.87 165.805 2233.54 166.555 Q2233.24 167.304 2232.56 168.405 Q2231.9 169.506 2231.03 170.537 Q2230.19 171.567 2228.9 172.317 Q2227.61 173.043 2226.23 173.043 Q2224.29 173.043 2223.05 171.801 Q2221.83 170.56 2221.83 168.616 Q2221.83 167.984 2222.32 165.969 Q2222.81 163.932 2225.48 153.321 L2221.24 153.321 Q2220.66 153.321 2220.42 153.298 Q2220.21 153.274 2220.05 153.157 Q2219.91 153.017 2219.91 152.736 Q2219.91 152.291 2220.1 152.103 Q2220.28 151.892 2220.52 151.869 Q2220.78 151.822 2221.36 151.822 L2225.86 151.822 L2227.73 144.21 Q2227.92 143.46 2228.39 143.039 Q2228.88 142.594 2229.16 142.547 Q2229.44 142.477 2229.65 142.477 Q2230.29 142.477 2230.66 142.828 Q2231.03 143.156 2231.03 143.765 Q2231.03 144.093 2229.07 151.822 L2233.28 151.822 Q2233.82 151.822 2234.03 151.846 Q2234.27 151.869 2234.45 151.986 Q2234.64 152.103 2234.64 152.361 Z" fill="#000000" fill-rule="nonzero" fill-opacity="1" /><path clip-path="url(#clip490)" d="M2238.39 184.028 Q2238.39 183.794 2239 183.208 Q2246.73 175.338 2246.73 160.512 Q2246.73 145.639 2239.31 138.12 Q2238.39 137.253 2238.39 136.996 Q2238.39 136.527 2238.86 136.527 Q2239.19 136.527 2240.34 137.488 Q2241.51 138.448 2243.26 140.65 Q2245.04 142.851 2246.36 145.545 Q2249.52 152.08 2249.52 160.512 Q2249.52 168.616 2246.5 175.151 Q2245.21 177.891 2243.41 180.187 Q2241.6 182.482 2240.41 183.489 Q2239.21 184.496 2238.86 184.496 Q2238.39 184.496 2238.39 184.028 Z" fill="#000000" fill-rule="nonzero" fill-opacity="1" /><polyline clip-path="url(#clip490)" style="stroke:#e26f46; stroke-linecap:round; stroke-linejoin:round; stroke-width:4; stroke-opacity:1; fill:none" points="1929.87,214.803 2073.79,214.803 "/>
<path clip-path="url(#clip490)" d="M2131.01 194.448 Q2131.01 195.409 2130.21 195.409 Q2128.81 195.456 2127.85 195.737 Q2126.89 195.994 2126.33 196.51 Q2125.79 197.025 2125.48 197.587 Q2125.2 198.126 2125.01 198.946 L2120.75 215.974 Q2119.53 220.775 2115.6 224.265 Q2111.66 227.732 2107.19 227.732 Q2104.64 227.732 2102.51 226.678 Q2100.4 225.624 2099.09 223.492 Q2097.77 221.361 2097.77 218.527 Q2097.77 217.168 2098.13 215.739 L2101.03 203.888 L2102.11 199.672 Q2102.9 196.556 2102.9 196.275 Q2102.9 195.83 2102.62 195.713 Q2102.37 195.573 2101.62 195.502 L2099.79 195.409 Q2099.23 195.409 2098.99 195.385 Q2098.78 195.362 2098.62 195.245 Q2098.45 195.128 2098.45 194.87 Q2098.45 194.542 2098.52 194.331 Q2098.62 194.097 2098.78 194.027 Q2098.95 193.957 2099.06 193.933 Q2099.18 193.91 2099.37 193.91 L2105.55 194.05 L2111.69 193.91 Q2112.37 193.91 2112.37 194.448 Q2112.37 195.128 2112.06 195.268 Q2111.76 195.409 2110.73 195.409 Q2108.97 195.409 2108.17 195.643 Q2107.4 195.854 2107.17 196.229 Q2106.96 196.58 2106.7 197.61 L2102.04 216.278 Q2101.8 217.215 2101.66 218.152 Q2101.55 219.065 2101.55 219.534 L2101.52 220.002 Q2101.52 222.977 2103.16 224.617 Q2104.82 226.256 2107.38 226.256 Q2111.13 226.256 2114.62 223.281 Q2118.13 220.307 2119.32 215.646 L2123.63 198.524 Q2123.77 198.102 2123.77 197.517 Q2123.77 196.58 2123.07 196.018 Q2122.39 195.432 2120.52 195.409 Q2119.65 195.409 2119.65 194.87 Q2119.65 194.425 2119.82 194.214 Q2120 193.98 2120.14 193.957 Q2120.31 193.91 2120.52 193.91 Q2121.31 193.91 2123 193.98 Q2124.69 194.05 2125.51 194.05 Q2126.33 194.05 2127.97 193.98 Q2129.61 193.91 2130.4 193.91 Q2130.68 193.91 2130.82 194.05 Q2130.99 194.167 2131.01 194.308 L2131.01 194.448 Z" fill="#000000" fill-rule="nonzero" fill-opacity="1" /><path clip-path="url(#clip490)" d="M2136.34 214.685 Q2136.34 206.581 2139.36 200.046 Q2140.65 197.306 2142.46 195.011 Q2144.26 192.715 2145.45 191.708 Q2146.65 190.701 2146.98 190.701 Q2147.45 190.701 2147.47 191.169 Q2147.47 191.403 2146.84 191.989 Q2139.11 199.859 2139.13 214.685 Q2139.13 229.559 2146.65 237.124 Q2147.47 237.944 2147.47 238.202 Q2147.47 238.67 2146.98 238.67 Q2146.65 238.67 2145.5 237.71 Q2144.35 236.749 2142.57 234.548 Q2140.79 232.346 2139.5 229.652 Q2136.34 223.117 2136.34 214.685 Z" fill="#000000" fill-rule="nonzero" fill-opacity="1" /><path clip-path="url(#clip490)" d="M2175 208.642 Q2175 209.954 2174.18 210.704 Q2173.36 211.43 2172.42 211.43 Q2171.53 211.43 2171.07 210.914 Q2170.6 210.399 2170.6 209.743 Q2170.6 208.853 2171.25 208.08 Q2171.91 207.307 2172.89 207.143 Q2171.93 206.534 2170.5 206.534 Q2169.57 206.534 2168.75 207.026 Q2167.95 207.518 2167.46 208.151 Q2166.99 208.783 2166.57 209.696 Q2166.17 210.586 2166.01 211.125 Q2165.87 211.64 2165.75 212.203 L2164.11 218.761 Q2163.31 221.876 2163.31 222.977 Q2163.31 224.335 2163.97 225.249 Q2164.63 226.139 2165.94 226.139 Q2166.45 226.139 2167.04 225.998 Q2167.62 225.834 2168.37 225.413 Q2169.15 224.968 2169.82 224.312 Q2170.53 223.633 2171.21 222.485 Q2171.89 221.337 2172.33 219.862 Q2172.47 219.346 2172.94 219.346 Q2173.53 219.346 2173.53 219.815 Q2173.53 220.213 2173.2 221.056 Q2172.89 221.876 2172.21 222.954 Q2171.56 224.008 2170.69 224.968 Q2169.82 225.905 2168.54 226.561 Q2167.25 227.216 2165.84 227.216 Q2163.83 227.216 2162.49 226.139 Q2161.16 225.062 2160.67 223.562 Q2160.55 223.773 2160.39 224.054 Q2160.22 224.335 2159.73 224.968 Q2159.26 225.577 2158.72 226.045 Q2158.18 226.49 2157.34 226.842 Q2156.52 227.216 2155.63 227.216 Q2154.51 227.216 2153.5 226.888 Q2152.52 226.561 2151.81 225.811 Q2151.11 225.062 2151.11 224.031 Q2151.11 222.883 2151.88 222.087 Q2152.68 221.267 2153.76 221.267 Q2154.44 221.267 2154.98 221.665 Q2155.54 222.063 2155.54 222.93 Q2155.54 223.89 2154.88 224.617 Q2154.23 225.343 2153.29 225.53 Q2154.25 226.139 2155.68 226.139 Q2157.22 226.139 2158.44 224.78 Q2159.66 223.422 2160.25 221.15 Q2161.7 215.693 2162.26 213.257 Q2162.82 210.797 2162.82 209.743 Q2162.82 208.76 2162.56 208.08 Q2162.31 207.401 2161.86 207.097 Q2161.44 206.769 2161.04 206.651 Q2160.67 206.534 2160.25 206.534 Q2159.54 206.534 2158.75 206.815 Q2157.97 207.097 2157.04 207.752 Q2156.12 208.385 2155.26 209.696 Q2154.39 211.008 2153.8 212.812 Q2153.69 213.35 2153.17 213.35 Q2152.61 213.327 2152.61 212.858 Q2152.61 212.46 2152.91 211.64 Q2153.24 210.797 2153.9 209.743 Q2154.58 208.689 2155.44 207.752 Q2156.33 206.792 2157.62 206.136 Q2158.93 205.48 2160.34 205.48 Q2160.97 205.48 2161.58 205.621 Q2162.21 205.738 2162.96 206.089 Q2163.74 206.441 2164.41 207.214 Q2165.09 207.987 2165.52 209.111 Q2165.8 208.572 2166.17 208.057 Q2166.57 207.542 2167.18 206.909 Q2167.81 206.253 2168.68 205.879 Q2169.57 205.48 2170.55 205.48 Q2171.51 205.48 2172.45 205.738 Q2173.39 205.972 2174.18 206.745 Q2175 207.495 2175 208.642 Z" fill="#000000" fill-rule="nonzero" fill-opacity="1" /><path clip-path="url(#clip490)" d="M2178.95 225.905 Q2178.27 225.132 2178.27 224.125 Q2178.27 223.117 2178.93 222.368 Q2179.6 221.595 2180.82 221.595 Q2182.25 221.595 2183.07 222.977 Q2183.89 224.335 2183.89 226.631 Q2183.89 229.114 2182.88 231.409 Q2181.88 233.728 2180.89 234.829 Q2179.91 235.93 2179.51 235.93 Q2179.04 235.93 2179.04 235.414 Q2179.04 235.227 2179.37 234.876 Q2182.81 231.175 2182.84 226.631 Q2182.84 225.905 2182.74 225.905 L2182.63 225.998 Q2181.81 226.678 2180.82 226.678 Q2179.63 226.678 2178.95 225.905 Z" fill="#000000" fill-rule="nonzero" fill-opacity="1" /><path clip-path="url(#clip490)" d="M2213.76 206.534 Q2213.76 207.19 2213.45 207.354 Q2213.15 207.495 2212.3 207.495 L2207.81 207.495 L2204.25 221.642 Q2203.97 222.883 2203.97 223.937 Q2203.97 225.108 2204.32 225.624 Q2204.69 226.139 2205.46 226.139 Q2206.99 226.139 2208.63 224.757 Q2210.29 223.375 2211.69 220.002 Q2211.88 219.557 2211.98 219.464 Q2212.09 219.346 2212.4 219.346 Q2212.98 219.346 2212.98 219.815 Q2212.98 219.979 2212.66 220.728 Q2212.35 221.478 2211.67 222.579 Q2211.02 223.68 2210.15 224.71 Q2209.31 225.741 2208.02 226.49 Q2206.73 227.216 2205.35 227.216 Q2203.4 227.216 2202.16 225.975 Q2200.94 224.734 2200.94 222.79 Q2200.94 222.157 2201.44 220.143 Q2201.93 218.105 2204.6 207.495 L2200.36 207.495 Q2199.77 207.495 2199.54 207.471 Q2199.33 207.448 2199.16 207.331 Q2199.02 207.19 2199.02 206.909 Q2199.02 206.464 2199.21 206.277 Q2199.4 206.066 2199.63 206.043 Q2199.89 205.996 2200.48 205.996 L2204.97 205.996 L2206.85 198.383 Q2207.03 197.634 2207.5 197.212 Q2207.99 196.767 2208.28 196.72 Q2208.56 196.65 2208.77 196.65 Q2209.4 196.65 2209.77 197.001 Q2210.15 197.329 2210.15 197.938 Q2210.15 198.266 2208.18 205.996 L2212.4 205.996 Q2212.94 205.996 2213.15 206.019 Q2213.38 206.043 2213.57 206.16 Q2213.76 206.277 2213.76 206.534 Z" fill="#000000" fill-rule="nonzero" fill-opacity="1" /><path clip-path="url(#clip490)" d="M2217.51 238.202 Q2217.51 237.967 2218.12 237.382 Q2225.85 229.512 2225.85 214.685 Q2225.85 199.812 2218.42 192.294 Q2217.51 191.427 2217.51 191.169 Q2217.51 190.701 2217.98 190.701 Q2218.3 190.701 2219.45 191.661 Q2220.62 192.621 2222.38 194.823 Q2224.16 197.025 2225.47 199.718 Q2228.63 206.253 2228.63 214.685 Q2228.63 222.79 2225.61 229.324 Q2224.32 232.065 2222.52 234.36 Q2220.72 236.656 2219.52 237.663 Q2218.33 238.67 2217.98 238.67 Q2217.51 238.67 2217.51 238.202 Z" fill="#000000" fill-rule="nonzero" fill-opacity="1" /></svg>
