<?xml version="1.0" encoding="UTF-8"?>
<svg xmlns="http://www.w3.org/2000/svg" xmlns:xlink="http://www.w3.org/1999/xlink" width="391pt" height="211pt" viewBox="0 0 391 211" version="1.1">
<g id="surface144">
<path style="fill:none;stroke-width:1;stroke-linecap:square;stroke-linejoin:round;stroke:rgb(0%,0%,0%);stroke-opacity:1;stroke-miterlimit:10;" d="M 99.902344 676.585938 L 100.160156 679.164062 L 100.402344 681.710938 L 100.632812 684.222656 L 100.847656 686.703125 L 101.050781 689.152344 L 101.242188 691.566406 L 101.414062 693.949219 L 101.574219 696.304688 L 101.722656 698.621094 " transform="matrix(1,0,0,-1,-68,802)"/>
<path style="fill:none;stroke-width:1;stroke-linecap:square;stroke-linejoin:round;stroke:rgb(0%,0%,0%);stroke-opacity:1;stroke-miterlimit:10;" d="M 101.722656 698.621094 L 98.105469 696.226562 L 94.476562 693.804688 L 90.835938 691.363281 L 87.183594 688.90625 L 83.527344 686.429688 L 79.859375 683.945312 L 76.191406 681.449219 L 68.839844 676.441406 " transform="matrix(1,0,0,-1,-68,802)"/>
<path style="fill:none;stroke-width:1;stroke-linecap:square;stroke-linejoin:round;stroke:rgb(0%,0%,0%);stroke-opacity:1;stroke-miterlimit:10;" d="M 68.839844 676.441406 L 72.5 676.644531 L 76.121094 676.832031 L 79.699219 676.988281 L 83.226562 677.105469 L 86.695312 677.167969 L 90.101562 677.160156 L 93.445312 677.070312 L 96.710938 676.882812 L 99.902344 676.585938 " transform="matrix(1,0,0,-1,-68,802)"/>
<path style="fill:none;stroke-width:1;stroke-linecap:square;stroke-linejoin:round;stroke:rgb(0%,0%,0%);stroke-opacity:1;stroke-miterlimit:10;" d="M 68.839844 676.441406 L 76.191406 681.449219 L 79.859375 683.945312 L 83.527344 686.429688 L 87.183594 688.90625 L 90.835938 691.363281 L 94.476562 693.804688 L 98.105469 696.226562 L 101.722656 698.621094 " transform="matrix(1,0,0,-1,-68,802)"/>
<path style="fill:none;stroke-width:1;stroke-linecap:square;stroke-linejoin:round;stroke:rgb(0%,0%,0%);stroke-opacity:1;stroke-miterlimit:10;" d="M 101.722656 698.621094 L 101.851562 700.914062 L 101.96875 703.179688 L 102.066406 705.40625 L 102.152344 707.613281 L 102.222656 709.796875 L 102.277344 711.945312 L 102.316406 714.070312 L 102.339844 716.175781 L 102.347656 718.253906 " transform="matrix(1,0,0,-1,-68,802)"/>
<path style="fill:none;stroke-width:1;stroke-linecap:square;stroke-linejoin:round;stroke:rgb(0%,0%,0%);stroke-opacity:1;stroke-miterlimit:10;" d="M 102.347656 718.253906 L 98.65625 713.871094 L 94.941406 709.398438 L 91.210938 704.84375 L 87.464844 700.222656 L 83.71875 695.539062 L 79.976562 690.808594 L 76.246094 686.039062 L 72.53125 681.246094 L 68.839844 676.441406 " transform="matrix(1,0,0,-1,-68,802)"/>
<path style="fill:none;stroke-width:1;stroke-linecap:square;stroke-linejoin:round;stroke:rgb(0%,0%,0%);stroke-opacity:1;stroke-miterlimit:10;" d="M 102.347656 718.253906 L 102.339844 720.308594 L 102.316406 722.34375 L 102.277344 724.351562 L 102.222656 726.34375 L 102.152344 728.3125 L 102.066406 730.265625 L 101.96875 732.199219 L 101.851562 734.117188 L 101.722656 736.019531 " transform="matrix(1,0,0,-1,-68,802)"/>
<path style="fill:none;stroke-width:1;stroke-linecap:square;stroke-linejoin:round;stroke:rgb(0%,0%,0%);stroke-opacity:1;stroke-miterlimit:10;" d="M 101.722656 736.019531 L 98.105469 734.054688 L 94.476562 732.074219 L 90.835938 730.078125 L 87.183594 728.0625 L 83.527344 726.039062 L 79.859375 724.003906 L 76.191406 721.960938 L 68.839844 717.859375 " transform="matrix(1,0,0,-1,-68,802)"/>
<path style="fill:none;stroke-width:1;stroke-linecap:square;stroke-linejoin:round;stroke:rgb(0%,0%,0%);stroke-opacity:1;stroke-miterlimit:10;" d="M 68.839844 717.859375 L 72.53125 717.652344 L 76.246094 717.53125 L 79.976562 717.488281 L 83.71875 717.511719 L 87.464844 717.589844 L 91.210938 717.714844 L 94.941406 717.871094 L 98.65625 718.054688 L 102.347656 718.253906 " transform="matrix(1,0,0,-1,-68,802)"/>
<path style="fill:none;stroke-width:1;stroke-linecap:square;stroke-linejoin:round;stroke:rgb(0%,0%,0%);stroke-opacity:1;stroke-miterlimit:10;" d="M 68.839844 717.859375 L 76.191406 721.960938 L 79.859375 724.003906 L 83.527344 726.039062 L 87.183594 728.0625 L 90.835938 730.078125 L 94.476562 732.074219 L 98.105469 734.054688 L 101.722656 736.019531 " transform="matrix(1,0,0,-1,-68,802)"/>
<path style="fill:none;stroke-width:1;stroke-linecap:square;stroke-linejoin:round;stroke:rgb(0%,0%,0%);stroke-opacity:1;stroke-miterlimit:10;" d="M 101.722656 736.019531 L 101.574219 737.902344 L 101.414062 739.773438 L 101.242188 741.636719 L 101.050781 743.476562 L 100.847656 745.3125 L 100.632812 747.136719 L 100.402344 748.945312 L 100.160156 750.753906 L 99.902344 752.546875 " transform="matrix(1,0,0,-1,-68,802)"/>
<path style="fill:none;stroke-width:1;stroke-linecap:square;stroke-linejoin:round;stroke:rgb(0%,0%,0%);stroke-opacity:1;stroke-miterlimit:10;" d="M 99.902344 752.546875 L 96.710938 749.183594 L 93.445312 745.691406 L 90.101562 742.074219 L 86.695312 738.324219 L 83.226562 734.460938 L 79.699219 730.472656 L 76.121094 726.371094 L 72.5 722.164062 L 68.839844 717.859375 " transform="matrix(1,0,0,-1,-68,802)"/>
<path style="fill:none;stroke-width:1;stroke-linecap:square;stroke-linejoin:round;stroke:rgb(0%,0%,0%);stroke-opacity:1;stroke-miterlimit:10;" d="M 68.839844 759.277344 L 72.03125 758.074219 L 75.300781 756.992188 L 78.640625 756.03125 L 82.046875 755.183594 L 85.519531 754.453125 L 89.046875 753.824219 L 92.621094 753.304688 L 96.242188 752.882812 L 99.902344 752.546875 " transform="matrix(1,0,0,-1,-68,802)"/>
<path style="fill:none;stroke-width:1;stroke-linecap:square;stroke-linejoin:round;stroke:rgb(0%,0%,0%);stroke-opacity:1;stroke-miterlimit:10;" d="M 124.566406 666.871094 L 125.246094 670.3125 L 125.90625 673.6875 L 126.546875 676.992188 L 127.167969 680.226562 L 127.769531 683.398438 L 128.347656 686.496094 L 128.90625 689.53125 L 129.441406 692.496094 L 129.953125 695.394531 " transform="matrix(1,0,0,-1,-68,802)"/>
<path style="fill:none;stroke-width:1;stroke-linecap:square;stroke-linejoin:round;stroke:rgb(0%,0%,0%);stroke-opacity:1;stroke-miterlimit:10;" d="M 129.953125 695.394531 L 126.691406 693.46875 L 123.410156 691.488281 L 120.109375 689.472656 L 116.785156 687.410156 L 113.441406 685.3125 L 110.078125 683.179688 L 106.703125 681.011719 L 103.308594 678.8125 L 99.902344 676.585938 " transform="matrix(1,0,0,-1,-68,802)"/>
<path style="fill:none;stroke-width:1;stroke-linecap:square;stroke-linejoin:round;stroke:rgb(0%,0%,0%);stroke-opacity:1;stroke-miterlimit:10;" d="M 99.902344 676.585938 L 103.011719 676.160156 L 106.035156 675.601562 L 108.96875 674.894531 L 111.8125 674.023438 L 114.558594 672.980469 L 117.210938 671.753906 L 119.761719 670.332031 L 122.214844 668.707031 L 124.566406 666.871094 " transform="matrix(1,0,0,-1,-68,802)"/>
<path style="fill:none;stroke-width:1;stroke-linecap:square;stroke-linejoin:round;stroke:rgb(0%,0%,0%);stroke-opacity:1;stroke-miterlimit:10;" d="M 99.902344 676.585938 L 103.308594 678.8125 L 106.703125 681.011719 L 110.078125 683.179688 L 113.441406 685.3125 L 116.785156 687.410156 L 120.109375 689.472656 L 123.410156 691.488281 L 126.691406 693.46875 L 129.953125 695.394531 " transform="matrix(1,0,0,-1,-68,802)"/>
<path style="fill:none;stroke-width:1;stroke-linecap:square;stroke-linejoin:round;stroke:rgb(0%,0%,0%);stroke-opacity:1;stroke-miterlimit:10;" d="M 129.953125 695.394531 L 130.441406 698.226562 L 130.902344 700.996094 L 131.339844 703.699219 L 131.753906 706.34375 L 132.136719 708.921875 L 132.496094 711.4375 L 132.828125 713.890625 L 133.132812 716.289062 L 133.410156 718.632812 " transform="matrix(1,0,0,-1,-68,802)"/>
<path style="fill:none;stroke-width:1;stroke-linecap:square;stroke-linejoin:round;stroke:rgb(0%,0%,0%);stroke-opacity:1;stroke-miterlimit:10;" d="M 133.410156 718.632812 L 129.71875 714.238281 L 126.003906 709.757812 L 122.273438 705.179688 L 118.53125 700.527344 L 114.785156 695.816406 L 111.039062 691.050781 L 107.308594 686.25 L 103.59375 681.421875 L 99.902344 676.585938 " transform="matrix(1,0,0,-1,-68,802)"/>
<path style="fill:none;stroke-width:1;stroke-linecap:square;stroke-linejoin:round;stroke:rgb(0%,0%,0%);stroke-opacity:1;stroke-miterlimit:10;" d="M 133.410156 718.632812 L 133.660156 720.910156 L 133.878906 723.136719 L 134.070312 725.3125 L 134.230469 727.429688 L 134.363281 729.503906 L 134.46875 731.519531 L 134.542969 733.488281 L 134.585938 735.410156 L 134.601562 737.289062 " transform="matrix(1,0,0,-1,-68,802)"/>
<path style="fill:none;stroke-width:1;stroke-linecap:square;stroke-linejoin:round;stroke:rgb(0%,0%,0%);stroke-opacity:1;stroke-miterlimit:10;" d="M 134.601562 737.289062 L 131.117188 735.339844 L 127.601562 733.339844 L 124.0625 731.296875 L 120.496094 729.210938 L 116.910156 727.089844 L 113.296875 724.929688 L 109.664062 722.730469 L 106.015625 720.507812 L 102.347656 718.253906 " transform="matrix(1,0,0,-1,-68,802)"/>
<path style="fill:none;stroke-width:1;stroke-linecap:square;stroke-linejoin:round;stroke:rgb(0%,0%,0%);stroke-opacity:1;stroke-miterlimit:10;" d="M 102.347656 718.253906 L 106.007812 718.449219 L 109.628906 718.640625 L 113.203125 718.804688 L 116.730469 718.9375 L 120.203125 719.019531 L 123.609375 719.046875 L 126.949219 718.996094 L 130.21875 718.859375 L 133.410156 718.632812 " transform="matrix(1,0,0,-1,-68,802)"/>
<path style="fill:none;stroke-width:1;stroke-linecap:square;stroke-linejoin:round;stroke:rgb(0%,0%,0%);stroke-opacity:1;stroke-miterlimit:10;" d="M 102.347656 718.253906 L 106.015625 720.507812 L 109.664062 722.730469 L 113.296875 724.929688 L 116.910156 727.089844 L 120.496094 729.210938 L 124.0625 731.296875 L 127.601562 733.339844 L 131.117188 735.339844 L 134.601562 737.289062 " transform="matrix(1,0,0,-1,-68,802)"/>
<path style="fill:none;stroke-width:1;stroke-linecap:square;stroke-linejoin:round;stroke:rgb(0%,0%,0%);stroke-opacity:1;stroke-miterlimit:10;" d="M 134.601562 737.289062 L 134.585938 739.121094 L 134.542969 740.910156 L 134.46875 742.660156 L 134.363281 744.371094 L 134.230469 746.050781 L 134.070312 747.683594 L 133.878906 749.289062 L 133.660156 750.859375 L 133.410156 752.398438 " transform="matrix(1,0,0,-1,-68,802)"/>
<path style="fill:none;stroke-width:1;stroke-linecap:square;stroke-linejoin:round;stroke:rgb(0%,0%,0%);stroke-opacity:1;stroke-miterlimit:10;" d="M 133.410156 752.398438 L 130.21875 749.140625 L 126.949219 745.742188 L 123.609375 742.199219 L 120.203125 738.519531 L 116.730469 734.710938 L 113.203125 730.769531 L 109.628906 726.714844 L 106.007812 722.535156 L 102.347656 718.253906 " transform="matrix(1,0,0,-1,-68,802)"/>
<path style="fill:none;stroke-width:1;stroke-linecap:square;stroke-linejoin:round;stroke:rgb(0%,0%,0%);stroke-opacity:1;stroke-miterlimit:10;" d="M 99.902344 752.546875 L 103.59375 752.300781 L 107.308594 752.128906 L 111.039062 752.023438 L 114.785156 751.988281 L 118.53125 752.003906 L 122.273438 752.058594 L 126.003906 752.152344 L 129.71875 752.269531 L 133.410156 752.398438 " transform="matrix(1,0,0,-1,-68,802)"/>
<path style="fill:none;stroke-width:1;stroke-linecap:square;stroke-linejoin:round;stroke:rgb(0%,0%,0%);stroke-opacity:1;stroke-miterlimit:10;" d="M 141.320312 639.785156 L 142.425781 644.492188 L 143.519531 649.113281 L 144.59375 653.640625 L 145.65625 658.078125 L 146.695312 662.421875 L 147.71875 666.671875 L 148.722656 670.828125 L 149.703125 674.890625 L 150.660156 678.855469 " transform="matrix(1,0,0,-1,-68,802)"/>
<path style="fill:none;stroke-width:1;stroke-linecap:square;stroke-linejoin:round;stroke:rgb(0%,0%,0%);stroke-opacity:1;stroke-miterlimit:10;" d="M 150.660156 678.855469 L 147.847656 677.71875 L 145.011719 676.527344 L 142.152344 675.289062 L 139.273438 673.996094 L 136.371094 672.660156 L 133.449219 671.277344 L 130.507812 669.851562 L 127.546875 668.378906 L 124.566406 666.871094 " transform="matrix(1,0,0,-1,-68,802)"/>
<path style="fill:none;stroke-width:1;stroke-linecap:square;stroke-linejoin:round;stroke:rgb(0%,0%,0%);stroke-opacity:1;stroke-miterlimit:10;" d="M 124.566406 666.871094 L 126.816406 664.8125 L 128.96875 662.527344 L 131.015625 660.003906 L 132.96875 657.246094 L 134.824219 654.246094 L 136.582031 651 L 138.25 647.507812 L 139.828125 643.769531 L 141.320312 639.785156 " transform="matrix(1,0,0,-1,-68,802)"/>
<path style="fill:none;stroke-width:1;stroke-linecap:square;stroke-linejoin:round;stroke:rgb(0%,0%,0%);stroke-opacity:1;stroke-miterlimit:10;" d="M 124.566406 666.871094 L 127.546875 668.378906 L 130.507812 669.851562 L 133.449219 671.277344 L 136.371094 672.660156 L 139.273438 673.996094 L 142.152344 675.289062 L 145.011719 676.527344 L 147.847656 677.71875 L 150.660156 678.855469 " transform="matrix(1,0,0,-1,-68,802)"/>
<path style="fill:none;stroke-width:1;stroke-linecap:square;stroke-linejoin:round;stroke:rgb(0%,0%,0%);stroke-opacity:1;stroke-miterlimit:10;" d="M 150.660156 678.855469 L 151.59375 682.730469 L 152.503906 686.507812 L 153.386719 690.191406 L 154.242188 693.777344 L 155.070312 697.273438 L 155.867188 700.675781 L 156.632812 703.980469 L 157.371094 707.199219 L 158.074219 710.320312 " transform="matrix(1,0,0,-1,-68,802)"/>
<path style="fill:none;stroke-width:1;stroke-linecap:square;stroke-linejoin:round;stroke:rgb(0%,0%,0%);stroke-opacity:1;stroke-miterlimit:10;" d="M 158.074219 710.320312 L 154.382812 705.804688 L 150.667969 701.179688 L 146.9375 696.453125 L 143.191406 691.648438 L 139.445312 686.773438 L 135.703125 681.84375 L 131.972656 676.875 L 128.257812 671.878906 L 124.566406 666.871094 " transform="matrix(1,0,0,-1,-68,802)"/>
<path style="fill:none;stroke-width:1;stroke-linecap:square;stroke-linejoin:round;stroke:rgb(0%,0%,0%);stroke-opacity:1;stroke-miterlimit:10;" d="M 158.074219 710.320312 L 158.746094 713.355469 L 159.382812 716.304688 L 159.984375 719.15625 L 160.550781 721.929688 L 161.082031 724.605469 L 161.574219 727.203125 L 162.03125 729.722656 L 162.453125 732.152344 L 162.832031 734.511719 " transform="matrix(1,0,0,-1,-68,802)"/>
<path style="fill:none;stroke-width:1;stroke-linecap:square;stroke-linejoin:round;stroke:rgb(0%,0%,0%);stroke-opacity:1;stroke-miterlimit:10;" d="M 162.832031 734.511719 L 159.703125 733.003906 L 156.539062 731.425781 L 153.335938 729.78125 L 150.097656 728.070312 L 146.824219 726.304688 L 143.515625 724.472656 L 140.179688 722.578125 L 136.808594 720.632812 L 133.410156 718.632812 " transform="matrix(1,0,0,-1,-68,802)"/>
<path style="fill:none;stroke-width:1;stroke-linecap:square;stroke-linejoin:round;stroke:rgb(0%,0%,0%);stroke-opacity:1;stroke-miterlimit:10;" d="M 133.410156 718.632812 L 136.519531 718.289062 L 139.542969 717.828125 L 142.476562 717.234375 L 145.320312 716.496094 L 148.066406 715.605469 L 150.71875 714.554688 L 153.269531 713.328125 L 155.722656 711.921875 L 158.074219 710.320312 " transform="matrix(1,0,0,-1,-68,802)"/>
<path style="fill:none;stroke-width:1;stroke-linecap:square;stroke-linejoin:round;stroke:rgb(0%,0%,0%);stroke-opacity:1;stroke-miterlimit:10;" d="M 133.410156 718.632812 L 136.808594 720.632812 L 140.179688 722.578125 L 143.515625 724.472656 L 146.824219 726.304688 L 150.097656 728.070312 L 153.335938 729.78125 L 156.539062 731.425781 L 159.703125 733.003906 L 162.832031 734.511719 " transform="matrix(1,0,0,-1,-68,802)"/>
<path style="fill:none;stroke-width:1;stroke-linecap:square;stroke-linejoin:round;stroke:rgb(0%,0%,0%);stroke-opacity:1;stroke-miterlimit:10;" d="M 162.832031 734.511719 L 163.175781 736.78125 L 163.476562 738.980469 L 163.742188 741.105469 L 163.964844 743.160156 L 164.148438 745.140625 L 164.289062 747.054688 L 164.390625 748.894531 L 164.453125 750.679688 L 164.472656 752.394531 " transform="matrix(1,0,0,-1,-68,802)"/>
<path style="fill:none;stroke-width:1;stroke-linecap:square;stroke-linejoin:round;stroke:rgb(0%,0%,0%);stroke-opacity:1;stroke-miterlimit:10;" d="M 164.472656 752.394531 L 161.28125 749.226562 L 158.015625 745.902344 L 154.671875 742.429688 L 151.265625 738.804688 L 147.792969 735.027344 L 144.269531 731.117188 L 140.691406 727.078125 L 137.070312 722.910156 L 133.410156 718.632812 " transform="matrix(1,0,0,-1,-68,802)"/>
<path style="fill:none;stroke-width:1;stroke-linecap:square;stroke-linejoin:round;stroke:rgb(0%,0%,0%);stroke-opacity:1;stroke-miterlimit:10;" d="M 133.410156 752.398438 L 137.070312 752.53125 L 140.691406 752.660156 L 144.269531 752.765625 L 147.792969 752.84375 L 151.265625 752.886719 L 154.671875 752.867188 L 158.015625 752.789062 L 161.28125 752.636719 L 164.472656 752.394531 " transform="matrix(1,0,0,-1,-68,802)"/>
<path style="fill:none;stroke-width:1;stroke-linecap:square;stroke-linejoin:round;stroke:rgb(0%,0%,0%);stroke-opacity:1;stroke-miterlimit:10;" d="M 151.675781 593.609375 L 153.050781 599.605469 L 154.421875 605.515625 L 155.792969 611.335938 L 157.15625 617.066406 L 158.515625 622.699219 L 159.863281 628.238281 L 161.203125 633.679688 L 162.53125 639.019531 L 163.847656 644.253906 " transform="matrix(1,0,0,-1,-68,802)"/>
<path style="fill:none;stroke-width:1;stroke-linecap:square;stroke-linejoin:round;stroke:rgb(0%,0%,0%);stroke-opacity:1;stroke-miterlimit:10;" d="M 163.847656 644.253906 L 161.398438 643.898438 L 158.9375 643.503906 L 156.464844 643.074219 L 153.972656 642.609375 L 151.46875 642.109375 L 148.953125 641.578125 L 146.421875 641.011719 L 143.878906 640.414062 L 141.320312 639.785156 " transform="matrix(1,0,0,-1,-68,802)"/>
<path style="fill:none;stroke-width:1;stroke-linecap:square;stroke-linejoin:round;stroke:rgb(0%,0%,0%);stroke-opacity:1;stroke-miterlimit:10;" d="M 141.320312 639.785156 L 142.730469 635.554688 L 144.066406 631.082031 L 145.324219 626.378906 L 146.519531 621.441406 L 147.652344 616.28125 L 148.726562 610.910156 L 149.75 605.332031 L 150.730469 599.558594 L 151.675781 593.609375 " transform="matrix(1,0,0,-1,-68,802)"/>
<path style="fill:none;stroke-width:1;stroke-linecap:square;stroke-linejoin:round;stroke:rgb(0%,0%,0%);stroke-opacity:1;stroke-miterlimit:10;" d="M 141.320312 639.785156 L 143.878906 640.414062 L 146.421875 641.011719 L 148.953125 641.578125 L 151.46875 642.109375 L 153.972656 642.609375 L 156.464844 643.074219 L 158.9375 643.503906 L 161.398438 643.898438 L 163.847656 644.253906 " transform="matrix(1,0,0,-1,-68,802)"/>
<path style="fill:none;stroke-width:1;stroke-linecap:square;stroke-linejoin:round;stroke:rgb(0%,0%,0%);stroke-opacity:1;stroke-miterlimit:10;" d="M 163.847656 644.253906 L 165.148438 649.386719 L 166.429688 654.414062 L 167.695312 659.332031 L 168.941406 664.144531 L 170.167969 668.847656 L 171.371094 673.441406 L 172.546875 677.921875 L 173.699219 682.292969 L 174.828125 686.550781 " transform="matrix(1,0,0,-1,-68,802)"/>
<path style="fill:none;stroke-width:1;stroke-linecap:square;stroke-linejoin:round;stroke:rgb(0%,0%,0%);stroke-opacity:1;stroke-miterlimit:10;" d="M 174.828125 686.550781 L 171.136719 681.699219 L 167.421875 676.730469 L 163.691406 671.652344 L 159.945312 666.484375 L 156.199219 661.234375 L 152.457031 655.925781 L 148.726562 650.570312 L 145.011719 645.183594 L 141.320312 639.785156 " transform="matrix(1,0,0,-1,-68,802)"/>
<path style="fill:none;stroke-width:1;stroke-linecap:square;stroke-linejoin:round;stroke:rgb(0%,0%,0%);stroke-opacity:1;stroke-miterlimit:10;" d="M 174.828125 686.550781 L 175.925781 690.699219 L 176.992188 694.738281 L 178.03125 698.664062 L 179.035156 702.476562 L 180.007812 706.183594 L 180.945312 709.777344 L 181.847656 713.261719 L 182.714844 716.636719 L 183.542969 719.90625 " transform="matrix(1,0,0,-1,-68,802)"/>
<path style="fill:none;stroke-width:1;stroke-linecap:square;stroke-linejoin:round;stroke:rgb(0%,0%,0%);stroke-opacity:1;stroke-miterlimit:10;" d="M 183.542969 719.90625 L 180.859375 719.140625 L 178.140625 718.300781 L 175.382812 717.378906 L 172.585938 716.382812 L 169.753906 715.308594 L 166.886719 714.171875 L 163.984375 712.960938 L 161.046875 711.675781 L 158.074219 710.320312 " transform="matrix(1,0,0,-1,-68,802)"/>
<path style="fill:none;stroke-width:1;stroke-linecap:square;stroke-linejoin:round;stroke:rgb(0%,0%,0%);stroke-opacity:1;stroke-miterlimit:10;" d="M 158.074219 710.320312 L 160.324219 708.527344 L 162.472656 706.53125 L 164.523438 704.328125 L 166.476562 701.910156 L 168.328125 699.277344 L 170.089844 696.429688 L 171.757812 693.355469 L 173.335938 690.0625 L 174.828125 686.550781 " transform="matrix(1,0,0,-1,-68,802)"/>
<path style="fill:none;stroke-width:1;stroke-linecap:square;stroke-linejoin:round;stroke:rgb(0%,0%,0%);stroke-opacity:1;stroke-miterlimit:10;" d="M 158.074219 710.320312 L 161.046875 711.675781 L 163.984375 712.960938 L 166.886719 714.171875 L 169.753906 715.308594 L 172.585938 716.382812 L 175.382812 717.378906 L 178.140625 718.300781 L 180.859375 719.140625 L 183.542969 719.90625 " transform="matrix(1,0,0,-1,-68,802)"/>
<path style="fill:none;stroke-width:1;stroke-linecap:square;stroke-linejoin:round;stroke:rgb(0%,0%,0%);stroke-opacity:1;stroke-miterlimit:10;" d="M 183.542969 719.90625 L 184.332031 723.066406 L 185.078125 726.128906 L 185.785156 729.078125 L 186.453125 731.929688 L 187.078125 734.679688 L 187.660156 737.328125 L 188.195312 739.886719 L 188.6875 742.34375 L 189.136719 744.703125 " transform="matrix(1,0,0,-1,-68,802)"/>
<path style="fill:none;stroke-width:1;stroke-linecap:square;stroke-linejoin:round;stroke:rgb(0%,0%,0%);stroke-opacity:1;stroke-miterlimit:10;" d="M 189.136719 744.703125 L 185.945312 741.523438 L 182.675781 738.179688 L 179.335938 734.65625 L 175.929688 730.972656 L 172.457031 727.136719 L 168.929688 723.136719 L 165.355469 719.003906 L 161.734375 714.722656 L 158.074219 710.320312 " transform="matrix(1,0,0,-1,-68,802)"/>
<path style="fill:none;stroke-width:1;stroke-linecap:square;stroke-linejoin:round;stroke:rgb(0%,0%,0%);stroke-opacity:1;stroke-miterlimit:10;" d="M 164.472656 752.394531 L 167.582031 752.058594 L 170.605469 751.613281 L 173.539062 751.054688 L 176.382812 750.367188 L 179.128906 749.539062 L 181.78125 748.570312 L 184.332031 747.445312 L 186.785156 746.15625 L 189.136719 744.703125 " transform="matrix(1,0,0,-1,-68,802)"/>
<path style="fill:none;stroke-width:1;stroke-linecap:square;stroke-linejoin:round;stroke:rgb(0%,0%,0%);stroke-opacity:1;stroke-miterlimit:10;" d="M 151.675781 593.609375 L 172.382812 593.609375 " transform="matrix(1,0,0,-1,-68,802)"/>
<path style="fill:none;stroke-width:1;stroke-linecap:square;stroke-linejoin:round;stroke:rgb(0%,0%,0%);stroke-opacity:1;stroke-miterlimit:10;" d="M 172.382812 593.609375 L 173.828125 599.792969 L 175.273438 605.890625 L 176.710938 611.894531 L 178.148438 617.796875 L 179.574219 623.605469 L 180.992188 629.3125 L 182.402344 634.914062 L 183.800781 640.40625 L 185.179688 645.796875 " transform="matrix(1,0,0,-1,-68,802)"/>
<path style="fill:none;stroke-width:1;stroke-linecap:square;stroke-linejoin:round;stroke:rgb(0%,0%,0%);stroke-opacity:1;stroke-miterlimit:10;" d="M 185.179688 645.796875 L 181.492188 640.390625 L 177.777344 634.851562 L 174.042969 629.191406 L 170.300781 623.425781 L 166.554688 617.570312 L 162.8125 611.644531 L 159.078125 605.660156 L 155.363281 599.644531 L 151.675781 593.609375 " transform="matrix(1,0,0,-1,-68,802)"/>
<path style="fill:none;stroke-width:1;stroke-linecap:square;stroke-linejoin:round;stroke:rgb(0%,0%,0%);stroke-opacity:1;stroke-miterlimit:10;" d="M 185.179688 645.796875 L 186.546875 651.074219 L 187.898438 656.242188 L 189.230469 661.292969 L 190.539062 666.234375 L 191.828125 671.0625 L 193.089844 675.773438 L 194.332031 680.367188 L 195.542969 684.84375 L 196.726562 689.203125 " transform="matrix(1,0,0,-1,-68,802)"/>
<path style="fill:none;stroke-width:1;stroke-linecap:square;stroke-linejoin:round;stroke:rgb(0%,0%,0%);stroke-opacity:1;stroke-miterlimit:10;" d="M 196.726562 689.203125 L 194.410156 689.171875 L 192.066406 689.070312 L 189.691406 688.90625 L 187.285156 688.675781 L 184.851562 688.382812 L 182.390625 688.019531 L 179.898438 687.59375 L 177.375 687.105469 L 174.828125 686.550781 " transform="matrix(1,0,0,-1,-68,802)"/>
<path style="fill:none;stroke-width:1;stroke-linecap:square;stroke-linejoin:round;stroke:rgb(0%,0%,0%);stroke-opacity:1;stroke-miterlimit:10;" d="M 174.828125 686.550781 L 176.238281 682.824219 L 177.570312 678.882812 L 178.832031 674.730469 L 180.027344 670.375 L 181.160156 665.820312 L 182.234375 661.074219 L 183.257812 656.148438 L 184.238281 651.050781 L 185.179688 645.796875 " transform="matrix(1,0,0,-1,-68,802)"/>
<path style="fill:none;stroke-width:1;stroke-linecap:square;stroke-linejoin:round;stroke:rgb(0%,0%,0%);stroke-opacity:1;stroke-miterlimit:10;" d="M 174.828125 686.550781 L 177.375 687.105469 L 179.898438 687.59375 L 182.390625 688.019531 L 184.851562 688.382812 L 187.285156 688.675781 L 189.691406 688.90625 L 192.066406 689.070312 L 194.410156 689.171875 L 196.726562 689.203125 " transform="matrix(1,0,0,-1,-68,802)"/>
<path style="fill:none;stroke-width:1;stroke-linecap:square;stroke-linejoin:round;stroke:rgb(0%,0%,0%);stroke-opacity:1;stroke-miterlimit:10;" d="M 196.726562 689.203125 L 197.882812 693.449219 L 199.003906 697.574219 L 200.097656 701.585938 L 201.152344 705.476562 L 202.175781 709.253906 L 203.160156 712.914062 L 204.109375 716.460938 L 205.019531 719.890625 L 205.890625 723.210938 " transform="matrix(1,0,0,-1,-68,802)"/>
<path style="fill:none;stroke-width:1;stroke-linecap:square;stroke-linejoin:round;stroke:rgb(0%,0%,0%);stroke-opacity:1;stroke-miterlimit:10;" d="M 205.890625 723.210938 L 202.699219 719.847656 L 199.429688 716.304688 L 196.089844 712.5625 L 192.683594 708.640625 L 189.210938 704.550781 L 185.683594 700.28125 L 182.109375 695.851562 L 178.488281 691.273438 L 174.828125 686.550781 " transform="matrix(1,0,0,-1,-68,802)"/>
<path style="fill:none;stroke-width:1;stroke-linecap:square;stroke-linejoin:round;stroke:rgb(0%,0%,0%);stroke-opacity:1;stroke-miterlimit:10;" d="M 189.136719 744.703125 L 191.386719 743.070312 L 193.535156 741.261719 L 195.585938 739.261719 L 197.539062 737.074219 L 199.390625 734.691406 L 201.152344 732.113281 L 202.820312 729.34375 L 204.398438 726.378906 L 205.890625 723.210938 " transform="matrix(1,0,0,-1,-68,802)"/>
<path style="fill:none;stroke-width:1;stroke-linecap:square;stroke-linejoin:round;stroke:rgb(0%,0%,0%);stroke-opacity:1;stroke-miterlimit:10;" d="M 193.089844 593.609375 L 194.464844 599.605469 L 195.839844 605.515625 L 197.207031 611.335938 L 198.574219 617.066406 L 199.929688 622.699219 L 201.28125 628.238281 L 202.621094 633.679688 L 203.949219 639.019531 L 205.261719 644.253906 " transform="matrix(1,0,0,-1,-68,802)"/>
<path style="fill:none;stroke-width:1;stroke-linecap:square;stroke-linejoin:round;stroke:rgb(0%,0%,0%);stroke-opacity:1;stroke-miterlimit:10;" d="M 205.261719 644.253906 L 203.09375 644.574219 L 200.90625 644.859375 L 198.707031 645.109375 L 196.492188 645.316406 L 194.261719 645.488281 L 192.015625 645.625 L 189.753906 645.71875 L 187.476562 645.777344 L 185.179688 645.796875 " transform="matrix(1,0,0,-1,-68,802)"/>
<path style="fill:none;stroke-width:1;stroke-linecap:square;stroke-linejoin:round;stroke:rgb(0%,0%,0%);stroke-opacity:1;stroke-miterlimit:10;" d="M 185.179688 645.796875 L 186.09375 640.390625 L 186.980469 634.851562 L 187.851562 629.191406 L 188.707031 623.425781 L 189.5625 617.570312 L 190.421875 611.644531 L 191.292969 605.660156 L 192.179688 599.644531 L 193.089844 593.609375 " transform="matrix(1,0,0,-1,-68,802)"/>
<path style="fill:none;stroke-width:1;stroke-linecap:square;stroke-linejoin:round;stroke:rgb(0%,0%,0%);stroke-opacity:1;stroke-miterlimit:10;" d="M 185.179688 645.796875 L 187.476562 645.777344 L 189.753906 645.71875 L 192.015625 645.625 L 194.261719 645.488281 L 196.492188 645.316406 L 198.707031 645.109375 L 200.90625 644.859375 L 203.09375 644.574219 L 205.261719 644.253906 " transform="matrix(1,0,0,-1,-68,802)"/>
<path style="fill:none;stroke-width:1;stroke-linecap:square;stroke-linejoin:round;stroke:rgb(0%,0%,0%);stroke-opacity:1;stroke-miterlimit:10;" d="M 205.261719 644.253906 L 206.5625 649.386719 L 207.847656 654.414062 L 209.113281 659.332031 L 210.359375 664.144531 L 211.582031 668.847656 L 212.785156 673.441406 L 213.964844 677.921875 L 215.117188 682.292969 L 216.246094 686.550781 " transform="matrix(1,0,0,-1,-68,802)"/>
<path style="fill:none;stroke-width:1;stroke-linecap:square;stroke-linejoin:round;stroke:rgb(0%,0%,0%);stroke-opacity:1;stroke-miterlimit:10;" d="M 216.246094 686.550781 L 213.054688 682.824219 L 209.785156 678.882812 L 206.445312 674.730469 L 203.035156 670.375 L 199.566406 665.820312 L 196.039062 661.074219 L 192.460938 656.148438 L 188.839844 651.050781 L 185.179688 645.796875 " transform="matrix(1,0,0,-1,-68,802)"/>
<path style="fill:none;stroke-width:1;stroke-linecap:square;stroke-linejoin:round;stroke:rgb(0%,0%,0%);stroke-opacity:1;stroke-miterlimit:10;" d="M 205.890625 723.210938 L 207.300781 719.847656 L 208.636719 716.304688 L 209.894531 712.5625 L 211.089844 708.640625 L 212.222656 704.550781 L 213.296875 700.28125 L 214.320312 695.851562 L 215.300781 691.273438 L 216.246094 686.550781 " transform="matrix(1,0,0,-1,-68,802)"/>
<path style="fill:none;stroke-width:1;stroke-linecap:square;stroke-linejoin:round;stroke:rgb(0%,0%,0%);stroke-opacity:1;stroke-miterlimit:10;" d="M 193.089844 593.609375 L 213.800781 593.609375 " transform="matrix(1,0,0,-1,-68,802)"/>
<path style="fill:none;stroke-width:1;stroke-linecap:square;stroke-linejoin:round;stroke:rgb(0%,0%,0%);stroke-opacity:1;stroke-miterlimit:10;" d="M 213.800781 593.609375 L 214.96875 599.050781 L 216.136719 604.421875 L 217.300781 609.71875 L 218.464844 614.9375 L 219.617188 620.074219 L 220.765625 625.128906 L 221.90625 630.101562 L 223.035156 634.984375 L 224.15625 639.785156 " transform="matrix(1,0,0,-1,-68,802)"/>
<path style="fill:none;stroke-width:1;stroke-linecap:square;stroke-linejoin:round;stroke:rgb(0%,0%,0%);stroke-opacity:1;stroke-miterlimit:10;" d="M 224.15625 639.785156 L 220.964844 635.554688 L 217.695312 631.082031 L 214.355469 626.378906 L 210.945312 621.441406 L 207.476562 616.28125 L 203.949219 610.910156 L 200.371094 605.332031 L 196.75 599.558594 L 193.089844 593.609375 " transform="matrix(1,0,0,-1,-68,802)"/>
<path style="fill:none;stroke-width:1;stroke-linecap:square;stroke-linejoin:round;stroke:rgb(0%,0%,0%);stroke-opacity:1;stroke-miterlimit:10;" d="M 216.246094 686.550781 L 217.15625 681.699219 L 218.042969 676.730469 L 218.914062 671.652344 L 219.773438 666.484375 L 220.628906 661.234375 L 221.484375 655.925781 L 222.355469 650.570312 L 223.242188 645.183594 L 224.15625 639.785156 " transform="matrix(1,0,0,-1,-68,802)"/>
<path style="fill:none;stroke-width:1;stroke-linecap:square;stroke-linejoin:round;stroke:rgb(0%,0%,0%);stroke-opacity:1;stroke-miterlimit:10;" d="M 224.15625 639.785156 L 225.097656 634.390625 L 226.078125 629.015625 L 227.101562 623.6875 L 228.175781 618.414062 L 229.308594 613.222656 L 230.503906 608.125 L 231.765625 603.148438 L 233.097656 598.300781 L 234.507812 593.609375 " transform="matrix(1,0,0,-1,-68,802)"/>
<path style="fill:none;stroke-width:1;stroke-linecap:square;stroke-linejoin:round;stroke:rgb(0%,0%,0%);stroke-opacity:1;stroke-miterlimit:10;" d="M 99.902344 676.585938 L 96.710938 676.882812 L 93.445312 677.070312 L 90.101562 677.160156 L 86.695312 677.167969 L 83.226562 677.105469 L 79.699219 676.988281 L 76.121094 676.832031 L 72.5 676.644531 L 68.839844 676.441406 " transform="matrix(1,0,0,-1,-68,802)"/>
<path style="fill:none;stroke-width:1;stroke-linecap:square;stroke-linejoin:round;stroke:rgb(0%,0%,0%);stroke-opacity:1;stroke-miterlimit:10;" d="M 68.839844 676.441406 L 72.53125 681.246094 L 76.246094 686.039062 L 79.976562 690.808594 L 83.71875 695.539062 L 87.464844 700.222656 L 91.210938 704.84375 L 94.941406 709.398438 L 98.65625 713.871094 L 102.347656 718.253906 " transform="matrix(1,0,0,-1,-68,802)"/>
<path style="fill:none;stroke-width:1;stroke-linecap:square;stroke-linejoin:round;stroke:rgb(0%,0%,0%);stroke-opacity:1;stroke-miterlimit:10;" d="M 102.347656 718.253906 L 98.664062 715.972656 L 94.964844 713.675781 L 91.257812 711.347656 L 87.535156 709.011719 L 83.808594 706.652344 L 80.070312 704.289062 L 76.332031 701.914062 L 72.585938 699.535156 L 68.839844 697.148438 " transform="matrix(1,0,0,-1,-68,802)"/>
<path style="fill:none;stroke-width:1;stroke-linecap:square;stroke-linejoin:round;stroke:rgb(0%,0%,0%);stroke-opacity:1;stroke-miterlimit:10;" d="M 68.839844 697.148438 L 68.839844 676.441406 " transform="matrix(1,0,0,-1,-68,802)"/>
<path style="fill:none;stroke-width:1;stroke-linecap:square;stroke-linejoin:round;stroke:rgb(0%,0%,0%);stroke-opacity:1;stroke-miterlimit:10;" d="M 68.839844 697.148438 L 72.585938 699.535156 L 76.332031 701.914062 L 80.070312 704.289062 L 83.808594 706.652344 L 87.535156 709.011719 L 91.257812 711.347656 L 94.964844 713.675781 L 98.664062 715.972656 L 102.347656 718.253906 " transform="matrix(1,0,0,-1,-68,802)"/>
<path style="fill:none;stroke-width:1;stroke-linecap:square;stroke-linejoin:round;stroke:rgb(0%,0%,0%);stroke-opacity:1;stroke-miterlimit:10;" d="M 102.347656 718.253906 L 98.65625 718.054688 L 94.941406 717.871094 L 91.210938 717.714844 L 87.464844 717.589844 L 83.71875 717.511719 L 79.976562 717.488281 L 76.246094 717.53125 L 72.53125 717.652344 L 68.839844 717.859375 " transform="matrix(1,0,0,-1,-68,802)"/>
<path style="fill:none;stroke-width:1;stroke-linecap:square;stroke-linejoin:round;stroke:rgb(0%,0%,0%);stroke-opacity:1;stroke-miterlimit:10;" d="M 68.839844 717.859375 L 68.839844 697.148438 " transform="matrix(1,0,0,-1,-68,802)"/>
<path style="fill:none;stroke-width:1;stroke-linecap:square;stroke-linejoin:round;stroke:rgb(0%,0%,0%);stroke-opacity:1;stroke-miterlimit:10;" d="M 68.839844 717.859375 L 72.5 722.164062 L 76.121094 726.371094 L 79.699219 730.472656 L 83.226562 734.460938 L 86.695312 738.324219 L 90.101562 742.074219 L 93.445312 745.691406 L 96.710938 749.183594 L 99.902344 752.546875 " transform="matrix(1,0,0,-1,-68,802)"/>
<path style="fill:none;stroke-width:1;stroke-linecap:square;stroke-linejoin:round;stroke:rgb(0%,0%,0%);stroke-opacity:1;stroke-miterlimit:10;" d="M 99.902344 752.546875 L 96.484375 751.035156 L 93.054688 749.511719 L 89.613281 747.972656 L 86.164062 746.425781 L 82.707031 744.863281 L 79.246094 743.300781 L 68.839844 738.566406 " transform="matrix(1,0,0,-1,-68,802)"/>
<path style="fill:none;stroke-width:1;stroke-linecap:square;stroke-linejoin:round;stroke:rgb(0%,0%,0%);stroke-opacity:1;stroke-miterlimit:10;" d="M 68.839844 738.566406 L 68.839844 717.859375 " transform="matrix(1,0,0,-1,-68,802)"/>
<path style="fill:none;stroke-width:1;stroke-linecap:square;stroke-linejoin:round;stroke:rgb(0%,0%,0%);stroke-opacity:1;stroke-miterlimit:10;" d="M 68.839844 738.566406 L 79.246094 743.300781 L 82.707031 744.863281 L 86.164062 746.425781 L 89.613281 747.972656 L 93.054688 749.511719 L 96.484375 751.035156 L 99.902344 752.546875 " transform="matrix(1,0,0,-1,-68,802)"/>
<path style="fill:none;stroke-width:1;stroke-linecap:square;stroke-linejoin:round;stroke:rgb(0%,0%,0%);stroke-opacity:1;stroke-miterlimit:10;" d="M 99.902344 752.546875 L 96.242188 752.882812 L 92.621094 753.304688 L 89.046875 753.824219 L 85.519531 754.453125 L 82.046875 755.183594 L 78.640625 756.03125 L 75.300781 756.992188 L 72.03125 758.074219 L 68.839844 759.277344 " transform="matrix(1,0,0,-1,-68,802)"/>
<path style="fill:none;stroke-width:1;stroke-linecap:square;stroke-linejoin:round;stroke:rgb(0%,0%,0%);stroke-opacity:1;stroke-miterlimit:10;" d="M 68.839844 759.277344 L 68.839844 738.566406 " transform="matrix(1,0,0,-1,-68,802)"/>
<path style="fill:none;stroke-width:1;stroke-linecap:square;stroke-linejoin:round;stroke:rgb(0%,0%,0%);stroke-opacity:1;stroke-miterlimit:10;" d="M 124.566406 666.871094 L 122.214844 668.707031 L 119.761719 670.332031 L 117.210938 671.753906 L 114.558594 672.980469 L 111.8125 674.023438 L 108.96875 674.894531 L 106.035156 675.601562 L 103.011719 676.160156 L 99.902344 676.585938 " transform="matrix(1,0,0,-1,-68,802)"/>
<path style="fill:none;stroke-width:1;stroke-linecap:square;stroke-linejoin:round;stroke:rgb(0%,0%,0%);stroke-opacity:1;stroke-miterlimit:10;" d="M 99.902344 676.585938 L 103.59375 681.421875 L 107.308594 686.25 L 111.039062 691.050781 L 114.785156 695.816406 L 118.53125 700.527344 L 122.273438 705.179688 L 126.003906 709.757812 L 129.71875 714.238281 L 133.410156 718.632812 " transform="matrix(1,0,0,-1,-68,802)"/>
<path style="fill:none;stroke-width:1;stroke-linecap:square;stroke-linejoin:round;stroke:rgb(0%,0%,0%);stroke-opacity:1;stroke-miterlimit:10;" d="M 133.410156 718.632812 L 129.984375 716.578125 L 126.527344 714.476562 L 123.050781 712.328125 L 119.546875 710.136719 L 116.019531 707.90625 L 112.472656 705.636719 L 108.90625 703.328125 L 105.320312 700.988281 L 101.722656 698.621094 " transform="matrix(1,0,0,-1,-68,802)"/>
<path style="fill:none;stroke-width:1;stroke-linecap:square;stroke-linejoin:round;stroke:rgb(0%,0%,0%);stroke-opacity:1;stroke-miterlimit:10;" d="M 101.722656 698.621094 L 101.574219 696.304688 L 101.414062 693.949219 L 101.242188 691.566406 L 101.050781 689.152344 L 100.847656 686.703125 L 100.632812 684.222656 L 100.402344 681.710938 L 100.160156 679.164062 L 99.902344 676.585938 " transform="matrix(1,0,0,-1,-68,802)"/>
<path style="fill:none;stroke-width:1;stroke-linecap:square;stroke-linejoin:round;stroke:rgb(0%,0%,0%);stroke-opacity:1;stroke-miterlimit:10;" d="M 101.722656 698.621094 L 105.320312 700.988281 L 108.90625 703.328125 L 112.472656 705.636719 L 116.019531 707.90625 L 119.546875 710.136719 L 123.050781 712.328125 L 126.527344 714.476562 L 129.984375 716.578125 L 133.410156 718.632812 " transform="matrix(1,0,0,-1,-68,802)"/>
<path style="fill:none;stroke-width:1;stroke-linecap:square;stroke-linejoin:round;stroke:rgb(0%,0%,0%);stroke-opacity:1;stroke-miterlimit:10;" d="M 133.410156 718.632812 L 130.21875 718.859375 L 126.949219 718.996094 L 123.609375 719.046875 L 120.203125 719.019531 L 116.730469 718.9375 L 113.203125 718.804688 L 109.628906 718.640625 L 106.007812 718.449219 L 102.347656 718.253906 " transform="matrix(1,0,0,-1,-68,802)"/>
<path style="fill:none;stroke-width:1;stroke-linecap:square;stroke-linejoin:round;stroke:rgb(0%,0%,0%);stroke-opacity:1;stroke-miterlimit:10;" d="M 102.347656 718.253906 L 102.339844 716.175781 L 102.316406 714.070312 L 102.277344 711.945312 L 102.222656 709.796875 L 102.152344 707.613281 L 102.066406 705.40625 L 101.96875 703.179688 L 101.851562 700.914062 L 101.722656 698.621094 " transform="matrix(1,0,0,-1,-68,802)"/>
<path style="fill:none;stroke-width:1;stroke-linecap:square;stroke-linejoin:round;stroke:rgb(0%,0%,0%);stroke-opacity:1;stroke-miterlimit:10;" d="M 102.347656 718.253906 L 106.007812 722.535156 L 109.628906 726.714844 L 113.203125 730.769531 L 116.730469 734.710938 L 120.203125 738.519531 L 123.609375 742.199219 L 126.949219 745.742188 L 130.21875 749.140625 L 133.410156 752.398438 " transform="matrix(1,0,0,-1,-68,802)"/>
<path style="fill:none;stroke-width:1;stroke-linecap:square;stroke-linejoin:round;stroke:rgb(0%,0%,0%);stroke-opacity:1;stroke-miterlimit:10;" d="M 133.410156 752.398438 L 129.984375 750.722656 L 126.527344 749.003906 L 123.050781 747.242188 L 119.546875 745.445312 L 116.019531 743.617188 L 112.472656 741.761719 L 108.90625 739.871094 L 105.320312 737.960938 L 101.722656 736.019531 " transform="matrix(1,0,0,-1,-68,802)"/>
<path style="fill:none;stroke-width:1;stroke-linecap:square;stroke-linejoin:round;stroke:rgb(0%,0%,0%);stroke-opacity:1;stroke-miterlimit:10;" d="M 101.722656 736.019531 L 101.851562 734.117188 L 101.96875 732.199219 L 102.066406 730.265625 L 102.152344 728.3125 L 102.222656 726.34375 L 102.277344 724.351562 L 102.316406 722.34375 L 102.339844 720.308594 L 102.347656 718.253906 " transform="matrix(1,0,0,-1,-68,802)"/>
<path style="fill:none;stroke-width:1;stroke-linecap:square;stroke-linejoin:round;stroke:rgb(0%,0%,0%);stroke-opacity:1;stroke-miterlimit:10;" d="M 101.722656 736.019531 L 105.320312 737.960938 L 108.90625 739.871094 L 112.472656 741.761719 L 116.019531 743.617188 L 119.546875 745.445312 L 123.050781 747.242188 L 126.527344 749.003906 L 129.984375 750.722656 L 133.410156 752.398438 " transform="matrix(1,0,0,-1,-68,802)"/>
<path style="fill:none;stroke-width:1;stroke-linecap:square;stroke-linejoin:round;stroke:rgb(0%,0%,0%);stroke-opacity:1;stroke-miterlimit:10;" d="M 133.410156 752.398438 L 129.71875 752.269531 L 126.003906 752.152344 L 122.273438 752.058594 L 118.53125 752.003906 L 114.785156 751.988281 L 111.039062 752.023438 L 107.308594 752.128906 L 103.59375 752.300781 L 99.902344 752.546875 " transform="matrix(1,0,0,-1,-68,802)"/>
<path style="fill:none;stroke-width:1;stroke-linecap:square;stroke-linejoin:round;stroke:rgb(0%,0%,0%);stroke-opacity:1;stroke-miterlimit:10;" d="M 99.902344 752.546875 L 100.160156 750.753906 L 100.402344 748.945312 L 100.632812 747.136719 L 100.847656 745.3125 L 101.050781 743.476562 L 101.242188 741.636719 L 101.414062 739.773438 L 101.574219 737.902344 L 101.722656 736.019531 " transform="matrix(1,0,0,-1,-68,802)"/>
<path style="fill:none;stroke-width:1;stroke-linecap:square;stroke-linejoin:round;stroke:rgb(0%,0%,0%);stroke-opacity:1;stroke-miterlimit:10;" d="M 141.320312 639.785156 L 139.828125 643.769531 L 138.25 647.507812 L 136.582031 651 L 134.824219 654.246094 L 132.96875 657.246094 L 131.015625 660.003906 L 128.96875 662.527344 L 126.816406 664.8125 L 124.566406 666.871094 " transform="matrix(1,0,0,-1,-68,802)"/>
<path style="fill:none;stroke-width:1;stroke-linecap:square;stroke-linejoin:round;stroke:rgb(0%,0%,0%);stroke-opacity:1;stroke-miterlimit:10;" d="M 124.566406 666.871094 L 128.257812 671.878906 L 131.972656 676.875 L 135.703125 681.84375 L 139.445312 686.773438 L 143.191406 691.648438 L 146.9375 696.453125 L 150.667969 701.179688 L 154.382812 705.804688 L 158.074219 710.320312 " transform="matrix(1,0,0,-1,-68,802)"/>
<path style="fill:none;stroke-width:1;stroke-linecap:square;stroke-linejoin:round;stroke:rgb(0%,0%,0%);stroke-opacity:1;stroke-miterlimit:10;" d="M 158.074219 710.320312 L 155.070312 708.90625 L 152.03125 707.425781 L 148.964844 705.882812 L 145.863281 704.269531 L 142.738281 702.605469 L 139.582031 700.886719 L 136.398438 699.105469 L 133.1875 697.273438 L 129.953125 695.394531 " transform="matrix(1,0,0,-1,-68,802)"/>
<path style="fill:none;stroke-width:1;stroke-linecap:square;stroke-linejoin:round;stroke:rgb(0%,0%,0%);stroke-opacity:1;stroke-miterlimit:10;" d="M 129.953125 695.394531 L 129.441406 692.496094 L 128.90625 689.53125 L 128.347656 686.496094 L 127.769531 683.398438 L 127.167969 680.226562 L 126.546875 676.992188 L 125.90625 673.6875 L 125.246094 670.3125 L 124.566406 666.871094 " transform="matrix(1,0,0,-1,-68,802)"/>
<path style="fill:none;stroke-width:1;stroke-linecap:square;stroke-linejoin:round;stroke:rgb(0%,0%,0%);stroke-opacity:1;stroke-miterlimit:10;" d="M 129.953125 695.394531 L 133.1875 697.273438 L 136.398438 699.105469 L 139.582031 700.886719 L 142.738281 702.605469 L 145.863281 704.269531 L 148.964844 705.882812 L 152.03125 707.425781 L 155.070312 708.90625 L 158.074219 710.320312 " transform="matrix(1,0,0,-1,-68,802)"/>
<path style="fill:none;stroke-width:1;stroke-linecap:square;stroke-linejoin:round;stroke:rgb(0%,0%,0%);stroke-opacity:1;stroke-miterlimit:10;" d="M 158.074219 710.320312 L 155.722656 711.921875 L 153.269531 713.328125 L 150.71875 714.554688 L 148.066406 715.605469 L 145.320312 716.496094 L 142.476562 717.234375 L 139.542969 717.828125 L 136.519531 718.289062 L 133.410156 718.632812 " transform="matrix(1,0,0,-1,-68,802)"/>
<path style="fill:none;stroke-width:1;stroke-linecap:square;stroke-linejoin:round;stroke:rgb(0%,0%,0%);stroke-opacity:1;stroke-miterlimit:10;" d="M 133.410156 718.632812 L 133.132812 716.289062 L 132.828125 713.890625 L 132.496094 711.4375 L 132.136719 708.921875 L 131.753906 706.34375 L 131.339844 703.699219 L 130.902344 700.996094 L 130.441406 698.226562 L 129.953125 695.394531 " transform="matrix(1,0,0,-1,-68,802)"/>
<path style="fill:none;stroke-width:1;stroke-linecap:square;stroke-linejoin:round;stroke:rgb(0%,0%,0%);stroke-opacity:1;stroke-miterlimit:10;" d="M 133.410156 718.632812 L 137.070312 722.910156 L 140.691406 727.078125 L 144.269531 731.117188 L 147.792969 735.027344 L 151.265625 738.804688 L 154.671875 742.429688 L 158.015625 745.902344 L 161.28125 749.226562 L 164.472656 752.394531 " transform="matrix(1,0,0,-1,-68,802)"/>
<path style="fill:none;stroke-width:1;stroke-linecap:square;stroke-linejoin:round;stroke:rgb(0%,0%,0%);stroke-opacity:1;stroke-miterlimit:10;" d="M 164.472656 752.394531 L 161.300781 750.964844 L 158.089844 749.464844 L 154.84375 747.894531 L 151.554688 746.269531 L 148.230469 744.589844 L 144.875 742.84375 L 141.480469 741.046875 L 138.058594 739.191406 L 134.601562 737.289062 " transform="matrix(1,0,0,-1,-68,802)"/>
<path style="fill:none;stroke-width:1;stroke-linecap:square;stroke-linejoin:round;stroke:rgb(0%,0%,0%);stroke-opacity:1;stroke-miterlimit:10;" d="M 134.601562 737.289062 L 134.585938 735.410156 L 134.542969 733.488281 L 134.46875 731.519531 L 134.363281 729.503906 L 134.230469 727.429688 L 134.070312 725.3125 L 133.878906 723.136719 L 133.660156 720.910156 L 133.410156 718.632812 " transform="matrix(1,0,0,-1,-68,802)"/>
<path style="fill:none;stroke-width:1;stroke-linecap:square;stroke-linejoin:round;stroke:rgb(0%,0%,0%);stroke-opacity:1;stroke-miterlimit:10;" d="M 134.601562 737.289062 L 138.058594 739.191406 L 141.480469 741.046875 L 144.875 742.84375 L 148.230469 744.589844 L 151.554688 746.269531 L 154.84375 747.894531 L 158.089844 749.464844 L 161.300781 750.964844 L 164.472656 752.394531 " transform="matrix(1,0,0,-1,-68,802)"/>
<path style="fill:none;stroke-width:1;stroke-linecap:square;stroke-linejoin:round;stroke:rgb(0%,0%,0%);stroke-opacity:1;stroke-miterlimit:10;" d="M 164.472656 752.394531 L 161.28125 752.636719 L 158.015625 752.789062 L 154.671875 752.867188 L 151.265625 752.886719 L 147.792969 752.84375 L 144.269531 752.765625 L 140.691406 752.660156 L 137.070312 752.53125 L 133.410156 752.398438 " transform="matrix(1,0,0,-1,-68,802)"/>
<path style="fill:none;stroke-width:1;stroke-linecap:square;stroke-linejoin:round;stroke:rgb(0%,0%,0%);stroke-opacity:1;stroke-miterlimit:10;" d="M 133.410156 752.398438 L 133.660156 750.859375 L 133.878906 749.289062 L 134.070312 747.683594 L 134.230469 746.050781 L 134.363281 744.371094 L 134.46875 742.660156 L 134.542969 740.910156 L 134.585938 739.121094 L 134.601562 737.289062 " transform="matrix(1,0,0,-1,-68,802)"/>
<path style="fill:none;stroke-width:1;stroke-linecap:square;stroke-linejoin:round;stroke:rgb(0%,0%,0%);stroke-opacity:1;stroke-miterlimit:10;" d="M 151.675781 593.609375 L 150.730469 599.558594 L 149.75 605.332031 L 148.726562 610.910156 L 147.652344 616.28125 L 146.519531 621.441406 L 145.324219 626.378906 L 144.066406 631.082031 L 142.730469 635.554688 L 141.320312 639.785156 " transform="matrix(1,0,0,-1,-68,802)"/>
<path style="fill:none;stroke-width:1;stroke-linecap:square;stroke-linejoin:round;stroke:rgb(0%,0%,0%);stroke-opacity:1;stroke-miterlimit:10;" d="M 141.320312 639.785156 L 145.011719 645.183594 L 148.726562 650.570312 L 152.457031 655.925781 L 156.199219 661.234375 L 159.945312 666.484375 L 163.691406 671.652344 L 167.421875 676.730469 L 171.136719 681.699219 L 174.828125 686.550781 " transform="matrix(1,0,0,-1,-68,802)"/>
<path style="fill:none;stroke-width:1;stroke-linecap:square;stroke-linejoin:round;stroke:rgb(0%,0%,0%);stroke-opacity:1;stroke-miterlimit:10;" d="M 174.828125 686.550781 L 172.25 685.9375 L 169.644531 685.257812 L 167.011719 684.519531 L 164.351562 683.722656 L 161.664062 682.863281 L 158.953125 681.945312 L 156.210938 680.972656 L 153.449219 679.941406 L 150.660156 678.855469 " transform="matrix(1,0,0,-1,-68,802)"/>
<path style="fill:none;stroke-width:1;stroke-linecap:square;stroke-linejoin:round;stroke:rgb(0%,0%,0%);stroke-opacity:1;stroke-miterlimit:10;" d="M 150.660156 678.855469 L 149.703125 674.890625 L 148.722656 670.828125 L 147.71875 666.671875 L 146.695312 662.421875 L 145.65625 658.078125 L 144.59375 653.640625 L 143.519531 649.113281 L 142.425781 644.492188 L 141.320312 639.785156 " transform="matrix(1,0,0,-1,-68,802)"/>
<path style="fill:none;stroke-width:2;stroke-linecap:square;stroke-linejoin:round;stroke:rgb(0%,60.4%,98%);stroke-opacity:1;stroke-miterlimit:10;" d="M 150.660156 678.855469 L 153.449219 679.941406 L 156.210938 680.972656 L 158.953125 681.945312 L 161.664062 682.863281 L 164.351562 683.722656 L 167.011719 684.519531 L 169.644531 685.257812 L 172.25 685.9375 L 174.828125 686.550781 " transform="matrix(1,0,0,-1,-68,802)"/>
<path style="fill:none;stroke-width:2;stroke-linecap:square;stroke-linejoin:round;stroke:rgb(0%,60.4%,98%);stroke-opacity:1;stroke-miterlimit:10;" d="M 174.828125 686.550781 L 173.335938 690.0625 L 171.757812 693.355469 L 170.089844 696.429688 L 168.328125 699.277344 L 166.476562 701.910156 L 164.523438 704.328125 L 162.472656 706.53125 L 160.324219 708.527344 L 158.074219 710.320312 " transform="matrix(1,0,0,-1,-68,802)"/>
<path style="fill:none;stroke-width:2;stroke-linecap:square;stroke-linejoin:round;stroke:rgb(0%,60.4%,98%);stroke-opacity:1;stroke-miterlimit:10;" d="M 158.074219 710.320312 L 157.371094 707.199219 L 156.632812 703.980469 L 155.867188 700.675781 L 155.070312 697.273438 L 154.242188 693.777344 L 153.386719 690.191406 L 152.503906 686.507812 L 151.59375 682.730469 L 150.660156 678.855469 " transform="matrix(1,0,0,-1,-68,802)"/>
<path style="fill:none;stroke-width:1;stroke-linecap:square;stroke-linejoin:round;stroke:rgb(0%,0%,0%);stroke-opacity:1;stroke-miterlimit:10;" d="M 158.074219 710.320312 L 161.734375 714.722656 L 165.355469 719.003906 L 168.929688 723.136719 L 172.457031 727.136719 L 175.929688 730.972656 L 179.335938 734.65625 L 182.675781 738.179688 L 185.945312 741.523438 L 189.136719 744.703125 " transform="matrix(1,0,0,-1,-68,802)"/>
<path style="fill:none;stroke-width:1;stroke-linecap:square;stroke-linejoin:round;stroke:rgb(0%,0%,0%);stroke-opacity:1;stroke-miterlimit:10;" d="M 189.136719 744.703125 L 186.386719 743.886719 L 183.59375 742.988281 L 180.757812 742.011719 L 177.875 740.953125 L 174.949219 739.8125 L 171.980469 738.597656 L 168.972656 737.308594 L 165.921875 735.945312 L 162.832031 734.511719 " transform="matrix(1,0,0,-1,-68,802)"/>
<path style="fill:none;stroke-width:1;stroke-linecap:square;stroke-linejoin:round;stroke:rgb(0%,0%,0%);stroke-opacity:1;stroke-miterlimit:10;" d="M 162.832031 734.511719 L 162.453125 732.152344 L 162.03125 729.722656 L 161.574219 727.203125 L 161.082031 724.605469 L 160.550781 721.929688 L 159.984375 719.15625 L 159.382812 716.304688 L 158.746094 713.355469 L 158.074219 710.320312 " transform="matrix(1,0,0,-1,-68,802)"/>
<path style="fill:none;stroke-width:1;stroke-linecap:square;stroke-linejoin:round;stroke:rgb(0%,0%,0%);stroke-opacity:1;stroke-miterlimit:10;" d="M 162.832031 734.511719 L 165.921875 735.945312 L 168.972656 737.308594 L 171.980469 738.597656 L 174.949219 739.8125 L 177.875 740.953125 L 180.757812 742.011719 L 183.59375 742.988281 L 186.386719 743.886719 L 189.136719 744.703125 " transform="matrix(1,0,0,-1,-68,802)"/>
<path style="fill:none;stroke-width:1;stroke-linecap:square;stroke-linejoin:round;stroke:rgb(0%,0%,0%);stroke-opacity:1;stroke-miterlimit:10;" d="M 189.136719 744.703125 L 186.785156 746.15625 L 184.332031 747.445312 L 181.78125 748.570312 L 179.128906 749.539062 L 176.382812 750.367188 L 173.539062 751.054688 L 170.605469 751.613281 L 167.582031 752.058594 L 164.472656 752.394531 " transform="matrix(1,0,0,-1,-68,802)"/>
<path style="fill:none;stroke-width:1;stroke-linecap:square;stroke-linejoin:round;stroke:rgb(0%,0%,0%);stroke-opacity:1;stroke-miterlimit:10;" d="M 164.472656 752.394531 L 164.453125 750.679688 L 164.390625 748.894531 L 164.289062 747.054688 L 164.148438 745.140625 L 163.964844 743.160156 L 163.742188 741.105469 L 163.476562 738.980469 L 163.175781 736.78125 L 162.832031 734.511719 " transform="matrix(1,0,0,-1,-68,802)"/>
<path style="fill:none;stroke-width:1;stroke-linecap:square;stroke-linejoin:round;stroke:rgb(0%,0%,0%);stroke-opacity:1;stroke-miterlimit:10;" d="M 151.675781 593.609375 L 155.363281 599.644531 L 159.078125 605.660156 L 162.8125 611.644531 L 166.554688 617.570312 L 170.300781 623.425781 L 174.042969 629.191406 L 177.777344 634.851562 L 181.492188 640.390625 L 185.179688 645.796875 " transform="matrix(1,0,0,-1,-68,802)"/>
<path style="fill:none;stroke-width:1;stroke-linecap:square;stroke-linejoin:round;stroke:rgb(0%,0%,0%);stroke-opacity:1;stroke-miterlimit:10;" d="M 185.179688 645.796875 L 182.871094 645.777344 L 180.546875 645.71875 L 178.207031 645.625 L 175.851562 645.488281 L 173.480469 645.316406 L 171.097656 645.109375 L 168.695312 644.859375 L 166.277344 644.574219 L 163.847656 644.253906 " transform="matrix(1,0,0,-1,-68,802)"/>
<path style="fill:none;stroke-width:1;stroke-linecap:square;stroke-linejoin:round;stroke:rgb(0%,0%,0%);stroke-opacity:1;stroke-miterlimit:10;" d="M 163.847656 644.253906 L 162.53125 639.019531 L 161.203125 633.679688 L 159.863281 628.238281 L 158.515625 622.699219 L 157.15625 617.066406 L 155.792969 611.335938 L 154.421875 605.515625 L 153.050781 599.605469 L 151.675781 593.609375 " transform="matrix(1,0,0,-1,-68,802)"/>
<path style="fill:none;stroke-width:1;stroke-linecap:square;stroke-linejoin:round;stroke:rgb(0%,0%,0%);stroke-opacity:1;stroke-miterlimit:10;" d="M 163.847656 644.253906 L 166.277344 644.574219 L 168.695312 644.859375 L 171.097656 645.109375 L 173.480469 645.316406 L 175.851562 645.488281 L 178.207031 645.625 L 180.546875 645.71875 L 182.871094 645.777344 L 185.179688 645.796875 " transform="matrix(1,0,0,-1,-68,802)"/>
<path style="fill:none;stroke-width:1;stroke-linecap:square;stroke-linejoin:round;stroke:rgb(0%,0%,0%);stroke-opacity:1;stroke-miterlimit:10;" d="M 185.179688 645.796875 L 184.238281 651.050781 L 183.257812 656.148438 L 182.234375 661.074219 L 181.160156 665.820312 L 180.027344 670.375 L 178.832031 674.730469 L 177.570312 678.882812 L 176.238281 682.824219 L 174.828125 686.550781 " transform="matrix(1,0,0,-1,-68,802)"/>
<path style="fill:none;stroke-width:1;stroke-linecap:square;stroke-linejoin:round;stroke:rgb(0%,0%,0%);stroke-opacity:1;stroke-miterlimit:10;" d="M 174.828125 686.550781 L 173.699219 682.292969 L 172.546875 677.921875 L 171.371094 673.441406 L 170.167969 668.847656 L 168.941406 664.144531 L 167.695312 659.332031 L 166.429688 654.414062 L 165.148438 649.386719 L 163.847656 644.253906 " transform="matrix(1,0,0,-1,-68,802)"/>
<path style="fill:none;stroke-width:1;stroke-linecap:square;stroke-linejoin:round;stroke:rgb(0%,0%,0%);stroke-opacity:1;stroke-miterlimit:10;" d="M 174.828125 686.550781 L 178.488281 691.273438 L 182.109375 695.851562 L 185.683594 700.28125 L 189.210938 704.550781 L 192.683594 708.640625 L 196.089844 712.5625 L 199.429688 716.304688 L 202.699219 719.847656 L 205.890625 723.210938 " transform="matrix(1,0,0,-1,-68,802)"/>
<path style="fill:none;stroke-width:1;stroke-linecap:square;stroke-linejoin:round;stroke:rgb(0%,0%,0%);stroke-opacity:1;stroke-miterlimit:10;" d="M 205.890625 723.210938 L 203.570312 723.171875 L 201.207031 723.046875 L 198.804688 722.84375 L 196.359375 722.554688 L 193.875 722.183594 L 191.351562 721.734375 L 188.789062 721.203125 L 186.183594 720.59375 L 183.542969 719.90625 " transform="matrix(1,0,0,-1,-68,802)"/>
<path style="fill:none;stroke-width:1;stroke-linecap:square;stroke-linejoin:round;stroke:rgb(0%,0%,0%);stroke-opacity:1;stroke-miterlimit:10;" d="M 183.542969 719.90625 L 182.714844 716.636719 L 181.847656 713.261719 L 180.945312 709.777344 L 180.007812 706.183594 L 179.035156 702.476562 L 178.03125 698.664062 L 176.992188 694.738281 L 175.925781 690.699219 L 174.828125 686.550781 " transform="matrix(1,0,0,-1,-68,802)"/>
<path style="fill:none;stroke-width:1;stroke-linecap:square;stroke-linejoin:round;stroke:rgb(0%,0%,0%);stroke-opacity:1;stroke-miterlimit:10;" d="M 183.542969 719.90625 L 186.183594 720.59375 L 188.789062 721.203125 L 191.351562 721.734375 L 193.875 722.183594 L 196.359375 722.554688 L 198.804688 722.84375 L 201.207031 723.046875 L 203.570312 723.171875 L 205.890625 723.210938 " transform="matrix(1,0,0,-1,-68,802)"/>
<path style="fill:none;stroke-width:1;stroke-linecap:square;stroke-linejoin:round;stroke:rgb(0%,0%,0%);stroke-opacity:1;stroke-miterlimit:10;" d="M 205.890625 723.210938 L 204.398438 726.378906 L 202.820312 729.34375 L 201.152344 732.113281 L 199.390625 734.691406 L 197.539062 737.074219 L 195.585938 739.261719 L 193.535156 741.261719 L 191.386719 743.070312 L 189.136719 744.703125 " transform="matrix(1,0,0,-1,-68,802)"/>
<path style="fill:none;stroke-width:1;stroke-linecap:square;stroke-linejoin:round;stroke:rgb(0%,0%,0%);stroke-opacity:1;stroke-miterlimit:10;" d="M 189.136719 744.703125 L 188.6875 742.34375 L 188.195312 739.886719 L 187.660156 737.328125 L 187.078125 734.679688 L 186.453125 731.929688 L 185.785156 729.078125 L 185.078125 726.128906 L 184.332031 723.066406 L 183.542969 719.90625 " transform="matrix(1,0,0,-1,-68,802)"/>
<path style="fill:none;stroke-width:1;stroke-linecap:square;stroke-linejoin:round;stroke:rgb(0%,0%,0%);stroke-opacity:1;stroke-miterlimit:10;" d="M 172.382812 593.609375 L 193.089844 593.609375 " transform="matrix(1,0,0,-1,-68,802)"/>
<path style="fill:none;stroke-width:1;stroke-linecap:square;stroke-linejoin:round;stroke:rgb(0%,0%,0%);stroke-opacity:1;stroke-miterlimit:10;" d="M 193.089844 593.609375 L 192.179688 599.644531 L 191.292969 605.660156 L 190.421875 611.644531 L 189.5625 617.570312 L 188.707031 623.425781 L 187.851562 629.191406 L 186.980469 634.851562 L 186.09375 640.390625 L 185.179688 645.796875 " transform="matrix(1,0,0,-1,-68,802)"/>
<path style="fill:none;stroke-width:1;stroke-linecap:square;stroke-linejoin:round;stroke:rgb(0%,0%,0%);stroke-opacity:1;stroke-miterlimit:10;" d="M 185.179688 645.796875 L 183.800781 640.40625 L 182.402344 634.914062 L 180.992188 629.3125 L 179.574219 623.605469 L 178.148438 617.796875 L 176.710938 611.894531 L 175.273438 605.890625 L 173.828125 599.792969 L 172.382812 593.609375 " transform="matrix(1,0,0,-1,-68,802)"/>
<path style="fill:none;stroke-width:1;stroke-linecap:square;stroke-linejoin:round;stroke:rgb(0%,0%,0%);stroke-opacity:1;stroke-miterlimit:10;" d="M 185.179688 645.796875 L 188.839844 651.050781 L 192.460938 656.148438 L 196.039062 661.074219 L 199.566406 665.820312 L 203.035156 670.375 L 206.445312 674.730469 L 209.785156 678.882812 L 213.054688 682.824219 L 216.246094 686.550781 " transform="matrix(1,0,0,-1,-68,802)"/>
<path style="fill:none;stroke-width:1;stroke-linecap:square;stroke-linejoin:round;stroke:rgb(0%,0%,0%);stroke-opacity:1;stroke-miterlimit:10;" d="M 216.246094 686.550781 L 214.191406 687.105469 L 212.109375 687.59375 L 210 688.019531 L 207.863281 688.382812 L 205.695312 688.675781 L 203.496094 688.90625 L 201.269531 689.070312 L 199.011719 689.171875 L 196.726562 689.203125 " transform="matrix(1,0,0,-1,-68,802)"/>
<path style="fill:none;stroke-width:1;stroke-linecap:square;stroke-linejoin:round;stroke:rgb(0%,0%,0%);stroke-opacity:1;stroke-miterlimit:10;" d="M 196.726562 689.203125 L 195.542969 684.84375 L 194.332031 680.367188 L 193.089844 675.773438 L 191.828125 671.0625 L 190.539062 666.234375 L 189.230469 661.292969 L 187.898438 656.242188 L 186.546875 651.074219 L 185.179688 645.796875 " transform="matrix(1,0,0,-1,-68,802)"/>
<path style="fill:none;stroke-width:1;stroke-linecap:square;stroke-linejoin:round;stroke:rgb(0%,0%,0%);stroke-opacity:1;stroke-miterlimit:10;" d="M 196.726562 689.203125 L 199.011719 689.171875 L 201.269531 689.070312 L 203.496094 688.90625 L 205.695312 688.675781 L 207.863281 688.382812 L 210 688.019531 L 212.109375 687.59375 L 214.191406 687.105469 L 216.246094 686.550781 " transform="matrix(1,0,0,-1,-68,802)"/>
<path style="fill:none;stroke-width:1;stroke-linecap:square;stroke-linejoin:round;stroke:rgb(0%,0%,0%);stroke-opacity:1;stroke-miterlimit:10;" d="M 216.246094 686.550781 L 215.300781 691.273438 L 214.320312 695.851562 L 213.296875 700.28125 L 212.222656 704.550781 L 211.089844 708.640625 L 209.894531 712.5625 L 208.636719 716.304688 L 207.300781 719.847656 L 205.890625 723.210938 " transform="matrix(1,0,0,-1,-68,802)"/>
<path style="fill:none;stroke-width:1;stroke-linecap:square;stroke-linejoin:round;stroke:rgb(0%,0%,0%);stroke-opacity:1;stroke-miterlimit:10;" d="M 205.890625 723.210938 L 205.019531 719.890625 L 204.109375 716.460938 L 203.160156 712.914062 L 202.175781 709.253906 L 201.152344 705.476562 L 200.097656 701.585938 L 199.003906 697.574219 L 197.882812 693.449219 L 196.726562 689.203125 " transform="matrix(1,0,0,-1,-68,802)"/>
<path style="fill:none;stroke-width:1;stroke-linecap:square;stroke-linejoin:round;stroke:rgb(0%,0%,0%);stroke-opacity:1;stroke-miterlimit:10;" d="M 193.089844 593.609375 L 196.75 599.558594 L 200.371094 605.332031 L 203.949219 610.910156 L 207.476562 616.28125 L 210.945312 621.441406 L 214.355469 626.378906 L 217.695312 631.082031 L 220.964844 635.554688 L 224.15625 639.785156 " transform="matrix(1,0,0,-1,-68,802)"/>
<path style="fill:none;stroke-width:1;stroke-linecap:square;stroke-linejoin:round;stroke:rgb(0%,0%,0%);stroke-opacity:1;stroke-miterlimit:10;" d="M 224.15625 639.785156 L 222.109375 640.414062 L 220.050781 641.011719 L 217.980469 641.578125 L 215.898438 642.109375 L 213.796875 642.609375 L 211.6875 643.074219 L 209.558594 643.503906 L 207.417969 643.898438 L 205.261719 644.253906 " transform="matrix(1,0,0,-1,-68,802)"/>
<path style="fill:none;stroke-width:1;stroke-linecap:square;stroke-linejoin:round;stroke:rgb(0%,0%,0%);stroke-opacity:1;stroke-miterlimit:10;" d="M 205.261719 644.253906 L 203.949219 639.019531 L 202.621094 633.679688 L 201.28125 628.238281 L 199.929688 622.699219 L 198.574219 617.066406 L 197.207031 611.335938 L 195.839844 605.515625 L 194.464844 599.605469 L 193.089844 593.609375 " transform="matrix(1,0,0,-1,-68,802)"/>
<path style="fill:none;stroke-width:1;stroke-linecap:square;stroke-linejoin:round;stroke:rgb(0%,0%,0%);stroke-opacity:1;stroke-miterlimit:10;" d="M 205.261719 644.253906 L 207.417969 643.898438 L 209.558594 643.503906 L 211.6875 643.074219 L 213.796875 642.609375 L 215.898438 642.109375 L 217.980469 641.578125 L 220.050781 641.011719 L 222.109375 640.414062 L 224.15625 639.785156 " transform="matrix(1,0,0,-1,-68,802)"/>
<path style="fill:none;stroke-width:1;stroke-linecap:square;stroke-linejoin:round;stroke:rgb(0%,0%,0%);stroke-opacity:1;stroke-miterlimit:10;" d="M 224.15625 639.785156 L 223.242188 645.183594 L 222.355469 650.570312 L 221.484375 655.925781 L 220.628906 661.234375 L 219.773438 666.484375 L 218.914062 671.652344 L 218.042969 676.730469 L 217.15625 681.699219 L 216.246094 686.550781 " transform="matrix(1,0,0,-1,-68,802)"/>
<path style="fill:none;stroke-width:1;stroke-linecap:square;stroke-linejoin:round;stroke:rgb(0%,0%,0%);stroke-opacity:1;stroke-miterlimit:10;" d="M 216.246094 686.550781 L 215.117188 682.292969 L 213.964844 677.921875 L 212.785156 673.441406 L 211.582031 668.847656 L 210.359375 664.144531 L 209.113281 659.332031 L 207.847656 654.414062 L 206.5625 649.386719 L 205.261719 644.253906 " transform="matrix(1,0,0,-1,-68,802)"/>
<path style="fill:none;stroke-width:1;stroke-linecap:square;stroke-linejoin:round;stroke:rgb(0%,0%,0%);stroke-opacity:1;stroke-miterlimit:10;" d="M 213.800781 593.609375 L 234.507812 593.609375 " transform="matrix(1,0,0,-1,-68,802)"/>
<path style="fill:none;stroke-width:1;stroke-linecap:square;stroke-linejoin:round;stroke:rgb(0%,0%,0%);stroke-opacity:1;stroke-miterlimit:10;" d="M 234.507812 593.609375 L 233.097656 598.300781 L 231.765625 603.148438 L 230.503906 608.125 L 229.308594 613.222656 L 228.175781 618.414062 L 227.101562 623.6875 L 226.078125 629.015625 L 225.097656 634.390625 L 224.15625 639.785156 " transform="matrix(1,0,0,-1,-68,802)"/>
<path style="fill:none;stroke-width:1;stroke-linecap:square;stroke-linejoin:round;stroke:rgb(0%,0%,0%);stroke-opacity:1;stroke-miterlimit:10;" d="M 224.15625 639.785156 L 223.035156 634.984375 L 221.90625 630.101562 L 220.765625 625.128906 L 219.617188 620.074219 L 218.464844 614.9375 L 217.300781 609.71875 L 216.136719 604.421875 L 214.96875 599.050781 L 213.800781 593.609375 " transform="matrix(1,0,0,-1,-68,802)"/>
<path style="fill:none;stroke-width:2;stroke-linecap:square;stroke-linejoin:round;stroke:rgb(0%,60.4%,98%);stroke-opacity:1;stroke-miterlimit:10;" d="M 363.6875 592.707031 L 363.6875 656.457031 " transform="matrix(1,0,0,-1,-68,802)"/>
<path style="fill:none;stroke-width:2;stroke-linecap:butt;stroke-linejoin:round;stroke:rgb(89%,43.5%,27.8%);stroke-opacity:1;stroke-dasharray:5.66929,1.41732;stroke-miterlimit:10;" d="M 190.019531 692.78125 C 190.019531 677.304688 177.542969 664.761719 162.15625 664.761719 C 146.765625 664.761719 134.292969 677.304688 134.292969 692.78125 C 134.292969 708.261719 146.765625 720.804688 162.15625 720.804688 C 177.542969 720.804688 190.019531 708.261719 190.019531 692.78125 Z M 190.019531 692.78125 " transform="matrix(1,0,0,-1,-68,802)"/>
<path style="fill:none;stroke-width:2;stroke-linecap:square;stroke-linejoin:round;stroke:rgb(0%,60.4%,98%);stroke-opacity:1;stroke-miterlimit:10;" d="M 371.1875 708.960938 L 377.265625 711.324219 L 383.289062 713.570312 L 389.265625 715.691406 L 395.175781 717.691406 L 401.03125 719.566406 L 406.832031 721.304688 L 412.570312 722.914062 L 418.25 724.394531 L 423.871094 725.730469 " transform="matrix(1,0,0,-1,-68,802)"/>
<path style="fill:none;stroke-width:2;stroke-linecap:square;stroke-linejoin:round;stroke:rgb(0%,60.4%,98%);stroke-opacity:1;stroke-miterlimit:10;" d="M 423.871094 725.730469 L 420.617188 733.386719 L 417.175781 740.5625 L 413.542969 747.261719 L 409.699219 753.472656 L 405.664062 759.214844 L 401.40625 764.484375 L 396.9375 769.285156 L 392.253906 773.636719 L 387.347656 777.550781 " transform="matrix(1,0,0,-1,-68,802)"/>
<path style="fill:none;stroke-width:2;stroke-linecap:square;stroke-linejoin:round;stroke:rgb(0%,60.4%,98%);stroke-opacity:1;stroke-miterlimit:10;" d="M 387.347656 777.550781 L 385.816406 770.742188 L 384.207031 763.726562 L 382.539062 756.511719 L 380.800781 749.105469 L 378.996094 741.484375 L 377.128906 733.671875 L 375.207031 725.636719 L 373.222656 717.402344 L 371.1875 708.960938 " transform="matrix(1,0,0,-1,-68,802)"/>
<path style="fill:none;stroke-width:2;stroke-linecap:butt;stroke-linejoin:round;stroke:rgb(89%,43.5%,27.8%);stroke-opacity:1;stroke-dasharray:8.50394,1.41732;stroke-miterlimit:10;" d="M 456.988281 739.308594 C 456.988281 705.574219 429.796875 678.226562 396.25 678.226562 C 362.707031 678.226562 335.511719 705.574219 335.511719 739.308594 C 335.511719 773.046875 362.707031 800.390625 396.25 800.390625 C 429.796875 800.390625 456.988281 773.046875 456.988281 739.308594 Z M 456.988281 739.308594 " transform="matrix(1,0,0,-1,-68,802)"/>
<path style="fill:none;stroke-width:2;stroke-linecap:butt;stroke-linejoin:round;stroke:rgb(89%,43.5%,27.8%);stroke-opacity:1;stroke-dasharray:5.66929,1.41732;stroke-miterlimit:10;" d="M 378.820312 797.84375 C 378.820312 797.84375 157.246094 719.453125 154.371094 719.878906 " transform="matrix(1,0,0,-1,-68,802)"/>
<path style="fill:none;stroke-width:2;stroke-linecap:butt;stroke-linejoin:round;stroke:rgb(89%,43.5%,27.8%);stroke-opacity:1;stroke-dasharray:5.66929,1.41732;stroke-miterlimit:10;" d="M 399.886719 678.296875 L 162.195312 664.585938 " transform="matrix(1,0,0,-1,-68,802)"/>
<path style="fill:none;stroke-width:2;stroke-linecap:square;stroke-linejoin:round;stroke:rgb(0%,60.4%,98%);stroke-opacity:1;stroke-miterlimit:10;" d="M 363.6875 592.707031 L 427.4375 592.707031 " transform="matrix(1,0,0,-1,-68,802)"/>
<path style="fill:none;stroke-width:2;stroke-linecap:square;stroke-linejoin:round;stroke:rgb(0%,60.4%,98%);stroke-opacity:1;stroke-miterlimit:10;" d="M 427.4375 592.707031 L 363.6875 656.457031 " transform="matrix(1,0,0,-1,-68,802)"/>
<path style="fill:none;stroke-width:1.028;stroke-linecap:butt;stroke-linejoin:round;stroke:rgb(25.1%,38.8%,84.7%);stroke-opacity:1;stroke-miterlimit:10;" d="M 393.6875 633.957031 C 393.6875 632.824219 393.6875 682.707031 393.6875 705.210938 " transform="matrix(1,0,0,-1,-68,802)"/>
<path style=" stroke:none;fill-rule:evenodd;fill:rgb(0%,0%,0%);fill-opacity:1;" d="M 325.6875 107.085938 L 329.804688 111.199219 L 325.6875 96.789062 L 321.570312 111.199219 Z M 325.6875 107.085938 "/>
<path style="fill-rule:evenodd;fill:rgb(25.1%,38.8%,84.7%);fill-opacity:1;stroke-width:1.097;stroke-linecap:butt;stroke-linejoin:round;stroke:rgb(25.1%,38.8%,84.7%);stroke-opacity:1;stroke-miterlimit:10;" d="M 393.6875 694.914062 L 397.804688 690.800781 L 393.6875 705.210938 L 389.570312 690.800781 Z M 393.6875 694.914062 " transform="matrix(1,0,0,-1,-68,802)"/>
<path style=" stroke:none;fill-rule:nonzero;fill:rgb(25.1%,38.8%,84.7%);fill-opacity:1;" d="M 342.777344 149.390625 C 342.804688 149.25 342.746094 149.109375 342.691406 149.023438 L 339.394531 143.164062 L 344.183594 138.097656 C 344.382812 137.871094 344.410156 137.84375 344.4375 137.730469 C 344.523438 137.308594 344.128906 137.308594 343.902344 137.308594 L 342.550781 137.308594 C 342.242188 137.308594 341.929688 137.308594 341.566406 137.703125 L 338.496094 141.054688 L 336.804688 137.730469 C 336.578125 137.308594 336.355469 137.308594 335.960938 137.308594 L 334.46875 137.308594 C 334.214844 137.308594 333.847656 137.308594 333.761719 137.703125 C 333.734375 137.8125 333.707031 137.84375 333.875 138.066406 L 336.691406 143.164062 L 331.230469 149.023438 C 331.03125 149.21875 330.976562 149.25 330.976562 149.359375 C 330.890625 149.785156 331.285156 149.785156 331.539062 149.785156 L 332.863281 149.785156 C 333.453125 149.785156 333.566406 149.671875 333.847656 149.359375 L 337.648438 145.082031 L 339.734375 149.390625 C 339.929688 149.785156 340.210938 149.785156 340.550781 149.785156 L 342.042969 149.785156 C 342.269531 149.785156 342.691406 149.785156 342.777344 149.390625 Z M 342.777344 149.390625 "/>
<path style=" stroke:none;fill-rule:nonzero;fill:rgb(25.1%,38.8%,84.7%);fill-opacity:1;" d="M 349.664062 146.25 C 349.664062 146.167969 349.636719 146.136719 349.554688 146.054688 C 347.863281 144.535156 347.273438 142.421875 347.273438 140.140625 C 347.273438 136.730469 348.566406 135.070312 349.582031 134.140625 C 349.636719 134.085938 349.664062 134.054688 349.664062 134 C 349.664062 133.859375 349.523438 133.859375 349.414062 133.859375 C 347.046875 135.519531 346.398438 138.195312 346.398438 140.113281 C 346.398438 141.886719 346.933594 144.644531 349.414062 146.390625 C 349.523438 146.390625 349.664062 146.390625 349.664062 146.25 Z M 349.664062 146.25 "/>
<path style=" stroke:none;fill-rule:nonzero;fill:rgb(25.1%,38.8%,84.7%);fill-opacity:1;" d="M 358.375 141.464844 C 358.375 141.292969 358.207031 141.292969 358.148438 141.292969 C 357.980469 141.292969 357.980469 141.378906 357.894531 141.605469 C 357.785156 142.109375 357.445312 143.039062 356.796875 143.039062 C 356.460938 143.039062 356.375 142.730469 356.375 142.394531 C 356.375 142.167969 356.375 142.140625 356.433594 141.828125 C 356.488281 141.6875 356.515625 141.546875 356.515625 141.40625 C 356.515625 140.082031 354.292969 140.082031 353.898438 140.082031 C 354.375 139.800781 354.96875 139.351562 355.050781 139.292969 C 355.925781 138.648438 356.207031 138.476562 356.628906 138.335938 C 356.601562 138.394531 356.574219 138.476562 356.574219 138.535156 C 356.574219 138.84375 356.769531 139.011719 357.078125 139.011719 C 357.472656 139.011719 357.785156 138.675781 357.785156 138.335938 C 357.785156 138.027344 357.558594 137.859375 357.25 137.859375 C 356.402344 137.859375 355.558594 138.507812 354.882812 139.011719 C 353.898438 139.746094 353.558594 139.886719 353.25 139.972656 L 353.472656 139.042969 C 353.558594 138.730469 353.699219 138.195312 353.699219 138.140625 C 353.699219 137.914062 353.53125 137.71875 353.277344 137.71875 C 353.023438 137.71875 352.828125 137.914062 352.742188 138.054688 C 352.6875 138.195312 351.503906 142.898438 351.503906 142.984375 C 351.503906 143.265625 351.726562 143.378906 351.953125 143.378906 C 352.40625 143.378906 352.488281 142.984375 352.546875 142.757812 C 352.574219 142.703125 352.828125 141.660156 353.136719 140.421875 C 353.785156 140.421875 355.53125 140.476562 355.53125 141.433594 C 355.53125 141.433594 355.503906 141.546875 355.472656 141.71875 C 355.445312 141.914062 355.445312 141.96875 355.445312 142.109375 C 355.445312 142.984375 356.148438 143.378906 356.769531 143.378906 C 358.007812 143.378906 358.375 141.464844 358.375 141.464844 Z M 358.375 141.464844 "/>
<path style=" stroke:none;fill-rule:nonzero;fill:rgb(25.1%,38.8%,84.7%);fill-opacity:1;" d="M 363.121094 140.140625 C 363.121094 138.367188 362.585938 135.605469 360.109375 133.859375 C 360.023438 133.859375 359.882812 133.859375 359.882812 134 C 359.882812 134.054688 359.910156 134.085938 359.996094 134.195312 C 361.066406 135.183594 362.277344 136.871094 362.277344 140.113281 C 362.277344 142.730469 361.460938 144.730469 360.109375 145.941406 C 359.882812 146.167969 359.882812 146.167969 359.882812 146.25 C 359.882812 146.308594 359.910156 146.390625 360.023438 146.390625 C 360.191406 146.390625 361.375 145.574219 362.222656 144 C 362.757812 142.957031 363.121094 141.605469 363.121094 140.140625 Z M 363.121094 140.140625 "/>
<path style=" stroke:none;fill-rule:nonzero;fill:rgb(25.1%,38.8%,84.7%);fill-opacity:1;" d="M 321.375 180.539062 L 315.554688 177.261719 L 309.765625 180.539062 L 309.992188 180.992188 L 315.554688 178.480469 L 321.121094 180.992188 Z M 321.375 180.539062 "/>
<path style=" stroke:none;fill-rule:nonzero;fill:rgb(25.1%,38.8%,84.7%);fill-opacity:1;" d="M 322.386719 196.21875 L 320.652344 196.21875 C 320.394531 196.21875 320.136719 196.21875 319.910156 196.21875 L 318.816406 196.21875 C 319.105469 195.09375 319.6875 194.09375 320.425781 192.839844 C 321.261719 191.425781 322.128906 189.914062 322.128906 188.175781 C 322.128906 185.3125 319.363281 182.964844 315.890625 182.964844 C 312.351562 182.964844 309.652344 185.347656 309.652344 188.175781 C 309.652344 189.914062 310.488281 191.359375 311.546875 193.164062 C 312.320312 194.449219 312.738281 195.316406 312.964844 196.21875 L 311.871094 196.21875 C 311.644531 196.21875 311.386719 196.21875 311.128906 196.21875 L 309.394531 196.21875 L 309.394531 197.664062 L 314.410156 197.664062 C 314.410156 196.636719 314.25 195.542969 313.125 193.226562 C 312.289062 191.585938 311.484375 189.914062 311.484375 188.210938 C 311.484375 185.859375 313.445312 184.222656 315.890625 184.222656 C 318.398438 184.222656 320.296875 185.894531 320.296875 188.210938 C 320.296875 189.816406 319.589844 191.328125 318.816406 193 C 317.949219 194.738281 317.371094 196.023438 317.371094 197.664062 L 322.386719 197.664062 Z M 322.386719 196.21875 "/>
<path style=" stroke:none;fill-rule:nonzero;fill:rgb(25.1%,38.8%,84.7%);fill-opacity:1;" d="M 325.492188 73.070312 L 323.921875 73.070312 C 323.691406 73.070312 323.457031 73.070312 323.253906 73.070312 L 322.265625 73.070312 C 322.527344 72.058594 323.050781 71.15625 323.71875 70.023438 C 324.472656 68.742188 325.257812 67.382812 325.257812 65.8125 C 325.257812 63.226562 322.761719 61.105469 319.625 61.105469 C 316.425781 61.105469 313.988281 63.257812 313.988281 65.8125 C 313.988281 67.382812 314.742188 68.6875 315.703125 70.316406 C 316.398438 71.476562 316.777344 72.261719 316.980469 73.070312 L 315.992188 73.070312 C 315.789062 73.070312 315.554688 73.070312 315.324219 73.070312 L 313.753906 73.070312 L 313.753906 74.382812 L 318.285156 74.382812 C 318.285156 73.449219 318.140625 72.464844 317.125 70.371094 C 316.371094 68.890625 315.644531 67.382812 315.644531 65.839844 C 315.644531 63.722656 317.414062 62.238281 319.625 62.238281 C 321.890625 62.238281 323.601562 63.746094 323.601562 65.839844 C 323.601562 67.289062 322.964844 68.65625 322.265625 70.164062 C 321.480469 71.738281 320.960938 72.902344 320.960938 74.382812 L 325.492188 74.382812 Z M 325.492188 73.070312 "/>
<path style=" stroke:none;fill-rule:nonzero;fill:rgb(25.1%,38.8%,84.7%);fill-opacity:1;" d="M 330.882812 70.882812 C 330.851562 70.882812 329.601562 69.808594 328.992188 67.777344 C 328.703125 66.757812 328.527344 65.714844 328.527344 64.433594 C 328.527344 59.933594 330.648438 58.15625 330.882812 57.953125 L 330.269531 57.953125 C 330.039062 57.953125 330.039062 57.953125 329.863281 58.070312 C 328.238281 59.492188 327.394531 61.820312 327.394531 64.433594 C 327.394531 66.871094 328.152344 69.226562 329.863281 70.738281 C 330.039062 70.882812 330.039062 70.882812 330.269531 70.882812 Z M 330.882812 70.882812 "/>
<path style=" stroke:none;fill-rule:nonzero;fill:rgb(25.1%,38.8%,84.7%);fill-opacity:1;" d="M 339.722656 65.800781 C 339.722656 65.621094 339.550781 65.621094 339.492188 65.621094 C 339.316406 65.621094 339.316406 65.714844 339.230469 65.945312 C 339.113281 66.46875 338.765625 67.425781 338.097656 67.425781 C 337.75 67.425781 337.660156 67.105469 337.660156 66.757812 C 337.660156 66.527344 337.660156 66.492188 337.71875 66.175781 C 337.777344 66.027344 337.804688 65.886719 337.804688 65.738281 C 337.804688 64.371094 335.511719 64.371094 335.105469 64.371094 C 335.597656 64.085938 336.207031 63.617188 336.296875 63.5625 C 337.195312 62.894531 337.488281 62.722656 337.921875 62.570312 C 337.894531 62.632812 337.863281 62.722656 337.863281 62.777344 C 337.863281 63.097656 338.066406 63.273438 338.386719 63.273438 C 338.792969 63.273438 339.113281 62.925781 339.113281 62.570312 C 339.113281 62.257812 338.882812 62.078125 338.5625 62.078125 C 337.691406 62.078125 336.820312 62.746094 336.121094 63.273438 C 335.105469 64.027344 334.757812 64.171875 334.4375 64.261719 L 334.667969 63.300781 C 334.757812 62.980469 334.902344 62.429688 334.902344 62.367188 C 334.902344 62.140625 334.726562 61.9375 334.464844 61.9375 C 334.203125 61.9375 334 62.140625 333.914062 62.28125 C 333.855469 62.429688 332.636719 67.277344 332.636719 67.363281 C 332.636719 67.65625 332.867188 67.777344 333.101562 67.777344 C 333.566406 67.777344 333.652344 67.363281 333.710938 67.136719 C 333.738281 67.074219 334 66.003906 334.320312 64.726562 C 334.988281 64.726562 336.789062 64.78125 336.789062 65.769531 C 336.789062 65.769531 336.761719 65.886719 336.730469 66.0625 C 336.703125 66.265625 336.703125 66.320312 336.703125 66.46875 C 336.703125 67.363281 337.429688 67.777344 338.066406 67.777344 C 339.347656 67.777344 339.722656 65.800781 339.722656 65.800781 Z M 339.722656 65.800781 "/>
<path style=" stroke:none;fill-rule:nonzero;fill:rgb(25.1%,38.8%,84.7%);fill-opacity:1;" d="M 344.589844 64.433594 C 344.589844 61.964844 343.863281 59.613281 342.148438 58.101562 C 341.976562 57.953125 341.945312 57.953125 341.742188 57.953125 L 341.101562 57.953125 C 341.160156 57.953125 342.410156 59.027344 342.992188 61.066406 C 343.3125 62.078125 343.457031 63.128906 343.457031 64.433594 C 343.457031 68.90625 341.363281 70.679688 341.101562 70.882812 L 341.742188 70.882812 C 341.945312 70.882812 341.976562 70.882812 342.148438 70.765625 C 343.777344 69.34375 344.589844 67.019531 344.589844 64.433594 Z M 344.589844 64.433594 "/>
</g>
</svg>
