<?xml version="1.0" encoding="utf-8"?>
<svg xmlns="http://www.w3.org/2000/svg" xmlns:xlink="http://www.w3.org/1999/xlink" width="600" height="400" viewBox="0 0 2400 1600">
<defs>
  <clipPath id="clip540">
    <rect x="0" y="0" width="2400" height="1600"/>
  </clipPath>
</defs>
<path clip-path="url(#clip540)" d="
M0 1600 L2400 1600 L2400 0 L0 0  Z
  " fill="#ffffff" fill-rule="evenodd" fill-opacity="1"/>
<defs>
  <clipPath id="clip541">
    <rect x="480" y="0" width="1681" height="1600"/>
  </clipPath>
</defs>
<defs>
  <clipPath id="clip542">
    <rect x="639" y="47" width="1354" height="1354"/>
  </clipPath>
</defs>
<path clip-path="url(#clip540)" d="
M639.656 1400.54 L1992.95 1400.54 L1992.95 47.2441 L639.656 47.2441  Z
  " fill="#ffffff" fill-rule="evenodd" fill-opacity="1"/>
<polyline clip-path="url(#clip540)" style="stroke:#000000; stroke-linecap:round; stroke-linejoin:round; stroke-width:4; stroke-opacity:1; fill:none" points="
  639.656,1400.54 1992.95,1400.54 
  "/>
<polyline clip-path="url(#clip540)" style="stroke:#000000; stroke-linecap:round; stroke-linejoin:round; stroke-width:4; stroke-opacity:1; fill:none" points="
  701.169,1400.54 701.169,1381.64 
  "/>
<polyline clip-path="url(#clip540)" style="stroke:#000000; stroke-linecap:round; stroke-linejoin:round; stroke-width:4; stroke-opacity:1; fill:none" points="
  1008.74,1400.54 1008.74,1381.64 
  "/>
<polyline clip-path="url(#clip540)" style="stroke:#000000; stroke-linecap:round; stroke-linejoin:round; stroke-width:4; stroke-opacity:1; fill:none" points="
  1316.3,1400.54 1316.3,1381.64 
  "/>
<polyline clip-path="url(#clip540)" style="stroke:#000000; stroke-linecap:round; stroke-linejoin:round; stroke-width:4; stroke-opacity:1; fill:none" points="
  1623.87,1400.54 1623.87,1381.64 
  "/>
<polyline clip-path="url(#clip540)" style="stroke:#000000; stroke-linecap:round; stroke-linejoin:round; stroke-width:4; stroke-opacity:1; fill:none" points="
  1931.43,1400.54 1931.43,1381.64 
  "/>
<path clip-path="url(#clip540)" d="M647.697 1446.11 L677.373 1446.11 L677.373 1450.04 L647.697 1450.04 L647.697 1446.11 Z" fill="#000000" fill-rule="evenodd" fill-opacity="1" /><path clip-path="url(#clip540)" d="M688.276 1459 L695.915 1459 L695.915 1432.64 L687.605 1434.3 L687.605 1430.04 L695.868 1428.38 L700.544 1428.38 L700.544 1459 L708.183 1459 L708.183 1462.94 L688.276 1462.94 L688.276 1459 Z" fill="#000000" fill-rule="evenodd" fill-opacity="1" /><path clip-path="url(#clip540)" d="M717.628 1457.06 L722.512 1457.06 L722.512 1462.94 L717.628 1462.94 L717.628 1457.06 Z" fill="#000000" fill-rule="evenodd" fill-opacity="1" /><path clip-path="url(#clip540)" d="M742.697 1431.45 Q739.086 1431.45 737.257 1435.02 Q735.452 1438.56 735.452 1445.69 Q735.452 1452.8 737.257 1456.36 Q739.086 1459.9 742.697 1459.9 Q746.331 1459.9 748.137 1456.36 Q749.965 1452.8 749.965 1445.69 Q749.965 1438.56 748.137 1435.02 Q746.331 1431.45 742.697 1431.45 M742.697 1427.75 Q748.507 1427.75 751.563 1432.36 Q754.641 1436.94 754.641 1445.69 Q754.641 1454.42 751.563 1459.02 Q748.507 1463.61 742.697 1463.61 Q736.887 1463.61 733.808 1459.02 Q730.752 1454.42 730.752 1445.69 Q730.752 1436.94 733.808 1432.36 Q736.887 1427.75 742.697 1427.75 Z" fill="#000000" fill-rule="evenodd" fill-opacity="1" /><path clip-path="url(#clip540)" d="M955.761 1446.11 L985.437 1446.11 L985.437 1450.04 L955.761 1450.04 L955.761 1446.11 Z" fill="#000000" fill-rule="evenodd" fill-opacity="1" /><path clip-path="url(#clip540)" d="M1005.53 1431.45 Q1001.92 1431.45 1000.09 1435.02 Q998.284 1438.56 998.284 1445.69 Q998.284 1452.8 1000.09 1456.36 Q1001.92 1459.9 1005.53 1459.9 Q1009.16 1459.9 1010.97 1456.36 Q1012.8 1452.8 1012.8 1445.69 Q1012.8 1438.56 1010.97 1435.02 Q1009.16 1431.45 1005.53 1431.45 M1005.53 1427.75 Q1011.34 1427.75 1014.4 1432.36 Q1017.47 1436.94 1017.47 1445.69 Q1017.47 1454.42 1014.4 1459.02 Q1011.34 1463.61 1005.53 1463.61 Q999.719 1463.61 996.641 1459.02 Q993.585 1454.42 993.585 1445.69 Q993.585 1436.94 996.641 1432.36 Q999.719 1427.75 1005.53 1427.75 Z" fill="#000000" fill-rule="evenodd" fill-opacity="1" /><path clip-path="url(#clip540)" d="M1025.69 1457.06 L1030.58 1457.06 L1030.58 1462.94 L1025.69 1462.94 L1025.69 1457.06 Z" fill="#000000" fill-rule="evenodd" fill-opacity="1" /><path clip-path="url(#clip540)" d="M1040.81 1428.38 L1059.16 1428.38 L1059.16 1432.31 L1045.09 1432.31 L1045.09 1440.78 Q1046.11 1440.44 1047.13 1440.27 Q1048.15 1440.09 1049.16 1440.09 Q1054.95 1440.09 1058.33 1443.26 Q1061.71 1446.43 1061.71 1451.85 Q1061.71 1457.43 1058.24 1460.53 Q1054.77 1463.61 1048.45 1463.61 Q1046.27 1463.61 1044 1463.24 Q1041.76 1462.87 1039.35 1462.13 L1039.35 1457.43 Q1041.43 1458.56 1043.65 1459.12 Q1045.88 1459.67 1048.35 1459.67 Q1052.36 1459.67 1054.7 1457.57 Q1057.03 1455.46 1057.03 1451.85 Q1057.03 1448.24 1054.7 1446.13 Q1052.36 1444.02 1048.35 1444.02 Q1046.48 1444.02 1044.6 1444.44 Q1042.75 1444.86 1040.81 1445.74 L1040.81 1428.38 Z" fill="#000000" fill-rule="evenodd" fill-opacity="1" /><path clip-path="url(#clip540)" d="M1293.69 1431.45 Q1290.08 1431.45 1288.25 1435.02 Q1286.44 1438.56 1286.44 1445.69 Q1286.44 1452.8 1288.25 1456.36 Q1290.08 1459.9 1293.69 1459.9 Q1297.32 1459.9 1299.13 1456.36 Q1300.95 1452.8 1300.95 1445.69 Q1300.95 1438.56 1299.13 1435.02 Q1297.32 1431.45 1293.69 1431.45 M1293.69 1427.75 Q1299.5 1427.75 1302.55 1432.36 Q1305.63 1436.94 1305.63 1445.69 Q1305.63 1454.42 1302.55 1459.02 Q1299.5 1463.61 1293.69 1463.61 Q1287.88 1463.61 1284.8 1459.02 Q1281.74 1454.42 1281.74 1445.69 Q1281.74 1436.94 1284.8 1432.36 Q1287.88 1427.75 1293.69 1427.75 Z" fill="#000000" fill-rule="evenodd" fill-opacity="1" /><path clip-path="url(#clip540)" d="M1313.85 1457.06 L1318.73 1457.06 L1318.73 1462.94 L1313.85 1462.94 L1313.85 1457.06 Z" fill="#000000" fill-rule="evenodd" fill-opacity="1" /><path clip-path="url(#clip540)" d="M1338.92 1431.45 Q1335.31 1431.45 1333.48 1435.02 Q1331.67 1438.56 1331.67 1445.69 Q1331.67 1452.8 1333.48 1456.36 Q1335.31 1459.9 1338.92 1459.9 Q1342.55 1459.9 1344.36 1456.36 Q1346.19 1452.8 1346.19 1445.69 Q1346.19 1438.56 1344.36 1435.02 Q1342.55 1431.45 1338.92 1431.45 M1338.92 1427.75 Q1344.73 1427.75 1347.78 1432.36 Q1350.86 1436.94 1350.86 1445.69 Q1350.86 1454.42 1347.78 1459.02 Q1344.73 1463.61 1338.92 1463.61 Q1333.11 1463.61 1330.03 1459.02 Q1326.97 1454.42 1326.97 1445.69 Q1326.97 1436.94 1330.03 1432.36 Q1333.11 1427.75 1338.92 1427.75 Z" fill="#000000" fill-rule="evenodd" fill-opacity="1" /><path clip-path="url(#clip540)" d="M1601.75 1431.45 Q1598.14 1431.45 1596.31 1435.02 Q1594.5 1438.56 1594.5 1445.69 Q1594.5 1452.8 1596.31 1456.36 Q1598.14 1459.9 1601.75 1459.9 Q1605.38 1459.9 1607.19 1456.36 Q1609.02 1452.8 1609.02 1445.69 Q1609.02 1438.56 1607.19 1435.02 Q1605.38 1431.45 1601.75 1431.45 M1601.75 1427.75 Q1607.56 1427.75 1610.62 1432.36 Q1613.69 1436.94 1613.69 1445.69 Q1613.69 1454.42 1610.62 1459.02 Q1607.56 1463.61 1601.75 1463.61 Q1595.94 1463.61 1592.86 1459.02 Q1589.81 1454.42 1589.81 1445.69 Q1589.81 1436.94 1592.86 1432.36 Q1595.94 1427.75 1601.75 1427.75 Z" fill="#000000" fill-rule="evenodd" fill-opacity="1" /><path clip-path="url(#clip540)" d="M1621.91 1457.06 L1626.8 1457.06 L1626.8 1462.94 L1621.91 1462.94 L1621.91 1457.06 Z" fill="#000000" fill-rule="evenodd" fill-opacity="1" /><path clip-path="url(#clip540)" d="M1637.03 1428.38 L1655.38 1428.38 L1655.38 1432.31 L1641.31 1432.31 L1641.31 1440.78 Q1642.33 1440.44 1643.35 1440.27 Q1644.37 1440.09 1645.38 1440.09 Q1651.17 1440.09 1654.55 1443.26 Q1657.93 1446.43 1657.93 1451.85 Q1657.93 1457.43 1654.46 1460.53 Q1650.99 1463.61 1644.67 1463.61 Q1642.49 1463.61 1640.22 1463.24 Q1637.98 1462.87 1635.57 1462.13 L1635.57 1457.43 Q1637.65 1458.56 1639.88 1459.12 Q1642.1 1459.67 1644.57 1459.67 Q1648.58 1459.67 1650.92 1457.57 Q1653.25 1455.46 1653.25 1451.85 Q1653.25 1448.24 1650.92 1446.13 Q1648.58 1444.02 1644.57 1444.02 Q1642.7 1444.02 1640.82 1444.44 Q1638.97 1444.86 1637.03 1445.74 L1637.03 1428.38 Z" fill="#000000" fill-rule="evenodd" fill-opacity="1" /><path clip-path="url(#clip540)" d="M1898.59 1459 L1906.23 1459 L1906.23 1432.64 L1897.92 1434.3 L1897.92 1430.04 L1906.18 1428.38 L1910.86 1428.38 L1910.86 1459 L1918.49 1459 L1918.49 1462.94 L1898.59 1462.94 L1898.59 1459 Z" fill="#000000" fill-rule="evenodd" fill-opacity="1" /><path clip-path="url(#clip540)" d="M1927.94 1457.06 L1932.82 1457.06 L1932.82 1462.94 L1927.94 1462.94 L1927.94 1457.06 Z" fill="#000000" fill-rule="evenodd" fill-opacity="1" /><path clip-path="url(#clip540)" d="M1953.01 1431.45 Q1949.4 1431.45 1947.57 1435.02 Q1945.76 1438.56 1945.76 1445.69 Q1945.76 1452.8 1947.57 1456.36 Q1949.4 1459.9 1953.01 1459.9 Q1956.64 1459.9 1958.45 1456.36 Q1960.28 1452.8 1960.28 1445.69 Q1960.28 1438.56 1958.45 1435.02 Q1956.64 1431.45 1953.01 1431.45 M1953.01 1427.75 Q1958.82 1427.75 1961.87 1432.36 Q1964.95 1436.94 1964.95 1445.69 Q1964.95 1454.42 1961.87 1459.02 Q1958.82 1463.61 1953.01 1463.61 Q1947.2 1463.61 1944.12 1459.02 Q1941.06 1454.42 1941.06 1445.69 Q1941.06 1436.94 1944.12 1432.36 Q1947.2 1427.75 1953.01 1427.75 Z" fill="#000000" fill-rule="evenodd" fill-opacity="1" /><path clip-path="url(#clip540)" d="M1315.62 1486.69 Q1315.62 1489.45 1307.63 1489.45 Q1306.26 1489.45 1305.52 1489.41 Q1304.77 1489.32 1303.67 1488.88 Q1302.62 1488.4 1301.87 1487.48 Q1297.13 1489.8 1294.5 1494.2 Q1291.9 1498.59 1291.9 1502.76 Q1291.9 1507.11 1294.58 1509.79 Q1297.92 1508.69 1302.14 1508.69 Q1305.52 1508.69 1307.49 1509.17 Q1309.51 1509.65 1309.51 1511.15 Q1309.51 1511.81 1309.12 1512.33 Q1308.72 1512.82 1307.89 1513.12 Q1307.1 1513.39 1306.35 1513.56 Q1305.65 1513.74 1304.51 1513.83 Q1303.37 1513.87 1302.75 1513.91 Q1302.14 1513.91 1301.17 1513.91 Q1296.43 1513.91 1293.22 1512.77 Q1288.08 1515.36 1285.14 1520.06 Q1282.2 1524.72 1282.2 1528.06 Q1282.2 1533.33 1288.92 1536.05 L1294.32 1538.2 Q1295.55 1538.6 1299.81 1540.27 L1305.3 1542.33 Q1309.6 1544.22 1309.6 1548.74 Q1309.6 1552.25 1306.88 1555.28 Q1304.2 1558.36 1300.25 1558.36 Q1297.92 1558.36 1295.51 1557.48 Q1293.13 1556.65 1291.77 1555.64 Q1290.45 1554.63 1290.45 1554.06 Q1290.45 1553.04 1291.33 1553.04 Q1291.68 1553.04 1292.34 1553.48 Q1296.52 1556.38 1300.25 1556.38 Q1302.18 1556.38 1303.41 1554.85 Q1304.68 1553.31 1304.68 1551.6 Q1304.68 1550.67 1304.42 1550.01 Q1304.2 1549.36 1303.54 1548.87 Q1302.93 1548.43 1302.62 1548.26 Q1302.36 1548.13 1301.52 1547.73 Q1299.77 1547.07 1296.73 1545.89 Q1293.7 1544.74 1290.63 1543.51 Q1285.45 1541.58 1283.87 1540.7 Q1282.33 1539.87 1280.18 1537.67 L1280 1537.45 Q1279.78 1537.19 1279.56 1536.88 Q1279.39 1536.58 1279.08 1536.14 Q1278.82 1535.65 1278.55 1535.08 Q1278.29 1534.51 1278.07 1533.85 Q1277.85 1533.15 1277.72 1532.32 Q1277.59 1531.44 1277.59 1530.56 Q1277.59 1529.11 1278.07 1527.22 Q1278.6 1525.29 1279.74 1522.74 Q1280.92 1520.2 1283.43 1517.43 Q1285.93 1514.66 1289.36 1512.38 L1290.54 1511.5 Q1287.56 1509.79 1286.11 1507.24 Q1284.7 1504.69 1284.7 1501.97 Q1284.7 1496.66 1289.01 1491.91 Q1293.35 1487.13 1300.42 1485.15 Q1299.81 1482.69 1299.81 1481.64 Q1299.81 1481.24 1299.85 1480.8 Q1299.9 1480.32 1299.98 1479.4 Q1300.12 1478.43 1300.47 1477.86 Q1300.86 1477.24 1301.43 1477.24 Q1302.49 1477.24 1302.49 1478.39 Q1302.05 1480.45 1302.05 1481.72 Q1302.05 1483.39 1302.49 1484.71 Q1305.04 1484.23 1308.15 1484.23 Q1311.62 1484.23 1313.6 1484.71 Q1315.62 1485.15 1315.62 1486.69 M1313.29 1486.77 Q1311.18 1486.2 1308.24 1486.2 Q1305.52 1486.2 1303.94 1486.69 Q1304.64 1487.21 1305.39 1487.35 Q1306.18 1487.48 1307.71 1487.48 Q1311.4 1487.48 1313.29 1486.77 M1307.19 1511.24 Q1305.08 1510.67 1302.05 1510.67 Q1299.15 1510.67 1296.91 1511.24 Q1298.05 1511.72 1298.84 1511.85 Q1299.68 1511.94 1301.43 1511.94 Q1305.78 1511.94 1307.19 1511.24 Z" fill="#000000" fill-rule="evenodd" fill-opacity="1" /><path clip-path="url(#clip540)" d="M1324.84 1547.16 L1324.84 1545.19 Q1332.41 1545.19 1336.31 1541.17 Q1337.39 1541.17 1337.57 1541.41 Q1337.75 1541.66 1337.75 1542.79 L1337.75 1578.12 Q1337.75 1579.99 1338.68 1580.58 Q1339.6 1581.16 1343.63 1581.16 L1345.62 1581.16 L1345.62 1583.1 Q1343.41 1582.91 1335.42 1582.91 Q1327.43 1582.91 1325.24 1583.1 L1325.24 1581.16 L1327.24 1581.16 Q1331.21 1581.16 1332.16 1580.61 Q1333.11 1580.02 1333.11 1578.12 L1333.11 1545.5 Q1329.82 1547.16 1324.84 1547.16 Z" fill="#000000" fill-rule="evenodd" fill-opacity="1" /><polyline clip-path="url(#clip540)" style="stroke:#000000; stroke-linecap:round; stroke-linejoin:round; stroke-width:4; stroke-opacity:1; fill:none" points="
  639.656,1400.54 639.656,47.2441 
  "/>
<polyline clip-path="url(#clip540)" style="stroke:#000000; stroke-linecap:round; stroke-linejoin:round; stroke-width:4; stroke-opacity:1; fill:none" points="
  639.656,1339.02 651.993,1339.02 
  "/>
<polyline clip-path="url(#clip540)" style="stroke:#000000; stroke-linecap:round; stroke-linejoin:round; stroke-width:4; stroke-opacity:1; fill:none" points="
  639.656,1031.46 651.993,1031.46 
  "/>
<polyline clip-path="url(#clip540)" style="stroke:#000000; stroke-linecap:round; stroke-linejoin:round; stroke-width:4; stroke-opacity:1; fill:none" points="
  639.656,723.89 651.993,723.89 
  "/>
<polyline clip-path="url(#clip540)" style="stroke:#000000; stroke-linecap:round; stroke-linejoin:round; stroke-width:4; stroke-opacity:1; fill:none" points="
  639.656,416.324 651.993,416.324 
  "/>
<polyline clip-path="url(#clip540)" style="stroke:#000000; stroke-linecap:round; stroke-linejoin:round; stroke-width:4; stroke-opacity:1; fill:none" points="
  639.656,108.757 651.993,108.757 
  "/>
<path clip-path="url(#clip540)" d="M496.712 1339.47 L526.388 1339.47 L526.388 1343.41 L496.712 1343.41 L496.712 1339.47 Z" fill="#000000" fill-rule="evenodd" fill-opacity="1" /><path clip-path="url(#clip540)" d="M537.291 1352.37 L544.93 1352.37 L544.93 1326 L536.619 1327.67 L536.619 1323.41 L544.883 1321.74 L549.559 1321.74 L549.559 1352.37 L557.198 1352.37 L557.198 1356.3 L537.291 1356.3 L537.291 1352.37 Z" fill="#000000" fill-rule="evenodd" fill-opacity="1" /><path clip-path="url(#clip540)" d="M566.642 1350.42 L571.527 1350.42 L571.527 1356.3 L566.642 1356.3 L566.642 1350.42 Z" fill="#000000" fill-rule="evenodd" fill-opacity="1" /><path clip-path="url(#clip540)" d="M591.712 1324.82 Q588.101 1324.82 586.272 1328.39 Q584.466 1331.93 584.466 1339.06 Q584.466 1346.16 586.272 1349.73 Q588.101 1353.27 591.712 1353.27 Q595.346 1353.27 597.151 1349.73 Q598.98 1346.16 598.98 1339.06 Q598.98 1331.93 597.151 1328.39 Q595.346 1324.82 591.712 1324.82 M591.712 1321.12 Q597.522 1321.12 600.577 1325.72 Q603.656 1330.31 603.656 1339.06 Q603.656 1347.78 600.577 1352.39 Q597.522 1356.97 591.712 1356.97 Q585.902 1356.97 582.823 1352.39 Q579.767 1347.78 579.767 1339.06 Q579.767 1330.31 582.823 1325.72 Q585.902 1321.12 591.712 1321.12 Z" fill="#000000" fill-rule="evenodd" fill-opacity="1" /><path clip-path="url(#clip540)" d="M497.708 1031.91 L527.383 1031.91 L527.383 1035.84 L497.708 1035.84 L497.708 1031.91 Z" fill="#000000" fill-rule="evenodd" fill-opacity="1" /><path clip-path="url(#clip540)" d="M547.476 1017.25 Q543.865 1017.25 542.036 1020.82 Q540.23 1024.36 540.23 1031.49 Q540.23 1038.6 542.036 1042.16 Q543.865 1045.7 547.476 1045.7 Q551.11 1045.7 552.916 1042.16 Q554.744 1038.6 554.744 1031.49 Q554.744 1024.36 552.916 1020.82 Q551.11 1017.25 547.476 1017.25 M547.476 1013.55 Q553.286 1013.55 556.341 1018.16 Q559.42 1022.74 559.42 1031.49 Q559.42 1040.22 556.341 1044.82 Q553.286 1049.41 547.476 1049.41 Q541.666 1049.41 538.587 1044.82 Q535.531 1040.22 535.531 1031.49 Q535.531 1022.74 538.587 1018.16 Q541.666 1013.55 547.476 1013.55 Z" fill="#000000" fill-rule="evenodd" fill-opacity="1" /><path clip-path="url(#clip540)" d="M567.638 1042.86 L572.522 1042.86 L572.522 1048.74 L567.638 1048.74 L567.638 1042.86 Z" fill="#000000" fill-rule="evenodd" fill-opacity="1" /><path clip-path="url(#clip540)" d="M582.753 1014.18 L601.11 1014.18 L601.11 1018.11 L587.036 1018.11 L587.036 1026.58 Q588.054 1026.24 589.073 1026.07 Q590.091 1025.89 591.11 1025.89 Q596.897 1025.89 600.276 1029.06 Q603.656 1032.23 603.656 1037.65 Q603.656 1043.23 600.184 1046.33 Q596.712 1049.41 590.392 1049.41 Q588.216 1049.41 585.948 1049.04 Q583.702 1048.67 581.295 1047.93 L581.295 1043.23 Q583.378 1044.36 585.601 1044.92 Q587.823 1045.47 590.3 1045.47 Q594.304 1045.47 596.642 1043.37 Q598.98 1041.26 598.98 1037.65 Q598.98 1034.04 596.642 1031.93 Q594.304 1029.82 590.3 1029.82 Q588.425 1029.82 586.55 1030.24 Q584.698 1030.66 582.753 1031.54 L582.753 1014.18 Z" fill="#000000" fill-rule="evenodd" fill-opacity="1" /><path clip-path="url(#clip540)" d="M546.48 709.689 Q542.869 709.689 541.041 713.253 Q539.235 716.795 539.235 723.925 Q539.235 731.031 541.041 734.596 Q542.869 738.138 546.48 738.138 Q550.115 738.138 551.92 734.596 Q553.749 731.031 553.749 723.925 Q553.749 716.795 551.92 713.253 Q550.115 709.689 546.48 709.689 M546.48 705.985 Q552.291 705.985 555.346 710.591 Q558.425 715.175 558.425 723.925 Q558.425 732.652 555.346 737.258 Q552.291 741.841 546.48 741.841 Q540.67 741.841 537.592 737.258 Q534.536 732.652 534.536 723.925 Q534.536 715.175 537.592 710.591 Q540.67 705.985 546.48 705.985 Z" fill="#000000" fill-rule="evenodd" fill-opacity="1" /><path clip-path="url(#clip540)" d="M566.642 735.29 L571.527 735.29 L571.527 741.17 L566.642 741.17 L566.642 735.29 Z" fill="#000000" fill-rule="evenodd" fill-opacity="1" /><path clip-path="url(#clip540)" d="M591.712 709.689 Q588.101 709.689 586.272 713.253 Q584.466 716.795 584.466 723.925 Q584.466 731.031 586.272 734.596 Q588.101 738.138 591.712 738.138 Q595.346 738.138 597.151 734.596 Q598.98 731.031 598.98 723.925 Q598.98 716.795 597.151 713.253 Q595.346 709.689 591.712 709.689 M591.712 705.985 Q597.522 705.985 600.577 710.591 Q603.656 715.175 603.656 723.925 Q603.656 732.652 600.577 737.258 Q597.522 741.841 591.712 741.841 Q585.902 741.841 582.823 737.258 Q579.767 732.652 579.767 723.925 Q579.767 715.175 582.823 710.591 Q585.902 705.985 591.712 705.985 Z" fill="#000000" fill-rule="evenodd" fill-opacity="1" /><path clip-path="url(#clip540)" d="M547.476 402.122 Q543.865 402.122 542.036 405.687 Q540.23 409.229 540.23 416.358 Q540.23 423.465 542.036 427.03 Q543.865 430.571 547.476 430.571 Q551.11 430.571 552.916 427.03 Q554.744 423.465 554.744 416.358 Q554.744 409.229 552.916 405.687 Q551.11 402.122 547.476 402.122 M547.476 398.419 Q553.286 398.419 556.341 403.025 Q559.42 407.608 559.42 416.358 Q559.42 425.085 556.341 429.692 Q553.286 434.275 547.476 434.275 Q541.666 434.275 538.587 429.692 Q535.531 425.085 535.531 416.358 Q535.531 407.608 538.587 403.025 Q541.666 398.419 547.476 398.419 Z" fill="#000000" fill-rule="evenodd" fill-opacity="1" /><path clip-path="url(#clip540)" d="M567.638 427.724 L572.522 427.724 L572.522 433.604 L567.638 433.604 L567.638 427.724 Z" fill="#000000" fill-rule="evenodd" fill-opacity="1" /><path clip-path="url(#clip540)" d="M582.753 399.044 L601.11 399.044 L601.11 402.979 L587.036 402.979 L587.036 411.451 Q588.054 411.104 589.073 410.942 Q590.091 410.757 591.11 410.757 Q596.897 410.757 600.276 413.928 Q603.656 417.099 603.656 422.516 Q603.656 428.094 600.184 431.196 Q596.712 434.275 590.392 434.275 Q588.216 434.275 585.948 433.905 Q583.702 433.534 581.295 432.793 L581.295 428.094 Q583.378 429.229 585.601 429.784 Q587.823 430.34 590.3 430.34 Q594.304 430.34 596.642 428.233 Q598.98 426.127 598.98 422.516 Q598.98 418.905 596.642 416.798 Q594.304 414.692 590.3 414.692 Q588.425 414.692 586.55 415.108 Q584.698 415.525 582.753 416.405 L582.753 399.044 Z" fill="#000000" fill-rule="evenodd" fill-opacity="1" /><path clip-path="url(#clip540)" d="M537.291 122.102 L544.93 122.102 L544.93 95.7366 L536.619 97.4033 L536.619 93.144 L544.883 91.4774 L549.559 91.4774 L549.559 122.102 L557.198 122.102 L557.198 126.037 L537.291 126.037 L537.291 122.102 Z" fill="#000000" fill-rule="evenodd" fill-opacity="1" /><path clip-path="url(#clip540)" d="M566.642 120.158 L571.527 120.158 L571.527 126.037 L566.642 126.037 L566.642 120.158 Z" fill="#000000" fill-rule="evenodd" fill-opacity="1" /><path clip-path="url(#clip540)" d="M591.712 94.556 Q588.101 94.556 586.272 98.1208 Q584.466 101.662 584.466 108.792 Q584.466 115.899 586.272 119.463 Q588.101 123.005 591.712 123.005 Q595.346 123.005 597.151 119.463 Q598.98 115.899 598.98 108.792 Q598.98 101.662 597.151 98.1208 Q595.346 94.556 591.712 94.556 M591.712 90.8524 Q597.522 90.8524 600.577 95.4588 Q603.656 100.042 603.656 108.792 Q603.656 117.519 600.577 122.125 Q597.522 126.709 591.712 126.709 Q585.902 126.709 582.823 122.125 Q579.767 117.519 579.767 108.792 Q579.767 100.042 582.823 95.4588 Q585.902 90.8524 591.712 90.8524 Z" fill="#000000" fill-rule="evenodd" fill-opacity="1" /><path clip-path="url(#clip540)" d="M374.826 726.738 Q377.593 726.738 377.593 734.731 Q377.593 736.093 377.549 736.839 Q377.461 737.586 377.022 738.684 Q376.539 739.738 375.616 740.484 Q377.944 745.227 382.336 747.862 Q386.727 750.453 390.899 750.453 Q395.247 750.453 397.926 747.775 Q396.828 744.437 396.828 740.221 Q396.828 736.839 397.311 734.863 Q397.794 732.843 399.288 732.843 Q399.946 732.843 400.473 733.238 Q400.956 733.633 401.264 734.468 Q401.527 735.258 401.703 736.005 Q401.879 736.707 401.967 737.849 Q402.011 738.991 402.054 739.606 Q402.054 740.221 402.054 741.187 Q402.054 745.93 400.913 749.136 Q403.504 754.274 408.203 757.217 Q412.858 760.159 416.196 760.159 Q421.466 760.159 424.189 753.44 L426.341 748.038 Q426.736 746.808 428.405 742.548 L430.469 737.059 Q432.357 732.755 436.881 732.755 Q440.394 732.755 443.424 735.478 Q446.499 738.157 446.499 742.109 Q446.499 744.437 445.62 746.852 Q444.786 749.224 443.776 750.585 Q442.766 751.903 442.195 751.903 Q441.185 751.903 441.185 751.024 Q441.185 750.673 441.624 750.014 Q444.522 745.842 444.522 742.109 Q444.522 740.177 442.985 738.947 Q441.448 737.674 439.735 737.674 Q438.813 737.674 438.154 737.937 Q437.496 738.157 437.012 738.815 Q436.573 739.43 436.398 739.738 Q436.266 740.001 435.871 740.836 Q435.212 742.592 434.026 745.623 Q432.884 748.653 431.655 751.727 Q429.722 756.909 428.844 758.49 Q428.009 760.027 425.814 762.179 L425.594 762.355 Q425.33 762.575 425.023 762.794 Q424.716 762.97 424.276 763.277 Q423.793 763.541 423.222 763.804 Q422.652 764.068 421.993 764.287 Q421.29 764.507 420.456 764.639 Q419.577 764.77 418.699 764.77 Q417.25 764.77 415.361 764.287 Q413.429 763.76 410.882 762.619 Q408.335 761.433 405.568 758.929 Q402.801 756.426 400.517 753.001 L399.639 751.815 Q397.926 754.801 395.379 756.251 Q392.832 757.656 390.109 757.656 Q384.795 757.656 380.052 753.352 Q375.265 749.004 373.289 741.934 Q370.829 742.548 369.775 742.548 Q369.38 742.548 368.941 742.504 Q368.458 742.461 367.536 742.373 Q366.569 742.241 365.998 741.89 Q365.384 741.494 365.384 740.923 Q365.384 739.869 366.526 739.869 Q368.59 740.309 369.863 740.309 Q371.532 740.309 372.85 739.869 Q372.366 737.322 372.366 734.204 Q372.366 730.735 372.85 728.758 Q373.289 726.738 374.826 726.738 M374.914 729.066 Q374.343 731.174 374.343 734.116 Q374.343 736.839 374.826 738.42 Q375.353 737.718 375.485 736.971 Q375.616 736.18 375.616 734.643 Q375.616 730.954 374.914 729.066 M399.375 735.17 Q398.805 737.278 398.805 740.309 Q398.805 743.207 399.375 745.447 Q399.859 744.305 399.99 743.515 Q400.078 742.68 400.078 740.923 Q400.078 736.576 399.375 735.17 Z" fill="#000000" fill-rule="evenodd" fill-opacity="1" /><path clip-path="url(#clip540)" d="M471.237 717.514 Q470.099 717.514 469.761 717.422 Q469.423 717.299 468.9 716.807 L455.435 704.726 Q447.996 698.116 441.509 698.116 Q437.298 698.116 434.285 700.329 Q431.272 702.512 431.272 706.539 Q431.272 709.306 432.963 711.642 Q434.654 713.979 437.667 715.055 Q437.605 714.87 437.605 714.225 Q437.605 712.657 438.589 711.796 Q439.573 710.905 440.894 710.905 Q442.585 710.905 443.415 712.011 Q444.215 713.087 444.215 714.163 Q444.215 714.594 444.122 715.178 Q444.03 715.731 443.169 716.623 Q442.278 717.514 440.71 717.514 Q436.314 717.514 432.809 714.194 Q429.305 710.843 429.305 705.74 Q429.305 699.961 432.748 696.179 Q436.16 692.367 441.509 692.367 Q443.385 692.367 445.106 692.951 Q446.797 693.505 448.119 694.273 Q449.441 695.011 451.562 697.04 Q453.683 699.069 455.189 700.698 Q456.696 702.328 459.893 705.986 L466.38 712.657 L466.38 701.313 Q466.38 695.78 465.888 695.349 Q464.996 694.734 460.293 693.966 L460.293 692.367 L471.237 694.15 L471.237 717.514 Z" fill="#000000" fill-rule="evenodd" fill-opacity="1" /><polyline clip-path="url(#clip542)" style="stroke:#000000; stroke-linecap:round; stroke-linejoin:round; stroke-width:12; stroke-opacity:1; fill:none" points="
  701.169,1339.02 732.715,1339.02 764.26,1339.02 795.805,1339.02 827.35,1339.02 858.896,1339.02 890.441,1339.02 921.986,1339.02 953.531,1339.02 985.077,1339.02 
  1016.62,1339.02 1048.17,1339.02 1079.71,1339.02 1111.26,1339.02 1142.8,1339.02 1174.35,1339.02 1205.89,1339.02 1237.44,1339.02 1268.98,1339.02 1300.53,1339.02 
  1332.07,1339.02 1363.62,1339.02 1395.17,1339.02 1426.71,1339.02 1458.26,1339.02 1489.8,1339.02 1521.35,1339.02 1552.89,1339.02 1584.44,1339.02 1615.98,1339.02 
  1647.53,1339.02 1679.07,1339.02 1710.62,1339.02 1742.16,1339.02 1773.71,1339.02 1805.25,1339.02 1836.8,1339.02 1868.34,1339.02 1899.89,1339.02 1931.43,1339.02 
  
  "/>
<polyline clip-path="url(#clip542)" style="stroke:#000000; stroke-linecap:round; stroke-linejoin:round; stroke-width:12; stroke-opacity:1; fill:none" points="
  701.169,108.757 701.169,108.757 732.715,140.303 764.26,171.848 795.805,203.393 827.35,234.938 858.896,266.484 890.441,298.029 921.986,329.574 953.531,361.119 
  985.077,392.665 1016.62,424.21 1048.17,455.755 1079.71,487.301 1111.26,518.846 1142.8,550.391 1174.35,581.936 1205.89,613.482 1237.44,645.027 1268.98,676.572 
  1300.53,708.117 1332.07,739.663 1363.62,771.208 1395.17,802.753 1426.71,834.298 1458.26,865.844 1489.8,897.389 1521.35,928.934 1552.89,960.479 1584.44,992.025 
  1615.98,1023.57 1647.53,1055.12 1679.07,1086.66 1710.62,1118.21 1742.16,1149.75 1773.71,1181.3 1805.25,1212.84 1836.8,1244.39 1868.34,1275.93 1899.89,1307.48 
  1931.43,1339.02 
  "/>
<polyline clip-path="url(#clip542)" style="stroke:#000000; stroke-linecap:round; stroke-linejoin:round; stroke-width:12; stroke-opacity:1; fill:none" points="
  701.169,1339.02 701.169,1307.48 701.169,1275.93 701.169,1244.39 701.169,1212.84 701.169,1181.3 701.169,1149.75 701.169,1118.21 701.169,1086.66 701.169,1055.12 
  701.169,1023.57 701.169,992.025 701.169,960.479 701.169,928.934 701.169,897.389 701.169,865.844 701.169,834.298 701.169,802.753 701.169,771.208 701.169,739.663 
  701.169,708.117 701.169,676.572 701.169,645.027 701.169,613.482 701.169,581.936 701.169,550.391 701.169,518.846 701.169,487.301 701.169,455.755 701.169,424.21 
  701.169,392.665 701.169,361.119 701.169,329.574 701.169,298.029 701.169,266.484 701.169,234.938 701.169,203.393 701.169,171.848 701.169,140.303 701.169,108.757 
  
  "/>
<polyline clip-path="url(#clip542)" style="stroke:#009af9; stroke-linecap:round; stroke-linejoin:round; stroke-width:12; stroke-opacity:1; fill:none" points="
  756.174,1281.31 971.754,1281.31 1287.45,1281.31 1603.14,1281.31 1818.72,1281.31 
  "/>
<polyline clip-path="url(#clip542)" style="stroke:#009af9; stroke-linecap:round; stroke-linejoin:round; stroke-width:12; stroke-opacity:1; fill:none" points="
  745.563,1055.12 919.557,1055.12 1174.35,1055.12 1429.14,1055.12 1603.14,1055.12 
  "/>
<polyline clip-path="url(#clip542)" style="stroke:#009af9; stroke-linecap:round; stroke-linejoin:round; stroke-width:12; stroke-opacity:1; fill:none" points="
  730.025,723.89 843.121,723.89 1008.74,723.89 1174.35,723.89 1287.45,723.89 
  "/>
<polyline clip-path="url(#clip542)" style="stroke:#009af9; stroke-linecap:round; stroke-linejoin:round; stroke-width:12; stroke-opacity:1; fill:none" points="
  714.487,392.66 766.684,392.66 843.121,392.66 919.557,392.66 971.754,392.66 
  "/>
<polyline clip-path="url(#clip542)" style="stroke:#009af9; stroke-linecap:round; stroke-linejoin:round; stroke-width:12; stroke-opacity:1; fill:none" points="
  703.877,166.469 714.487,166.469 730.025,166.469 745.563,166.469 756.174,166.469 
  "/>
<polyline clip-path="url(#clip542)" style="stroke:#009af9; stroke-linecap:round; stroke-linejoin:round; stroke-width:12; stroke-opacity:1; fill:none" points="
  756.174,1281.31 745.563,1055.12 730.025,723.89 714.487,392.66 703.877,166.469 
  "/>
<polyline clip-path="url(#clip542)" style="stroke:#009af9; stroke-linecap:round; stroke-linejoin:round; stroke-width:12; stroke-opacity:1; fill:none" points="
  971.754,1281.31 919.557,1055.12 843.121,723.89 766.684,392.66 714.487,166.469 
  "/>
<polyline clip-path="url(#clip542)" style="stroke:#009af9; stroke-linecap:round; stroke-linejoin:round; stroke-width:12; stroke-opacity:1; fill:none" points="
  1287.45,1281.31 1174.35,1055.12 1008.74,723.89 843.121,392.66 730.025,166.469 
  "/>
<polyline clip-path="url(#clip542)" style="stroke:#009af9; stroke-linecap:round; stroke-linejoin:round; stroke-width:12; stroke-opacity:1; fill:none" points="
  1603.14,1281.31 1429.14,1055.12 1174.35,723.89 919.557,392.66 745.563,166.469 
  "/>
<polyline clip-path="url(#clip542)" style="stroke:#009af9; stroke-linecap:round; stroke-linejoin:round; stroke-width:12; stroke-opacity:1; fill:none" points="
  1818.72,1281.31 1603.14,1055.12 1287.45,723.89 971.754,392.66 756.174,166.469 
  "/>
<path clip-path="url(#clip542)" d="M734.881 1315.02 L734.881 1363.02 L782.881 1363.02 L782.881 1315.02 L734.881 1315.02 Z" fill="#e26f46" fill-rule="evenodd" fill-opacity="1" stroke="#000000" stroke-opacity="1" stroke-width="0"/>
<path clip-path="url(#clip542)" d="M961.072 1315.02 L961.072 1363.02 L1009.07 1363.02 L1009.07 1315.02 L961.072 1315.02 Z" fill="#e26f46" fill-rule="evenodd" fill-opacity="1" stroke="#000000" stroke-opacity="1" stroke-width="0"/>
<path clip-path="url(#clip542)" d="M1292.3 1315.02 L1292.3 1363.02 L1340.3 1363.02 L1340.3 1315.02 L1292.3 1315.02 Z" fill="#e26f46" fill-rule="evenodd" fill-opacity="1" stroke="#000000" stroke-opacity="1" stroke-width="0"/>
<path clip-path="url(#clip542)" d="M1623.53 1315.02 L1623.53 1363.02 L1671.53 1363.02 L1671.53 1315.02 L1623.53 1315.02 Z" fill="#e26f46" fill-rule="evenodd" fill-opacity="1" stroke="#000000" stroke-opacity="1" stroke-width="0"/>
<path clip-path="url(#clip542)" d="M1849.72 1315.02 L1849.72 1363.02 L1897.72 1363.02 L1897.72 1315.02 L1849.72 1315.02 Z" fill="#e26f46" fill-rule="evenodd" fill-opacity="1" stroke="#000000" stroke-opacity="1" stroke-width="0"/>
<path clip-path="url(#clip542)" d="M1849.72 1257.31 L1849.72 1305.31 L1897.72 1305.31 L1897.72 1257.31 L1849.72 1257.31 Z" fill="#e26f46" fill-rule="evenodd" fill-opacity="1" stroke="#000000" stroke-opacity="1" stroke-width="0"/>
<path clip-path="url(#clip542)" d="M1623.53 1031.12 L1623.53 1079.12 L1671.53 1079.12 L1671.53 1031.12 L1623.53 1031.12 Z" fill="#e26f46" fill-rule="evenodd" fill-opacity="1" stroke="#000000" stroke-opacity="1" stroke-width="0"/>
<path clip-path="url(#clip542)" d="M1292.3 699.89 L1292.3 747.89 L1340.3 747.89 L1340.3 699.89 L1292.3 699.89 Z" fill="#e26f46" fill-rule="evenodd" fill-opacity="1" stroke="#000000" stroke-opacity="1" stroke-width="0"/>
<path clip-path="url(#clip542)" d="M961.072 368.66 L961.072 416.66 L1009.07 416.66 L1009.07 368.66 L961.072 368.66 Z" fill="#e26f46" fill-rule="evenodd" fill-opacity="1" stroke="#000000" stroke-opacity="1" stroke-width="0"/>
<path clip-path="url(#clip542)" d="M734.881 142.469 L734.881 190.469 L782.881 190.469 L782.881 142.469 L734.881 142.469 Z" fill="#e26f46" fill-rule="evenodd" fill-opacity="1" stroke="#000000" stroke-opacity="1" stroke-width="0"/>
<path clip-path="url(#clip542)" d="M677.169 142.469 L677.169 190.469 L725.169 190.469 L725.169 142.469 L677.169 142.469 Z" fill="#e26f46" fill-rule="evenodd" fill-opacity="1" stroke="#000000" stroke-opacity="1" stroke-width="0"/>
<path clip-path="url(#clip542)" d="M677.169 368.66 L677.169 416.66 L725.169 416.66 L725.169 368.66 L677.169 368.66 Z" fill="#e26f46" fill-rule="evenodd" fill-opacity="1" stroke="#000000" stroke-opacity="1" stroke-width="0"/>
<path clip-path="url(#clip542)" d="M677.169 699.89 L677.169 747.89 L725.169 747.89 L725.169 699.89 L677.169 699.89 Z" fill="#e26f46" fill-rule="evenodd" fill-opacity="1" stroke="#000000" stroke-opacity="1" stroke-width="0"/>
<path clip-path="url(#clip542)" d="M677.169 1031.12 L677.169 1079.12 L725.169 1079.12 L725.169 1031.12 L677.169 1031.12 Z" fill="#e26f46" fill-rule="evenodd" fill-opacity="1" stroke="#000000" stroke-opacity="1" stroke-width="0"/>
<path clip-path="url(#clip542)" d="M677.169 1257.31 L677.169 1305.31 L725.169 1305.31 L725.169 1257.31 L677.169 1257.31 Z" fill="#e26f46" fill-rule="evenodd" fill-opacity="1" stroke="#000000" stroke-opacity="1" stroke-width="0"/>
<circle clip-path="url(#clip542)" cx="701.169" cy="1339.02" r="21.6" fill="#3da44d" fill-rule="evenodd" fill-opacity="1" stroke="#000000" stroke-opacity="1" stroke-width="0"/>
<circle clip-path="url(#clip542)" cx="701.169" cy="1126.59" r="21.6" fill="#3da44d" fill-rule="evenodd" fill-opacity="1" stroke="#000000" stroke-opacity="1" stroke-width="0"/>
<circle clip-path="url(#clip542)" cx="701.169" cy="723.89" r="21.6" fill="#3da44d" fill-rule="evenodd" fill-opacity="1" stroke="#000000" stroke-opacity="1" stroke-width="0"/>
<circle clip-path="url(#clip542)" cx="701.169" cy="321.191" r="21.6" fill="#3da44d" fill-rule="evenodd" fill-opacity="1" stroke="#000000" stroke-opacity="1" stroke-width="0"/>
<circle clip-path="url(#clip542)" cx="701.169" cy="108.757" r="21.6" fill="#3da44d" fill-rule="evenodd" fill-opacity="1" stroke="#000000" stroke-opacity="1" stroke-width="0"/>
<circle clip-path="url(#clip542)" cx="913.603" cy="1339.02" r="21.6" fill="#3da44d" fill-rule="evenodd" fill-opacity="1" stroke="#000000" stroke-opacity="1" stroke-width="0"/>
<circle clip-path="url(#clip542)" cx="977.025" cy="1063.17" r="21.6" fill="#3da44d" fill-rule="evenodd" fill-opacity="1" stroke="#000000" stroke-opacity="1" stroke-width="0"/>
<circle clip-path="url(#clip542)" cx="977.025" cy="660.468" r="21.6" fill="#3da44d" fill-rule="evenodd" fill-opacity="1" stroke="#000000" stroke-opacity="1" stroke-width="0"/>
<circle clip-path="url(#clip542)" cx="913.603" cy="321.191" r="21.6" fill="#3da44d" fill-rule="evenodd" fill-opacity="1" stroke="#000000" stroke-opacity="1" stroke-width="0"/>
<circle clip-path="url(#clip542)" cx="1316.3" cy="1339.02" r="21.6" fill="#3da44d" fill-rule="evenodd" fill-opacity="1" stroke="#000000" stroke-opacity="1" stroke-width="0"/>
<circle clip-path="url(#clip542)" cx="1379.72" cy="1063.17" r="21.6" fill="#3da44d" fill-rule="evenodd" fill-opacity="1" stroke="#000000" stroke-opacity="1" stroke-width="0"/>
<circle clip-path="url(#clip542)" cx="1316.3" cy="723.89" r="21.6" fill="#3da44d" fill-rule="evenodd" fill-opacity="1" stroke="#000000" stroke-opacity="1" stroke-width="0"/>
<circle clip-path="url(#clip542)" cx="1719" cy="1339.02" r="21.6" fill="#3da44d" fill-rule="evenodd" fill-opacity="1" stroke="#000000" stroke-opacity="1" stroke-width="0"/>
<circle clip-path="url(#clip542)" cx="1719" cy="1126.59" r="21.6" fill="#3da44d" fill-rule="evenodd" fill-opacity="1" stroke="#000000" stroke-opacity="1" stroke-width="0"/>
<circle clip-path="url(#clip542)" cx="1931.43" cy="1339.02" r="21.6" fill="#3da44d" fill-rule="evenodd" fill-opacity="1" stroke="#000000" stroke-opacity="1" stroke-width="0"/>
</svg>
